<?xml version="1.0" encoding="utf-8"?>
<svg width="622.4492px" height="305px" viewBox="0 0 622.4492 305" version="1.1" xmlns:xlink="http://www.w3.org/1999/xlink" xmlns="http://www.w3.org/2000/svg">
  <defs>
    <path d="M622.449 0L622.449 0L622.449 305L0 305L0 0L622.449 0Z" id="path_1" />
    <path d="M46.3965 37.7654L228.077 38.0852C228.077 38.0852 233.505 37.827 239.077 43.0853C244.649 48.3434 270.078 73.5851 270.078 73.5851C270.078 73.5851 274.546 78.5071 283.078 78.5852C291.61 78.6634 349.077 78.5852 349.077 78.5852C349.077 78.5852 375.228 78.2308 375.577 112.585C375.927 146.94 346.556 159.989 339.077 160.585C331.597 161.182 323.076 161.085 323.076 161.085C323.076 161.085 316.132 160.707 311.076 165.085C306.019 169.463 294.076 183.086 294.076 183.086C294.076 183.086 287.51 190.583 293.077 200.585C298.645 210.588 311.075 209.586 311.075 209.586L353.577 208.085C353.577 208.085 403.977 208.554 432.576 152.085C461.176 95.6162 433.477 45.5539 415.077 26.5851C396.676 7.61632 376.516 3.47472 367.577 3.08507C358.637 2.69542 84.0762 2.52512 84.0762 2.52512C84.0762 2.52512 73.9268 1.68993 67.7559 9.42482C61.585 17.1597 46.3965 37.7654 46.3965 37.7654Z" id="path_2" />
    <clipPath id="clip_1">
      <use xlink:href="#path_1" clip-rule="evenodd" fill-rule="evenodd" />
    </clipPath>
    <clipPath id="clip_2">
      <use xlink:href="#path_2" />
    </clipPath>
  </defs>
  <g id="logo" clip-path="url(#clip_1)">
    <path d="M622.449 0L622.449 0L622.449 305L0 305L0 0L622.449 0Z" id="logo" fill="none" stroke="none" />
    <path d="M250.305 286.326L259.323 232.004L280.755 232.004C284.858 232.004 288.227 232.79 290.861 234.364C293.514 235.92 295.371 238.086 296.432 240.863C297.51 243.621 297.758 246.804 297.174 250.412C296.573 254.037 295.265 257.229 293.248 259.987C291.25 262.728 288.651 264.868 285.45 266.406C282.249 267.944 278.554 268.714 274.363 268.714L260.702 268.714L262.214 259.51L274.018 259.51C276.246 259.51 278.147 259.13 279.721 258.369C281.312 257.591 282.577 256.521 283.514 255.16C284.451 253.78 285.061 252.198 285.344 250.412C285.645 248.59 285.547 247.008 285.052 245.664C284.557 244.32 283.646 243.276 282.32 242.534C281.012 241.774 279.252 241.393 277.042 241.393L269.297 241.393L261.79 286.326L250.305 286.326L250.305 286.326ZM308.87 287.096C306.288 287.096 304.051 286.645 302.159 285.743C300.285 284.823 298.906 283.461 298.021 281.658C297.137 279.854 296.916 277.617 297.358 274.947C297.748 272.684 298.481 270.792 299.56 269.271C300.656 267.732 301.991 266.494 303.565 265.557C305.139 264.62 306.881 263.904 308.791 263.409C310.718 262.914 312.707 262.578 314.758 262.401C317.129 262.154 319.056 261.914 320.54 261.685C322.043 261.455 323.167 261.128 323.911 260.703C324.651 260.261 325.103 259.607 325.261 258.741L325.261 258.581C325.529 256.919 325.218 255.628 324.334 254.709C323.469 253.772 322.081 253.303 320.17 253.303C318.153 253.303 316.438 253.745 315.025 254.629C313.628 255.513 312.629 256.636 312.028 257.998L301.735 257.149C302.655 254.673 304.043 252.534 305.899 250.73C307.774 248.909 310.028 247.512 312.663 246.539C315.299 245.549 318.253 245.054 321.523 245.054C323.786 245.054 325.899 245.319 327.863 245.849C329.843 246.38 331.548 247.202 332.98 248.316C334.43 249.43 335.476 250.863 336.111 252.613C336.764 254.346 336.898 256.424 336.509 258.847L331.922 286.326L321.203 286.326L322.158 280.677L321.841 280.677C320.976 281.95 319.914 283.072 318.657 284.045C317.403 285 315.962 285.751 314.334 286.3C312.707 286.83 310.886 287.096 308.87 287.096L308.87 287.096ZM313.409 279.297C315.052 279.297 316.565 278.97 317.943 278.315C319.341 277.643 320.489 276.742 321.392 275.61C322.313 274.478 322.895 273.196 323.144 271.764L323.832 267.44C323.48 267.67 322.966 267.874 322.294 268.05C321.641 268.227 320.922 268.395 320.144 268.555C319.384 268.696 318.616 268.828 317.837 268.952C317.059 269.058 316.362 269.164 315.743 269.271C314.38 269.465 313.16 269.775 312.083 270.199C311.003 270.623 310.127 271.198 309.456 271.923C308.784 272.63 308.368 273.514 308.209 274.575C307.961 276.114 308.324 277.29 309.297 278.103C310.287 278.899 311.657 279.297 313.409 279.297L313.409 279.297ZM343.713 301.604C342.263 301.604 340.937 301.49 339.736 301.26C338.531 301.047 337.542 300.773 336.764 300.437L340.741 292.002C341.999 292.409 343.138 292.621 344.165 292.639C345.207 292.657 346.163 292.391 347.028 291.843C347.896 291.295 348.69 290.393 349.415 289.138L350.423 287.413L342.786 245.584L354.242 245.584L357.69 275.557L358.117 275.557L371.618 245.584L384.005 245.584L360.688 290.729C359.539 292.94 358.179 294.858 356.604 296.485C355.048 298.112 353.199 299.367 351.061 300.251C348.939 301.153 346.49 301.604 343.713 301.604L343.713 301.604ZM382.995 286.326L389.785 245.584L400.741 245.584L399.545 252.693L399.972 252.693C401.139 250.164 402.701 248.254 404.665 246.963C406.648 245.655 408.776 245 411.058 245C411.624 245 412.215 245.036 412.835 245.107C413.473 245.159 414.039 245.248 414.534 245.372L412.835 255.425C412.34 255.248 411.633 255.106 410.712 255C409.813 254.876 408.954 254.815 408.142 254.815C406.495 254.815 404.967 255.177 403.551 255.902C402.138 256.609 400.943 257.6 399.972 258.873C399.016 260.146 398.388 261.614 398.089 263.276L394.295 286.326L382.995 286.326L382.995 286.326ZM430.123 287.122C425.968 287.122 422.526 286.238 419.802 284.47C417.079 282.683 415.162 280.208 414.048 277.042C412.952 273.86 412.747 270.155 413.438 265.929C414.11 261.755 415.507 258.104 417.63 254.974C419.749 251.844 422.448 249.413 425.719 247.68C428.99 245.929 432.678 245.054 436.78 245.054C440.919 245.054 444.349 245.947 447.072 247.733C449.795 249.501 451.712 251.977 452.826 255.16C453.941 258.343 454.152 262.047 453.464 266.273C452.773 270.429 451.361 274.072 449.219 277.202C447.081 280.332 444.383 282.772 441.131 284.523C437.875 286.256 434.206 287.122 430.123 287.122L430.123 287.122ZM431.238 278.369C433.145 278.369 434.835 277.829 436.304 276.75C437.789 275.654 439.018 274.169 439.989 272.294C440.979 270.402 441.67 268.262 442.059 265.875C442.448 263.523 442.476 261.437 442.14 259.615C441.804 257.776 441.094 256.326 440.017 255.265C438.956 254.204 437.496 253.674 435.641 253.674C433.73 253.674 432.031 254.222 430.547 255.318C429.062 256.397 427.833 257.883 426.862 259.775C425.888 261.667 425.206 263.815 424.817 266.22C424.447 268.554 424.419 270.641 424.739 272.48C425.057 274.301 425.754 275.742 426.834 276.803C427.914 277.847 429.38 278.369 431.238 278.369L431.238 278.369ZM477.786 232.004L468.767 286.326L457.47 286.326L466.486 232.004L477.786 232.004L477.786 232.004ZM498.137 232.004L489.121 286.326L477.821 286.326L486.84 232.004L498.137 232.004L498.137 232.004ZM528.013 259.536L526.554 268.501L501.752 268.501L503.212 259.536L528.013 259.536L528.013 259.536Z" id="Shape" fill="#FBB03B" fill-rule="evenodd" stroke="none" />
    <path d="M542.207 232.004L533.188 286.326L544.488 286.326L546.636 273.386L550.297 269.888L558.652 286.326L571.888 286.326L559.858 263.267L577.908 245.584L564.939 245.584L549.263 261.048L548.684 261.048L553.504 232.004L542.207 232.004ZM559.858 263.267L557.006 266.061L554.302 266.061L550.297 269.888L549.633 268.581L558.465 260.597L559.858 263.267ZM548.684 261.048L546.636 273.386L545.363 274.602L547.617 261.048L548.684 261.048ZM609.576 245.584L605.679 268.979C605.396 270.8 604.786 272.33 603.846 273.568C602.909 274.805 601.795 275.743 600.507 276.379C599.231 276.998 597.914 277.308 596.554 277.308C594.413 277.308 592.823 276.609 591.78 275.212C590.734 273.815 590.398 271.914 590.772 269.509L594.749 245.584L583.448 245.584L579.101 271.525C578.587 274.708 578.721 277.44 579.499 279.721C580.277 282.003 581.594 283.762 583.448 285C585.325 286.238 587.622 286.857 590.345 286.857C593.405 286.857 596.137 286.132 598.543 284.682C600.949 283.232 602.779 281.313 604.033 278.926L604.456 278.926L603.236 286.326L614.085 286.326L620.876 245.584L609.576 245.584Z" id="Shape" fill="#07366B" fill-rule="evenodd" stroke="none" />
    <path d="M217.968 46.6836L189.937 46.6836C177.097 46.6836 169.782 61.3566 177.509 71.6105L231.357 143.062C236.088 149.339 235.394 158.159 229.741 163.62L130.402 259.573C120.336 269.295 127.219 286.326 141.213 286.326L167.893 286.326C171.988 286.326 175.919 284.712 178.832 281.833L298.343 163.711C303.924 158.195 304.525 149.387 299.745 143.164L230.309 52.7655C227.364 48.9313 222.803 46.6836 217.968 46.6836L217.968 46.6836Z" id="Shape" fill="#07366B" stroke="#07366B" stroke-width="1" />
    <path d="M115.264 46.6837L87.2329 46.6837C74.393 46.6837 67.078 61.3567 74.8057 71.6106L128.653 143.062C133.384 149.34 132.691 158.159 127.037 163.62L27.6978 259.573C17.6325 269.295 24.5148 286.327 38.5088 286.327L65.1889 286.327C69.2846 286.327 73.215 284.712 76.1278 281.833L195.64 163.711C201.22 158.195 201.821 149.387 197.042 143.164L127.605 52.7656C124.66 48.9313 120.099 46.6837 115.264 46.6837L115.264 46.6837Z" id="Shape" fill="#07366B" stroke="#07366B" stroke-width="1" />
    <g id="Vector">
      <use stroke="none" fill="#FBB03B" xlink:href="#path_2" fill-rule="evenodd" />
      <g clip-path="url(#clip_2)">
        <use xlink:href="#path_2" fill="none" stroke="#07366B" stroke-width="6" />
      </g>
    </g>
    <path d="M559.076 256.085L551.076 261.085L546.076 261.085L543.576 276.585L551.113 269.13L555.576 274.585L561.576 267.085L559.59 262.598L559.076 256.085Z" id="Vector-2" fill="#07366B" fill-rule="evenodd" stroke="none" />
    <path d="M269.076 259.741L260.076 259.085L260.076 268.835L269.076 268.585L269.076 259.741Z" id="Vector-3" fill="#FBB03B" fill-rule="evenodd" stroke="none" />
  </g>
</svg>