<svg width="711" height="711" viewBox="0 0 711 711" fill="none" xmlns="http://www.w3.org/2000/svg">
<path d="M516.189 382.198V567.281L547.125 617.735L549.48 621.573H671.544L674.011 382.198H516.189Z" fill="#E6E6E6"/>
<path opacity="0.1" d="M516.189 382.198V567.281L547.125 617.735L549.024 382.198H516.189Z" fill="black"/>
<path d="M221.508 377.262V562.345L190.572 612.799L188.218 616.636H66.1529L63.6865 377.262H221.508Z" fill="#E6E6E6"/>
<path opacity="0.1" d="M221.507 377.262V562.345L190.571 612.799L188.673 377.262H221.507Z" fill="black"/>
<path d="M711 373.561V384.665H47.6572V368.625L109.306 336.543H656.749L711 373.561Z" fill="#E6E6E6"/>
<path opacity="0.1" d="M711 373.561V384.665H47.6572V368.625L711 373.561Z" fill="black"/>
<path d="M142.598 429.085H113.006L100.676 420.448H156.16L142.598 429.085Z" fill="#3F3D56"/>
<path d="M142.598 464.868H113.006L100.676 456.231H156.16L142.598 464.868Z" fill="#3F3D56"/>
<path d="M142.598 515.458H113.006L100.676 506.82H156.16L142.598 515.458Z" fill="#3F3D56"/>
<path d="M142.598 566.047H113.006L100.676 557.41H156.16L142.598 566.047Z" fill="#3F3D56"/>
<path d="M595.1 434.021H624.692L637.021 425.384H581.537L595.1 434.021Z" fill="#3F3D56"/>
<path d="M595.1 469.804H624.692L637.021 461.167H581.537L595.1 469.804Z" fill="#3F3D56"/>
<path d="M595.1 520.393H624.692L637.021 511.756H581.537L595.1 520.393Z" fill="#3F3D56"/>
<path d="M595.1 570.982H624.692L637.021 562.345H581.537L595.1 570.982Z" fill="#3F3D56"/>
<path d="M94.6362 2.00039C92.9088 1.85845 91.1791 2.24514 89.6762 3.10921C88.2006 4.12049 87.2706 5.89214 86.3212 7.54078C82.6915 13.9194 77.7776 19.4742 71.8908 23.8531C67.603 26.9966 62.1516 30.9162 62.8852 36.7119C63.2722 38.6259 63.9788 40.461 64.9753 42.14C68.9308 50.1308 79.7249 56.306 78.6632 65.4241C82.5932 58.8401 77.3366 55.5845 81.2665 49.0005C83.1381 45.865 86.3893 42.3256 89.215 44.2947C90.1611 44.954 90.7823 46.1365 91.7674 46.715C94.118 48.0954 96.6187 45.4564 98.6995 43.5872C105.874 37.1415 116.078 38.8302 125.006 40.8385C129.222 41.7866 133.851 43.0305 136.343 47.0621C139.619 52.3629 133.23 58.0877 131.616 64.0807C131.485 64.5913 131.478 65.1263 131.598 65.6399C131.718 66.1535 131.96 66.6304 132.305 67.0298C132.649 67.4292 133.084 67.7393 133.574 67.9335C134.064 68.1276 134.594 68.2001 135.118 68.1448C137.797 67.8803 140.971 67.6635 141.129 66.487C144.5 66.6071 148.63 66.2251 150.074 62.7127C150.516 61.323 150.749 59.8756 150.767 58.4175C151.297 52.5175 153.799 47.135 155.457 41.5196C157.114 35.9042 157.835 29.3233 155.038 24.3446C154.039 22.6882 152.805 21.1864 151.373 19.887C135.498 4.51294 114.626 1.97756 94.6362 2.00039Z" fill="#2F2E41"/>
<path d="M82.1163 76.9406C82.1163 76.9406 85.5688 105.733 72.9096 108.036C60.2505 110.339 84.4179 149.497 84.4179 149.497L141.96 156.407L128.15 110.339C128.15 110.339 118.943 106.884 124.697 83.8507C130.451 60.817 82.1163 76.9406 82.1163 76.9406Z" fill="#FFB8B8"/>
<path d="M47.0156 571.588L51.6194 634.931H75.786L68.8818 571.588H47.0156Z" fill="#FFB8B8"/>
<path d="M224.244 451.813L227.696 504.79L254.166 493.273L243.808 449.51L224.244 451.813Z" fill="#FFB8B8"/>
<path d="M29.7529 329.735C29.7529 329.735 30.9037 396.532 37.8088 418.414C44.7138 440.296 43.5629 441.448 42.4121 444.903C41.2613 448.358 40.1105 446.054 40.1105 451.813C40.1105 457.571 37.8088 548.554 40.1105 556.616C42.4121 564.678 33.2055 578.498 40.1105 579.65C47.0154 580.801 79.2387 579.65 80.3896 572.739C81.5404 565.829 71.1829 563.526 75.7863 558.919C80.3896 554.313 87.2946 459.875 87.2946 459.875L103.406 394.229L133.328 359.678H196.624L216.188 435.689C216.188 435.689 208.132 457.571 213.886 457.571C219.64 457.571 254.165 464.481 254.165 439.144C254.165 413.807 242.657 338.948 240.355 336.645C238.054 334.341 241.506 326.28 238.054 322.825C234.601 319.369 194.322 295.184 179.361 290.577C164.4 285.971 143.413 280.488 143.413 280.488L29.7529 329.735Z" fill="#2F2E41"/>
<path d="M254.165 484.06C254.165 484.06 236.902 478.302 228.847 495.577C220.791 512.852 224.243 517.459 224.243 517.459C224.243 517.459 250.712 526.672 255.316 522.066C257.319 520.061 263.678 519.365 270.225 519.218C280.195 518.994 282.847 504.878 273.431 501.591C273.15 501.493 272.866 501.408 272.578 501.335C263.372 499.032 254.165 484.06 254.165 484.06Z" fill="#2F2E41"/>
<path d="M108.009 95.9437C127.077 95.9437 142.534 80.4749 142.534 61.3932C142.534 42.3115 127.077 26.8428 108.009 26.8428C88.9417 26.8428 73.4844 42.3115 73.4844 61.3932C73.4844 80.4749 88.9417 95.9437 108.009 95.9437Z" fill="#FFB8B8"/>
<path d="M63.1273 122.432C63.1273 122.432 119.518 133.949 133.328 115.522C147.138 97.0953 152.892 167.348 152.892 167.348L159.797 241.056L149.44 281.364C149.44 281.364 95.3506 325.128 78.0881 328.583C60.8256 332.038 34.3564 334.342 34.3564 334.342C34.3564 334.342 42.4123 206.505 42.4123 204.202C42.4123 201.898 63.1273 122.432 63.1273 122.432Z" fill="#8AD2FF"/>
<path d="M80.2771 100.833C80.2771 100.833 67.7306 93.6403 64.2781 100.55C60.8256 107.46 28.6023 124.736 25.1498 124.736C21.6973 124.736 32.0548 220.325 27.4515 231.842C22.8482 243.359 0.982364 327.432 13.6415 334.342C26.3007 341.252 17.094 327.432 29.7532 344.707C42.4123 361.982 104.557 361.982 108.01 355.072C111.462 348.162 80.3898 296.336 86.1439 247.966C91.8981 199.595 101.105 132.797 93.0489 123.584C84.9931 114.371 80.2771 100.833 80.2771 100.833Z" fill="#2F2E41"/>
<path d="M121.819 108.612L123.422 103.091C123.422 103.091 171.305 118.977 173.607 129.342C175.908 139.707 174.758 212.263 166.702 218.022C158.646 223.78 147.138 232.994 155.193 246.814C163.249 260.634 172.456 275.606 179.361 276.757C186.266 277.909 198.925 285.971 195.473 294.033C192.02 302.094 150.59 287.123 150.59 287.123C150.59 287.123 122.97 266.392 124.121 234.145C125.272 201.898 121.819 108.612 121.819 108.612Z" fill="#2F2E41"/>
<path d="M162.099 244.51L134.479 296.336C134.479 296.336 94.1996 337.796 117.216 342.403C140.233 347.01 152.892 304.398 152.892 304.398L182.814 261.786L162.099 244.51Z" fill="#FFB8B8"/>
<path d="M96.318 11.04C94.9264 10.9368 93.5325 11.2074 92.2804 11.8237C91.1482 12.6512 90.2151 13.7213 89.5493 14.9559C86.4797 19.5766 82.4784 23.5039 77.8023 26.4854C74.3118 28.7072 69.8743 31.4775 70.4714 35.5739C70.7956 36.9473 71.3726 38.2484 72.1728 39.4104C75.4039 45.1153 76.6902 51.7182 75.837 58.22L85.4346 44.2594C86.9581 42.0432 89.6047 39.5416 91.9049 40.9334C92.6751 41.3994 93.1809 42.2352 93.9828 42.644C95.8963 43.6197 97.9319 41.7545 99.6257 40.4333C105.466 35.8776 113.773 37.0711 121.041 38.4905C124.472 39.1606 128.241 40.0398 130.269 42.8894C133.64 47.6247 130.12 54.467 132.088 59.9374C132.638 59.5516 133.106 59.059 133.463 58.489C133.82 57.9189 134.059 57.2829 134.166 56.6187C136.909 56.7036 140.271 56.4336 141.447 53.9511C141.805 52.9782 141.995 51.9517 142.011 50.9152C142.442 46.7452 144.479 42.9408 145.828 38.9719C147.178 35.003 147.765 30.3516 145.487 26.8327C144.654 25.6405 143.649 24.5786 142.504 23.6821C129.581 12.8158 112.591 11.0239 96.318 11.04Z" fill="#2F2E41"/>
<path d="M162.099 124.735L172.822 127.584C172.822 127.584 197.775 191.533 192.021 235.297C186.267 279.061 182.814 269.847 182.814 269.847C182.814 269.847 173.608 249.117 152.893 253.724L162.099 124.735Z" fill="#2F2E41"/>
<path d="M48.6105 626.559C45.8353 630.333 46.3917 635.728 43.9334 639.716C41.8026 643.173 37.7867 644.986 35.1214 648.049C34.2709 649.067 33.5127 650.158 32.8558 651.31C30.3834 655.455 28.3737 660.767 30.8088 664.933C32.7676 668.285 36.885 669.595 40.6611 670.488C45.434 671.616 50.3929 672.519 55.2208 671.657C60.0487 670.795 64.7672 667.836 66.4885 663.241C66.8269 662.085 67.2291 660.949 67.6933 659.838C70.3101 654.683 78.5179 654.627 81.196 649.504C83.0702 645.918 81.3474 641.584 79.6253 637.922L74.3656 626.74C72.6201 623.029 65.5443 625.163 61.8555 624.274C57.0445 623.114 52.0715 621.836 48.6105 626.559Z" fill="#2F2E41"/>
<path d="M10.1895 267.544L58.5244 342.403C58.5244 342.403 88.446 380.409 97.6527 363.134C106.859 345.858 65.4294 317.066 65.4294 317.066L34.3569 259.482L10.1895 267.544Z" fill="#FFB8B8"/>
<path d="M34.3564 127.039L25.1498 124.735C25.1498 124.735 6.73648 130.494 2.13316 154.679C-2.47016 178.864 0.982323 275.606 6.73648 276.757C12.4906 277.909 35.1562 259.913 38.7843 263.728C42.4123 267.544 30.9039 247.965 34.3564 237.6C37.8089 227.235 34.3564 127.039 34.3564 127.039Z" fill="#2F2E41"/>
<path d="M333.562 209.924C331.081 209.927 328.702 210.982 326.948 212.858C325.194 214.734 324.207 217.278 324.204 219.931C320.647 247.944 319.458 276.243 320.654 304.485C320.725 306.288 320.804 307.937 320.895 309.529C321.028 312.156 321.197 314.931 321.396 317.775C321.511 319.454 321.632 321.137 321.764 322.815C321.986 325.547 322.229 328.324 322.488 331.067C322.651 332.743 322.82 334.427 323.001 336.104C323.348 339.398 323.74 342.775 324.202 346.428C324.197 349.088 325.18 351.641 326.936 353.525C328.691 355.41 331.074 356.472 333.562 356.478H490.525C493.006 356.475 495.385 355.42 497.139 353.544C498.893 351.668 499.88 349.124 499.883 346.471L499.89 346.402C500.589 342.995 501.24 339.524 501.826 336.083C502.139 334.269 502.409 332.622 502.652 331.047C503.092 328.179 503.484 325.404 503.815 322.798C504.042 321.049 504.247 319.355 504.425 317.761C504.717 315.152 504.981 312.456 505.233 309.518C505.37 307.921 505.496 306.272 505.619 304.476V304.476C507.538 276.169 505.608 247.714 499.89 220L499.883 219.931C499.88 217.278 498.893 214.734 497.139 212.858C495.385 210.982 493.006 209.927 490.525 209.924L333.562 209.924Z" fill="#3F3D56"/>
<path d="M418.137 252.764C384.127 252.764 348.088 249.459 300.922 242.848H300.917C298.472 242.844 296.114 241.875 294.296 240.127C292.477 238.379 291.326 235.975 291.062 233.375C291.019 232.984 290.999 232.591 291 232.197V201.854C290.999 201.789 291.002 201.724 291.008 201.659C291.062 198.871 292.133 196.216 293.993 194.262C295.853 192.307 298.354 191.209 300.961 191.201C383.021 179.269 432.869 179.27 523.162 191.204H523.166C525.773 191.222 528.269 192.33 530.121 194.29C531.974 196.25 533.036 198.908 533.08 201.694C533.086 201.747 533.088 201.8 533.086 201.854V232.197C533.088 232.592 533.067 232.986 533.024 233.378C532.757 235.985 531.598 238.394 529.771 240.142C527.944 241.89 525.577 242.855 523.125 242.85C484.114 249.459 452.139 252.764 418.137 252.764Z" fill="#8AD2FF"/>
<path d="M423.593 273.839H402.958C400.332 273.836 397.814 272.719 395.957 270.733C394.099 268.747 393.055 266.054 393.052 263.245V183.072C393.055 180.263 394.099 177.571 395.957 175.584C397.814 173.598 400.332 172.481 402.958 172.478H423.593C426.22 172.481 428.738 173.598 430.595 175.584C432.452 177.57 433.497 180.263 433.5 183.072V263.245C433.497 266.054 432.452 268.747 430.595 270.733C428.738 272.719 426.22 273.836 423.593 273.839Z" fill="#3F3D56"/>
<path d="M470.443 157.137C470.294 155.634 470.03 154.146 469.656 152.689C469.252 151.228 468.741 149.804 468.127 148.43C465.925 143.379 462.213 139.256 457.575 136.713C451.819 133.683 445.235 133.435 439.046 134.895C433.844 136.141 428.959 138.587 424.732 142.062C422.541 143.827 420.538 145.847 418.762 148.083C416.928 150.436 413.517 156.9 413.272 157.499C411.343 152.816 408.576 148.583 405.126 145.038C401.116 140.968 396.33 137.874 391.095 135.97C388.313 134.967 385.424 134.339 382.496 134.101C379.398 133.825 376.278 134.116 373.271 134.961C367.87 136.579 363.199 140.231 360.118 145.244C357.183 149.902 355.741 155.454 356.01 161.065C356.159 163.897 356.73 166.686 357.702 169.326C358.223 170.755 358.841 172.141 359.551 173.474C360.286 174.79 361.107 176.049 362.009 177.24C365.548 181.885 370.315 185.279 375.687 186.981C381.423 188.876 387.506 188.938 393.404 188.048C399.46 187.134 405.289 185.038 410.993 182.742C411.754 182.435 412.512 182.12 413.271 181.808C418.342 183.894 423.456 185.906 428.764 187.183C434.735 188.725 440.933 188.991 447.001 187.965C452.657 186.972 457.915 184.225 462.124 180.065C466.018 176.146 468.744 171.084 469.959 165.515C470.559 162.771 470.722 159.939 470.443 157.137ZM391.829 181.811C388.555 182.259 385.243 182.28 381.966 181.873C379.616 181.509 377.314 180.853 375.107 179.92C369.903 177.603 365.755 173.198 363.55 167.65C362.891 165.901 362.422 164.077 362.152 162.213C361.978 160.556 361.978 158.882 362.15 157.224C362.407 155.48 362.847 153.772 363.462 152.133C364.127 150.54 364.952 149.028 365.924 147.626C366.866 146.371 367.931 145.227 369.1 144.214C370.208 143.337 371.401 142.59 372.658 141.985C374.158 141.358 375.718 140.912 377.311 140.654C379.468 140.398 381.645 140.416 383.798 140.708C386.36 141.131 388.867 141.87 391.27 142.91C393.825 144.096 396.24 145.602 398.465 147.396C400.523 149.14 402.388 151.129 404.024 153.324C405.645 155.629 407.004 158.132 408.073 160.779C409.112 163.542 409.841 166.425 410.247 169.371L410.251 169.414C410.093 170.894 410.014 172.382 410.014 173.872C410.015 174.446 410.039 175.019 410.066 175.592C409.811 175.854 409.598 176.16 409.437 176.497C405.232 178.261 400.921 179.723 396.534 180.873C394.979 181.257 393.41 181.57 391.829 181.811ZM464.403 162.213C464.133 164.077 463.664 165.901 463.005 167.65C460.811 173.206 456.659 177.615 451.448 179.92C449.241 180.853 446.939 181.509 444.589 181.873C441.306 182.281 437.987 182.259 434.708 181.809C428.884 180.918 423.265 178.952 417.77 176.758C417.543 176.667 417.319 176.572 417.093 176.481C416.939 176.149 416.736 175.847 416.491 175.586C416.588 173.507 416.527 171.423 416.311 169.355C416.716 166.415 417.445 163.536 418.482 160.779C419.551 158.132 420.91 155.629 422.53 153.325C424.167 151.129 426.032 149.14 428.09 147.396C430.315 145.602 432.73 144.096 435.285 142.91C437.688 141.87 440.195 141.131 442.757 140.708C444.91 140.416 447.087 140.398 449.244 140.654C450.836 140.912 452.397 141.358 453.897 141.985C455.154 142.59 456.347 143.338 457.455 144.214C458.624 145.227 459.689 146.371 460.631 147.626C461.603 149.028 462.428 150.54 463.093 152.134C463.708 153.772 464.148 155.48 464.405 157.224C464.577 158.882 464.577 160.555 464.403 162.213Z" fill="#3F3D56"/>
<path d="M350.466 277.39C352.466 277.39 354.088 275.656 354.088 273.517C354.088 271.377 352.466 269.643 350.466 269.643C348.465 269.643 346.844 271.377 346.844 273.517C346.844 275.656 348.465 277.39 350.466 277.39Z" fill="#8AD2FF"/>
<path d="M376.425 267.706C378.425 267.706 380.047 265.972 380.047 263.833C380.047 261.693 378.425 259.959 376.425 259.959C374.424 259.959 372.803 261.693 372.803 263.833C372.803 265.972 374.424 267.706 376.425 267.706Z" fill="#8AD2FF"/>
<path d="M364.954 298.05C366.955 298.05 368.577 296.316 368.577 294.176C368.577 292.037 366.955 290.303 364.954 290.303C362.954 290.303 361.332 292.037 361.332 294.176C361.332 296.316 362.954 298.05 364.954 298.05Z" fill="#8AD2FF"/>
<path d="M472.414 277.39C474.415 277.39 476.036 275.656 476.036 273.517C476.036 271.377 474.415 269.643 472.414 269.643C470.414 269.643 468.792 271.377 468.792 273.517C468.792 275.656 470.414 277.39 472.414 277.39Z" fill="#8AD2FF"/>
<path d="M446.455 267.706C448.456 267.706 450.077 265.972 450.077 263.833C450.077 261.693 448.456 259.959 446.455 259.959C444.455 259.959 442.833 261.693 442.833 263.833C442.833 265.972 444.455 267.706 446.455 267.706Z" fill="#8AD2FF"/>
<path d="M457.925 298.05C459.925 298.05 461.547 296.316 461.547 294.176C461.547 292.037 459.925 290.303 457.925 290.303C455.924 290.303 454.303 292.037 454.303 294.176C454.303 296.316 455.924 298.05 457.925 298.05Z" fill="#8AD2FF"/>
<path d="M475.433 345.179C477.433 345.179 479.055 343.445 479.055 341.306C479.055 339.166 477.433 337.432 475.433 337.432C473.432 337.432 471.811 339.166 471.811 341.306C471.811 343.445 473.432 345.179 475.433 345.179Z" fill="#8AD2FF"/>
<path d="M484.488 317.418C486.489 317.418 488.111 315.684 488.111 313.545C488.111 311.405 486.489 309.671 484.488 309.671C482.488 309.671 480.866 311.405 480.866 313.545C480.866 315.684 482.488 317.418 484.488 317.418Z" fill="#8AD2FF"/>
<path d="M456.114 329.685C458.115 329.685 459.737 327.951 459.737 325.811C459.737 323.672 458.115 321.938 456.114 321.938C454.114 321.938 452.492 323.672 452.492 325.811C452.492 327.951 454.114 329.685 456.114 329.685Z" fill="#8AD2FF"/>
<path d="M371.595 345.179C373.595 345.179 375.217 343.445 375.217 341.306C375.217 339.166 373.595 337.432 371.595 337.432C369.594 337.432 367.973 339.166 367.973 341.306C367.973 343.445 369.594 345.179 371.595 345.179Z" fill="#8AD2FF"/>
<path d="M380.651 317.418C382.651 317.418 384.273 315.684 384.273 313.545C384.273 311.405 382.651 309.671 380.651 309.671C378.65 309.671 377.028 311.405 377.028 313.545C377.028 315.684 378.65 317.418 380.651 317.418Z" fill="#8AD2FF"/>
<path d="M352.277 329.685C354.277 329.685 355.899 327.951 355.899 325.811C355.899 323.672 354.277 321.938 352.277 321.938C350.276 321.938 348.654 323.672 348.654 325.811C348.654 327.951 350.276 329.685 352.277 329.685Z" fill="#8AD2FF"/>
<path d="M336.113 218.147C335.696 218.853 334.684 218.75 334.115 218.309C333.326 217.696 333.582 216.515 334.125 215.818C335.852 213.6 338.708 215.941 339.093 218.143C339.237 219.217 339.082 220.312 338.649 221.292C338.216 222.272 337.523 223.095 336.656 223.659C334.686 224.907 332.126 224.281 330.432 222.787C326.899 219.669 327.861 213.427 331.786 211.172C334.291 209.733 337.458 210.364 339.926 211.57C342.704 212.927 345.092 215.008 347.661 216.742C353.298 220.515 359.674 222.843 366.291 223.545C367.45 223.671 367.442 221.733 366.291 221.608C362.624 221.203 359.024 220.276 355.587 218.851C352.185 217.377 348.957 215.482 345.968 213.205C342.943 210.988 339.783 208.834 336.04 208.468C334.529 208.279 332.999 208.522 331.604 209.171C330.21 209.82 329.001 210.852 328.1 212.162C327.299 213.335 326.763 214.69 326.534 216.122C326.304 217.553 326.388 219.022 326.778 220.413C327.249 221.868 328.071 223.163 329.162 224.167C330.252 225.172 331.572 225.849 332.987 226.13C334.35 226.405 335.758 226.219 337.016 225.597C338.275 224.976 339.321 223.949 340.007 222.662C341.385 220.113 341.34 216.69 339.259 214.578C338.663 213.929 337.916 213.462 337.095 213.223C336.275 212.984 335.409 212.983 334.588 213.219C333.831 213.492 333.165 213.996 332.672 214.668C332.178 215.339 331.878 216.15 331.809 217.001C331.608 220.309 335.999 221.963 337.677 219.124C338.302 218.068 336.735 217.095 336.113 218.147Z" fill="#3F3D56"/>
<path d="M490.992 218.147C491.409 218.853 492.422 218.75 492.99 218.309C493.779 217.696 493.524 216.515 492.98 215.818C491.253 213.6 488.397 215.941 488.012 218.143C487.869 219.217 488.023 220.312 488.456 221.292C488.89 222.272 489.583 223.095 490.449 223.659C492.419 224.907 494.979 224.281 496.673 222.787C500.207 219.669 499.245 213.427 495.319 211.172C492.814 209.733 489.647 210.364 487.18 211.57C484.402 212.927 482.013 215.008 479.444 216.742C473.808 220.515 467.431 222.843 460.814 223.545C459.656 223.671 459.664 221.733 460.814 221.608C464.481 221.203 468.081 220.276 471.519 218.851C474.92 217.377 478.148 215.482 481.138 213.205C484.163 210.988 487.323 208.834 491.066 208.468C492.576 208.279 494.107 208.522 495.501 209.171C496.896 209.82 498.105 210.852 499.005 212.162C499.806 213.335 500.343 214.69 500.572 216.122C500.801 217.553 500.717 219.022 500.327 220.413C499.857 221.868 499.034 223.163 497.944 224.167C496.853 225.172 495.533 225.849 494.118 226.13C492.756 226.405 491.347 226.219 490.089 225.597C488.83 224.976 487.785 223.949 487.098 222.662C485.72 220.113 485.765 216.69 487.846 214.578C488.442 213.929 489.189 213.462 490.01 213.223C490.831 212.984 491.696 212.983 492.517 213.219C493.274 213.492 493.94 213.996 494.434 214.668C494.927 215.339 495.227 216.15 495.296 217.001C495.497 220.309 491.106 221.963 489.428 219.124C488.804 218.068 490.37 217.095 490.992 218.147Z" fill="#3F3D56"/>
</svg>
