<svg width="676" height="676" viewBox="0 0 676 676" fill="none" xmlns="http://www.w3.org/2000/svg">
<path d="M624.897 500.498L655.223 505.236C665.488 492.812 672.564 478.071 675.837 462.293C653.662 480.438 619.94 470.796 593.052 480.702C584.689 483.855 577.144 488.85 570.975 495.315C564.806 501.78 560.171 509.549 557.414 518.048L542.594 533.987C556.009 539.296 570.417 541.635 584.824 540.842C599.231 540.049 613.294 536.143 626.046 529.394C633.162 525.537 639.764 520.8 645.695 515.294C635.084 508.615 624.897 500.498 624.897 500.498Z" fill="#F2F2F2"/>
<path d="M614.132 452.017L643.388 442.738C647.033 427.042 646.79 410.694 642.68 395.113C630.927 421.238 596.443 427.641 576.796 448.494C570.719 455.045 566.193 462.879 563.556 471.416C560.919 479.952 560.237 488.973 561.562 497.809L555.408 518.681C569.784 517.452 583.723 513.123 596.264 505.991C608.805 498.858 619.65 489.093 628.052 477.368C632.701 470.743 636.496 463.56 639.349 455.988C626.871 454.74 614.132 452.017 614.132 452.017Z" fill="#F2F2F2"/>
<path d="M676 543.642C676 543.799 675.97 543.953 675.91 544.098C675.851 544.243 675.763 544.374 675.652 544.485C675.542 544.595 675.41 544.683 675.265 544.742C675.121 544.802 674.966 544.833 674.809 544.832H1.19058C0.874822 544.832 0.571989 544.707 0.348711 544.484C0.125434 544.26 0 543.958 0 543.642C0 543.327 0.125434 543.024 0.348711 542.801C0.571989 542.577 0.874822 542.452 1.19058 542.452H674.809C674.966 542.452 675.121 542.482 675.265 542.542C675.41 542.601 675.542 542.689 675.652 542.8C675.763 542.91 675.851 543.042 675.91 543.186C675.97 543.331 676 543.486 676 543.642Z" fill="#CCCCCC"/>
<path d="M279.134 492.906C397.934 492.906 494.239 396.639 494.239 277.888C494.239 159.136 397.934 62.8696 279.134 62.8696C160.335 62.8696 64.0293 159.136 64.0293 277.888C64.0293 396.639 160.335 492.906 279.134 492.906Z" fill="#E6E6E6"/>
<path d="M464.225 277.888C464.246 306.757 457.5 335.229 444.526 361.022C431.553 386.815 412.713 409.209 389.518 426.41C387.967 427.57 386.387 428.7 384.796 429.8C353.779 451.352 316.909 462.903 279.134 462.903C241.36 462.903 204.49 451.352 173.473 429.8C171.882 428.7 170.301 427.57 168.75 426.41C145.572 409.194 126.744 386.796 113.772 361.007C100.8 335.218 94.0439 306.753 94.0439 277.888C94.0439 249.022 100.8 220.557 113.772 194.768C126.744 168.979 145.572 146.581 168.75 129.365C170.301 128.205 171.882 127.075 173.473 125.975C204.49 104.423 241.36 92.8721 279.134 92.8721C316.909 92.8721 353.779 104.423 384.796 125.975C386.387 127.075 387.967 128.205 389.518 129.365C412.713 146.566 431.553 168.961 444.526 194.753C457.5 220.546 464.246 249.018 464.225 277.888Z" fill="white"/>
<path d="M279.134 446.902C372.516 446.902 448.217 371.232 448.217 277.888C448.217 184.544 372.516 108.874 279.134 108.874C185.753 108.874 110.052 184.544 110.052 277.888C110.052 371.232 185.753 446.902 279.134 446.902Z" fill="#FFF89A"/>
<path opacity="0.2" d="M279.575 109.346C277.012 109.346 274.465 109.413 271.93 109.526C314.664 113.28 354.374 133.131 383.013 165.058C411.652 196.985 427.079 238.6 426.168 281.473C425.258 324.345 408.078 365.268 378.11 395.952C348.141 426.635 307.625 444.785 264.77 446.722C269.65 447.146 274.585 447.375 279.575 447.375C324.419 447.375 367.426 429.568 399.135 397.871C430.844 366.175 448.658 323.186 448.658 278.36C448.658 233.535 430.844 190.546 399.135 158.849C367.426 127.153 324.419 109.346 279.575 109.346Z" fill="black"/>
<path d="M279.635 96.8726C278.176 96.8751 276.778 97.4555 275.746 98.4864C274.715 99.5174 274.134 100.915 274.132 102.373V126.375C274.132 127.834 274.712 129.233 275.744 130.264C276.775 131.296 278.175 131.876 279.635 131.876C281.094 131.876 282.494 131.296 283.526 130.264C284.557 129.233 285.137 127.834 285.137 126.375V102.373C285.135 100.915 284.554 99.5174 283.523 98.4864C282.491 97.4555 281.093 96.8751 279.635 96.8726Z" fill="white"/>
<path d="M389.518 129.365C387.968 128.205 386.387 127.075 384.796 125.975C383.842 125.913 382.887 126.101 382.028 126.52C381.168 126.939 380.432 127.575 379.894 128.365L366.377 148.197C365.556 149.402 365.247 150.885 365.519 152.318C365.791 153.75 366.622 155.017 367.828 155.838C369.034 156.658 370.517 156.967 371.95 156.695C373.384 156.423 374.65 155.593 375.471 154.387L388.988 134.556C389.502 133.803 389.82 132.934 389.913 132.028C390.006 131.121 389.87 130.206 389.518 129.365Z" fill="white"/>
<path d="M450.928 219.793C450.656 219.124 450.255 218.516 449.748 218.002C449.241 217.488 448.637 217.079 447.972 216.799C447.307 216.519 446.593 216.372 445.871 216.367C445.149 216.363 444.433 216.5 443.764 216.773L421.513 225.803C420.163 226.353 419.086 227.417 418.519 228.76C417.953 230.103 417.943 231.616 418.492 232.967C419.041 234.318 420.103 235.395 421.447 235.963C422.79 236.53 424.304 236.542 425.655 235.994L447.906 226.963C449.256 226.411 450.332 225.346 450.898 224.002C451.465 222.658 451.475 221.145 450.928 219.793Z" fill="white"/>
<path d="M191.891 148.197L178.375 128.365C177.836 127.575 177.101 126.939 176.241 126.52C175.381 126.101 174.427 125.913 173.472 125.975C171.882 127.075 170.301 128.205 168.75 129.365C168.398 130.206 168.263 131.121 168.355 132.028C168.448 132.934 168.766 133.803 169.28 134.556L182.797 154.387C183.618 155.593 184.885 156.423 186.318 156.695C187.752 156.967 189.235 156.658 190.441 155.838C191.647 155.017 192.477 153.75 192.749 152.318C193.021 150.885 192.713 149.402 191.891 148.197Z" fill="white"/>
<path d="M136.755 225.804L114.504 216.773C113.152 216.224 111.637 216.235 110.293 216.802C108.949 217.369 107.885 218.447 107.336 219.798C106.787 221.15 106.797 222.664 107.365 224.007C107.932 225.351 109.01 226.414 110.362 226.964L132.613 235.994C133.964 236.542 135.478 236.53 136.821 235.963C138.165 235.395 139.228 234.318 139.776 232.967C140.325 231.617 140.316 230.103 139.749 228.76C139.182 227.417 138.105 226.353 136.755 225.804Z" fill="white"/>
<path d="M279.635 423.9C278.176 423.902 276.778 424.483 275.746 425.514C274.715 426.545 274.134 427.942 274.132 429.4V453.402C274.132 454.861 274.712 456.26 275.744 457.292C276.775 458.323 278.175 458.903 279.635 458.903C281.094 458.903 282.494 458.323 283.526 457.292C284.557 456.26 285.137 454.861 285.137 453.402V429.4C285.135 427.942 284.554 426.545 283.523 425.514C282.491 424.483 281.093 423.902 279.635 423.9Z" fill="white"/>
<path d="M388.987 421.22L375.471 401.388C375.064 400.791 374.544 400.28 373.939 399.884C373.335 399.489 372.659 399.215 371.949 399.081C371.239 398.946 370.51 398.953 369.803 399.1C369.095 399.247 368.424 399.532 367.827 399.938C367.23 400.345 366.718 400.865 366.322 401.469C365.926 402.073 365.653 402.749 365.518 403.458C365.384 404.168 365.39 404.897 365.537 405.604C365.684 406.311 365.969 406.982 366.376 407.579L379.893 427.411C380.431 428.201 381.167 428.837 382.027 429.256C382.886 429.675 383.841 429.863 384.795 429.801C386.386 428.701 387.967 427.571 389.517 426.41C389.869 425.57 390.005 424.654 389.912 423.748C389.819 422.841 389.501 421.972 388.987 421.22Z" fill="white"/>
<path d="M447.906 328.812L425.655 319.781C424.303 319.232 422.789 319.243 421.445 319.81C420.101 320.378 419.037 321.455 418.488 322.807C417.938 324.158 417.949 325.672 418.516 327.016C419.083 328.359 420.162 329.423 421.513 329.972L443.764 339.003C445.116 339.55 446.629 339.539 447.973 338.971C449.316 338.404 450.379 337.326 450.928 335.975C451.477 334.625 451.467 333.112 450.9 331.768C450.334 330.425 449.257 329.362 447.906 328.812Z" fill="white"/>
<path d="M190.441 399.938C189.234 399.118 187.752 398.809 186.318 399.081C184.885 399.353 183.618 400.183 182.797 401.388L169.28 421.22C168.766 421.972 168.448 422.841 168.355 423.748C168.263 424.654 168.398 425.57 168.75 426.41C170.301 427.57 171.882 428.701 173.472 429.801C174.427 429.863 175.381 429.675 176.241 429.256C177.101 428.837 177.836 428.201 178.375 427.41L191.891 407.579C192.298 406.982 192.583 406.311 192.73 405.604C192.877 404.897 192.884 404.168 192.749 403.458C192.614 402.749 192.341 402.073 191.945 401.469C191.549 400.865 191.038 400.345 190.441 399.938Z" fill="white"/>
<path d="M139.776 322.802C139.505 322.133 139.104 321.524 138.597 321.011C138.089 320.497 137.486 320.088 136.821 319.808C136.155 319.527 135.441 319.381 134.719 319.376C133.997 319.372 133.282 319.509 132.613 319.781L110.362 328.812C109.011 329.362 107.934 330.426 107.368 331.769C106.801 333.112 106.791 334.625 107.34 335.976C107.889 337.326 108.952 338.404 110.295 338.972C111.639 339.539 113.152 339.55 114.504 339.003L136.755 329.972C138.105 329.42 139.181 328.355 139.747 327.011C140.313 325.667 140.324 324.153 139.776 322.802Z" fill="white"/>
<path d="M286.774 275.158C287.283 278.165 286.577 281.25 284.812 283.737C283.047 286.224 280.368 287.91 277.361 288.425L179.715 305.028C178.226 305.281 176.701 305.238 175.228 304.903C173.755 304.567 172.362 303.944 171.13 303.071C169.897 302.197 168.849 301.089 168.045 299.81C167.241 298.532 166.697 297.107 166.443 295.618C166.19 294.129 166.232 292.605 166.568 291.132C166.904 289.66 167.527 288.268 168.401 287.036C169.275 285.804 170.384 284.756 171.663 283.953C172.942 283.149 174.367 282.605 175.857 282.351L273.502 265.749C276.51 265.241 279.597 265.946 282.085 267.71C284.573 269.474 286.259 272.153 286.774 275.158Z" fill="#3F3D56"/>
<path d="M389.543 383.299C388.141 384.709 386.236 385.505 384.246 385.513C382.257 385.521 380.345 384.74 378.932 383.341L273.817 279.093C272.407 277.691 271.61 275.787 271.604 273.799C271.597 271.811 272.38 269.902 273.78 268.49C275.181 267.079 277.085 266.281 279.074 266.273C281.063 266.264 282.974 267.045 284.387 268.444L389.502 372.691C390.912 374.094 391.709 375.998 391.717 377.986C391.725 379.975 390.943 381.886 389.543 383.299Z" fill="#3F3D56"/>
<path d="M279.134 290.889C286.317 290.889 292.141 285.068 292.141 277.888C292.141 270.708 286.317 264.887 279.134 264.887C271.951 264.887 266.128 270.708 266.128 277.888C266.128 285.068 271.951 290.889 279.134 290.889Z" fill="#CCCCCC"/>
<path d="M189.546 52.4478C169.582 83.8229 139.12 104.645 101.554 118.324C100.811 118.879 99.9667 119.284 99.0681 119.513C98.1696 119.743 97.2346 119.793 96.3165 119.661C95.3985 119.529 94.5154 119.218 93.7177 118.745C92.9199 118.273 92.2232 117.647 91.6672 116.905C71.2614 89.6704 75.869 50.7465 102.8 29.936C109.312 24.9135 116.756 21.2338 124.701 19.1107C132.647 16.9875 140.935 16.4632 149.085 17.568C157.234 18.6729 165.083 21.385 172.176 25.5469C179.269 29.7087 185.463 35.2375 190.401 41.8121L190.965 42.5654C191.521 43.3074 191.926 44.1516 192.155 45.0499C192.385 45.9481 192.435 46.8827 192.303 47.8004C192.172 48.718 191.86 49.6008 191.387 50.3982C190.914 51.1956 190.289 51.892 189.546 52.4478Z" fill="#E6E6E6"/>
<path d="M367.867 41.8121C372.804 35.2375 378.999 29.7087 386.092 25.5469C393.184 21.385 401.033 18.6729 409.183 17.568C417.333 16.4632 425.621 16.9875 433.566 19.1107C441.512 21.2338 448.956 24.9135 455.467 29.936C482.399 50.7465 487.006 89.6704 466.6 116.905C466.044 117.647 465.348 118.273 464.55 118.745C463.752 119.218 462.869 119.529 461.951 119.661C461.033 119.793 460.098 119.743 459.2 119.513C458.301 119.284 457.456 118.879 456.714 118.324C421.84 104.977 393.241 81.8812 368.721 52.4477C367.222 51.3254 366.23 49.6536 365.964 47.8003C365.698 45.947 366.179 44.064 367.302 42.5654L367.867 41.8121Z" fill="#E6E6E6"/>
<path d="M359.117 464.172C357.845 464.886 356.909 466.075 356.512 467.478C356.116 468.881 356.292 470.384 357.002 471.658L388.759 528.385C389.472 529.658 390.662 530.595 392.066 530.992C393.47 531.388 394.974 531.21 396.248 530.498C397.521 529.786 398.459 528.597 398.856 527.193C399.253 525.79 399.075 524.286 398.363 523.013L366.606 466.286C365.891 465.014 364.702 464.078 363.298 463.682C361.894 463.286 360.391 463.462 359.117 464.172Z" fill="#E6E6E6"/>
<path d="M191.663 466.286L159.905 523.013C159.193 524.286 159.016 525.79 159.412 527.193C159.809 528.597 160.747 529.786 162.021 530.498C163.294 531.21 164.798 531.388 166.203 530.992C167.607 530.595 168.796 529.658 169.509 528.385L201.266 471.658C201.62 471.028 201.845 470.334 201.93 469.616C202.015 468.899 201.957 468.172 201.761 467.476C201.565 466.781 201.233 466.131 200.786 465.564C200.338 464.997 199.783 464.523 199.152 464.171C198.522 463.818 197.828 463.593 197.11 463.508C196.392 463.423 195.665 463.481 194.969 463.677C194.274 463.874 193.624 464.205 193.056 464.653C192.489 465.1 192.015 465.655 191.663 466.286Z" fill="#E6E6E6"/>
<path d="M395.191 542.91C404.584 542.91 412.199 535.298 412.199 525.909C412.199 516.519 404.584 508.907 395.191 508.907C385.797 508.907 378.183 516.519 378.183 525.909C378.183 535.298 385.797 542.91 395.191 542.91Z" fill="#E6E6E6"/>
<path d="M407.197 107.873C416.59 107.873 424.205 100.262 424.205 90.872C424.205 81.4824 416.59 73.8706 407.197 73.8706C397.803 73.8706 390.188 81.4824 390.188 90.872C390.188 100.262 397.803 107.873 407.197 107.873Z" fill="#E6E6E6"/>
<path d="M278.133 67.87C287.527 67.87 295.142 60.2582 295.142 50.8686C295.142 41.479 287.527 33.8672 278.133 33.8672C268.74 33.8672 261.125 41.479 261.125 50.8686C261.125 60.2582 268.74 67.87 278.133 67.87Z" fill="#E6E6E6"/>
<path d="M155.074 105.873C164.467 105.873 172.082 98.2617 172.082 88.872C172.082 79.4824 164.467 71.8706 155.074 71.8706C145.68 71.8706 138.065 79.4824 138.065 88.872C138.065 98.2617 145.68 105.873 155.074 105.873Z" fill="#E6E6E6"/>
<path d="M166.079 542.91C175.472 542.91 183.087 535.298 183.087 525.909C183.087 516.519 175.472 508.907 166.079 508.907C156.685 508.907 149.07 516.519 149.07 525.909C149.07 535.298 156.685 542.91 166.079 542.91Z" fill="#E6E6E6"/>
<path d="M381.849 373.737C382.52 374.786 383.412 375.676 384.464 376.343C385.516 377.01 386.701 377.439 387.936 377.599C389.171 377.759 390.427 377.646 391.614 377.268C392.801 376.891 393.89 376.258 394.806 375.414L421.495 389.708L420.063 374.046L394.939 362.873C393.418 361.429 391.421 360.593 389.325 360.523C387.229 360.453 385.18 361.154 383.567 362.493C381.953 363.832 380.887 365.716 380.571 367.789C380.254 369.861 380.709 371.977 381.849 373.737Z" fill="#FFB7B7"/>
<path d="M401.295 379.203L411.754 364.772L462.138 388.581L524.836 376.821C527.935 376.24 531.124 376.348 534.177 377.137C537.229 377.927 540.071 379.378 542.499 381.389C544.928 383.399 546.883 385.92 548.228 388.771C549.572 391.622 550.272 394.734 550.278 397.886C550.283 403.579 548.027 409.041 544.008 413.074C539.988 417.107 534.532 419.381 528.837 419.398L456.985 419.531L401.295 379.203Z" fill="#3F3D56"/>
<path d="M385.187 628.45L374.604 623.392L389.141 579.18L404.757 586.647L385.187 628.45Z" fill="#FFB7B7"/>
<path d="M456.127 621.323C455.358 621.805 454.588 622.279 453.811 622.753C452.264 623.701 450.702 624.633 449.14 625.55C448.355 626.008 447.562 626.466 446.777 626.917V626.94L446.73 626.948L446.715 626.956L445.518 627.251L443.8 622.714L443.007 620.624L441.888 617.664L439.836 612.249L429.032 583.735L445.829 579.594L446.458 582.165H446.466L446.777 583.44L452.645 607.23L453.842 612.093L453.881 612.241L454.604 615.147L455.226 617.664L455.917 620.476L456.127 621.323Z" fill="#FFB7B7"/>
<path d="M556.325 521.19C555.26 522.899 554.172 524.6 553.076 526.286C551.04 529.425 548.949 532.517 546.804 535.563C546.804 535.571 546.796 535.571 546.788 535.578C545.537 536.737 544.154 537.746 542.669 538.585C542.607 538.632 542.537 538.663 542.474 538.702C541.381 539.306 540.216 539.773 539.008 540.093C538.573 540.201 538.13 540.31 537.694 540.419C536.124 540.792 534.57 541.11 533.023 541.39C530.272 541.879 527.551 542.229 524.846 542.447C524.629 542.47 524.411 542.485 524.193 542.501C513.071 543.317 502.244 542.004 490.943 539.852C485.362 538.795 479.665 537.529 473.765 536.216C471.838 535.78 469.902 535.353 467.944 534.926C467.796 534.895 467.641 534.856 467.485 534.825C464.687 534.211 461.842 533.605 458.928 533.007C455.259 532.253 451.474 531.523 447.541 530.831L447.821 536.371C448.053 540.632 448.939 544.833 450.448 548.825C452.127 553.736 453.456 557.62 450.65 565.708L449.297 569.624C449.998 571.568 450.239 573.649 450 575.702C449.762 577.755 449.05 579.725 447.922 581.457L447.65 581.869L458.928 610.39L459.658 612.239H453.883L446.779 612.247H434.739L417.368 577.409L416.536 575.746V575.661L418.332 508.712C418.355 508.121 418.402 507.523 418.479 506.933C418.796 504.248 419.644 501.654 420.975 499.301C422.305 496.948 424.091 494.883 426.228 493.228C428.277 491.628 430.622 490.451 433.13 489.765C435.637 489.079 438.255 488.899 440.833 489.234L446.779 490.003L458.928 491.573L467.485 492.684L467.656 492.707L492.893 495.97L494.704 488.589L495.039 488.465L505.664 484.572L542.412 471.108L542.505 471.077L544.923 470.191L545.21 470.658C545.296 470.797 545.381 470.937 545.459 471.077C547.848 475.359 549.794 479.873 551.265 484.549C553.74 492.189 555.777 499.963 557.367 507.834C557.436 508.176 557.499 508.487 557.553 508.766L557.576 508.852C557.6 508.984 557.615 509.069 557.623 509.093C558.47 512.62 557.88 516.924 556.325 521.19Z" fill="#2F2E41"/>
<path d="M557.876 496.517C557.759 496.02 557.611 495.515 557.456 495.025C556.222 491.318 554.784 487.681 553.15 484.132C551.316 480.092 549.116 475.765 546.497 471.08C545.23 468.811 543.867 466.452 542.408 464.002C541.678 462.774 540.919 461.524 540.131 460.249C540.1 460.191 540.066 460.134 540.03 460.078L539.805 459.706L503.445 464.569L489.905 466.379L489.097 473.123L488.902 474.794C488.894 474.794 488.894 474.794 488.902 474.802L488.358 479.354V479.362L487.635 485.376L487.573 485.368L467.481 482.765L446.775 480.085L435.653 478.647C433.075 478.312 430.456 478.492 427.949 479.177C425.442 479.863 423.096 481.04 421.048 482.641C418.911 484.297 417.126 486.362 415.795 488.715C414.465 491.068 413.616 493.662 413.299 496.346C413.229 496.89 413.182 497.449 413.159 498.001L402.666 522.855C396.387 537.719 392.389 553.445 390.805 569.503L383.11 594.093L384.206 594.194L400.513 595.709L404.819 596.113L414.301 582.275C415.382 580.698 416.408 579.074 417.364 577.412C418.938 574.696 420.337 571.883 421.553 568.99L442.065 520.198C443.651 520.47 445.221 520.729 446.775 520.975C453.965 522.14 460.867 523.091 467.481 523.826C488.988 526.227 507.611 526.414 524.189 524.378C528.845 523.811 533.346 523.065 537.69 522.14C539.284 521.806 540.856 521.446 542.408 521.06C542.774 520.975 543.131 520.89 543.489 520.796C546.701 519.968 549.654 518.348 552.078 516.084C554.502 513.82 556.319 510.984 557.363 507.837C558.609 504.189 558.787 500.262 557.876 496.517Z" fill="#2F2E41"/>
<path d="M388.567 621.231L377.118 615.746L375.323 614.884L372.455 621.923L352.433 626.328C351.443 626.545 350.548 627.073 349.88 627.834C349.211 628.596 348.804 629.551 348.717 630.56C348.63 631.569 348.868 632.58 349.397 633.444C349.926 634.309 350.717 634.981 351.656 635.364L371.219 643.343L377.429 637.757L375.906 645.254L383.274 648.261L391.35 622.568L388.567 621.231Z" fill="#2F2E41"/>
<path d="M458.927 610.39L459.658 612.239H458.927V610.39Z" fill="#2F2E41"/>
<path d="M454.94 612.634L442.944 616.789L441.061 617.439L443.978 624.458L432.852 641.671C432.301 642.521 432.037 643.525 432.097 644.537C432.158 645.548 432.541 646.513 433.19 647.291C433.839 648.07 434.719 648.62 435.704 648.863C436.688 649.105 437.723 649.026 438.66 648.638L458.178 640.548L458.658 632.211L462.853 638.61L470.206 635.564L457.858 611.627L454.94 612.634Z" fill="#2F2E41"/>
<path d="M554.884 507.773C554.172 507.772 553.47 507.598 552.84 507.267L489.535 474.201L488.803 471.208L487.425 461.735L487.444 461.647L493.464 433.901C493.354 433.663 493.123 433.272 492.863 432.831C490.175 428.278 481.995 414.424 497.606 395.347L525.015 363.405L548.54 362.393L548.807 362.731C555.097 370.623 559.34 379.946 561.157 389.871C562.974 399.797 562.309 410.017 559.223 419.624L556.773 463.845L559.4 472.775C560.936 478.023 560.682 483.633 558.678 488.721L559.281 503.181C559.304 503.774 559.208 504.365 558.998 504.92C558.788 505.475 558.468 505.982 558.057 506.41C557.647 506.839 557.155 507.18 556.61 507.415C556.064 507.649 555.477 507.771 554.884 507.773Z" fill="#3F3D56"/>
<path d="M499.971 544.242C501.044 543.609 501.964 542.748 502.668 541.721C503.372 540.693 503.841 539.524 504.044 538.296C504.247 537.067 504.178 535.809 503.842 534.611C503.506 533.412 502.911 532.301 502.099 531.357L517.319 505.192L501.609 506.077L489.564 530.788C488.068 532.257 487.163 534.223 487.02 536.315C486.877 538.406 487.507 540.477 488.789 542.135C490.072 543.794 491.919 544.924 493.98 545.313C496.041 545.701 498.173 545.32 499.971 544.242Z" fill="#FFB7B7"/>
<path d="M506.113 525.006L492.049 514.056L517.605 464.551L508.029 401.507C507.556 398.391 507.775 395.209 508.67 392.187C509.565 389.165 511.116 386.377 513.21 384.021C515.305 381.665 517.892 379.798 520.79 378.554C523.687 377.311 526.823 376.719 529.974 376.823C535.666 377.017 541.049 379.46 544.941 383.616C548.834 387.772 550.918 393.301 550.736 398.991L548.37 470.775L506.113 525.006Z" fill="#3F3D56"/>
<path d="M509.926 350.132V326.863C509.92 318.594 513.202 310.661 519.048 304.81C524.894 298.959 532.825 295.669 541.098 295.664C549.371 295.658 557.307 298.938 563.16 304.782C569.014 310.625 572.305 318.554 572.31 326.823V326.863C577.808 338.315 574.369 343.759 572.31 350.132C572.308 351.242 571.867 352.306 571.082 353.09C570.297 353.875 569.232 354.317 568.122 354.318H514.116C513.005 354.317 511.941 353.876 511.155 353.091C510.37 352.306 509.928 351.242 509.926 350.132Z" fill="#2F2E41"/>
<path d="M530.891 352.807C543.787 352.807 554.24 342.357 554.24 329.468C554.24 316.578 543.787 306.128 530.891 306.128C517.996 306.128 507.543 316.578 507.543 329.468C507.543 342.357 517.996 352.807 530.891 352.807Z" fill="#FFB7B7"/>
<path d="M555.326 335.586C555.115 335.553 554.903 335.508 554.692 335.475C551.05 334.829 547.408 334.194 543.777 333.537L543.443 325.31L539.043 332.68C529.008 336.009 519.619 334.127 510.787 329.975C507.874 328.592 505.047 327.035 502.322 325.31C503.064 320.76 504.814 316.433 507.445 312.646C510.075 308.859 513.519 305.707 517.525 303.422C517.859 303.233 518.182 303.066 518.517 302.899L518.521 302.898L518.524 302.896L518.527 302.892L518.528 302.888C519.096 302.621 519.675 302.365 520.254 302.131C524.788 300.36 529.732 299.911 534.511 300.837C539.29 301.763 543.708 304.027 547.252 307.363C554.38 314.166 557.587 325.399 555.326 335.586Z" fill="#2F2E41"/>
<path d="M66 172.083H12C9.74648 172.081 7.58603 171.184 5.99255 169.591C4.39907 167.997 3.50268 165.837 3.5 163.583V131.583C3.50268 129.33 4.39908 127.17 5.99255 125.576C7.58603 123.983 9.74648 123.086 12 123.083H66C68.2535 123.086 70.414 123.983 72.0074 125.576C73.6009 127.17 74.4973 129.33 74.5 131.583V163.583C74.4973 165.837 73.6009 167.997 72.0074 169.591C70.414 171.184 68.2535 172.081 66 172.083Z" fill="#E6E6E6"/>
<path d="M36.9588 160.555C35.4865 160.557 34.0533 160.081 32.8753 159.198L32.8023 159.143L17.4216 147.377C15.983 146.274 15.0414 144.645 14.804 142.848C14.5666 141.051 15.0529 139.233 16.1558 137.794C17.2587 136.355 18.888 135.414 20.6851 135.176C22.4823 134.939 24.3002 135.425 25.7388 136.528L35.7012 144.168L59.2428 113.455C59.7887 112.743 60.4695 112.146 61.2463 111.697C62.0231 111.248 62.8808 110.956 63.7702 110.839C64.6597 110.721 65.5637 110.78 66.4304 111.012C67.2972 111.244 68.1097 111.644 68.8218 112.19L68.8238 112.191L68.6777 112.394L68.8277 112.191C70.2643 113.295 71.2041 114.924 71.4411 116.721C71.678 118.517 71.1927 120.334 70.0915 121.772L42.4014 157.881C41.7608 158.713 40.9371 159.386 39.9943 159.849C39.0515 160.311 38.0149 160.55 36.9648 160.547L36.9588 160.555Z" fill="#FFF89A"/>
<path d="M120.5 506.083H66.5C64.2465 506.081 62.086 505.184 60.4926 503.591C58.8991 501.997 58.0027 499.837 58 497.583V465.583C58.0027 463.33 58.8991 461.17 60.4926 459.576C62.086 457.983 64.2465 457.086 66.5 457.083H120.5C122.754 457.086 124.914 457.983 126.507 459.576C128.101 461.17 128.997 463.33 129 465.583V497.583C128.997 499.837 128.101 501.997 126.507 503.591C124.914 505.184 122.754 506.081 120.5 506.083Z" fill="#E6E6E6"/>
<path d="M93.9588 493.555C92.4865 493.557 91.0533 493.081 89.8753 492.198L89.8023 492.143L74.4216 480.377C72.983 479.274 72.0414 477.645 71.804 475.848C71.5666 474.051 72.0529 472.233 73.1558 470.794C74.2587 469.355 75.888 468.414 77.6851 468.176C79.4823 467.939 81.3002 468.425 82.7388 469.528L92.7012 477.168L116.243 446.455C116.789 445.743 117.469 445.146 118.246 444.697C119.023 444.248 119.881 443.956 120.77 443.839C121.66 443.721 122.564 443.78 123.43 444.012C124.297 444.244 125.11 444.644 125.822 445.19L125.824 445.191L125.678 445.394L125.828 445.191C127.264 446.295 128.204 447.924 128.441 449.721C128.678 451.517 128.193 453.334 127.092 454.772L99.4014 490.881C98.7608 491.713 97.9371 492.386 96.9943 492.849C96.0515 493.311 95.0149 493.55 93.9648 493.547L93.9588 493.555Z" fill="#FFF89A"/>
<path d="M520 174.083C518.012 174.086 516.105 174.877 514.699 176.283C513.293 177.689 512.502 179.595 512.5 181.583V213.583C512.502 215.572 513.293 217.478 514.699 218.884C516.105 220.29 518.012 221.081 520 221.083H574C575.988 221.081 577.895 220.29 579.301 218.884C580.707 217.478 581.498 215.572 581.5 213.583V181.583C581.498 179.595 580.707 177.689 579.301 176.283C577.895 174.877 575.988 174.086 574 174.083H520Z" fill="#E6E6E6"/>
<path d="M544.959 210.555C543.487 210.557 542.053 210.081 540.875 209.198L540.802 209.143L525.422 197.377C523.983 196.274 523.041 194.645 522.804 192.848C522.567 191.051 523.053 189.233 524.156 187.794C525.259 186.355 526.888 185.414 528.685 185.176C530.482 184.939 532.3 185.425 533.739 186.528L543.701 194.168L567.243 163.455C567.789 162.743 568.469 162.146 569.246 161.697C570.023 161.248 570.881 160.956 571.77 160.839C572.66 160.721 573.564 160.78 574.43 161.012C575.297 161.244 576.11 161.644 576.822 162.19L576.824 162.191L576.678 162.394L576.828 162.191C578.264 163.295 579.204 164.924 579.441 166.721C579.678 168.517 579.193 170.334 578.092 171.772L550.401 207.881C549.761 208.713 548.937 209.386 547.994 209.849C547.051 210.311 546.015 210.55 544.965 210.547L544.959 210.555Z" fill="#FFF89A"/>
</svg>
