<svg width="741" height="741" viewBox="0 0 741 741" fill="none" xmlns="http://www.w3.org/2000/svg">
<g clip-path="url(#clip0_1965_9136)">
<g clip-path="url(#clip1_1965_9136)">
<path d="M583.441 225.323L557.656 200.401L560.305 187.862C561.388 176.55 574.319 168.956 572.728 165.525L590.905 172.784L583.441 225.323Z" fill="#2F2E41"/>
<path d="M501.817 554.325C501.501 554.339 501.189 554.257 500.922 554.09C500.655 553.922 500.447 553.677 500.325 553.388C500.203 553.099 500.174 552.779 500.241 552.473C500.308 552.167 500.469 551.888 500.701 551.676L500.806 551.259C500.792 551.226 500.778 551.193 500.764 551.159C500.446 550.414 499.914 549.779 499.234 549.334C498.554 548.888 497.756 548.652 496.941 548.655C496.126 548.658 495.33 548.9 494.653 549.35C493.976 549.801 493.449 550.44 493.136 551.187C491.889 554.17 490.3 557.158 489.909 560.312C489.737 561.706 489.81 563.119 490.124 564.488C487.194 558.143 485.672 551.247 485.663 544.267C485.662 542.515 485.76 540.765 485.956 539.025C486.118 537.598 486.343 536.181 486.631 534.774C488.202 527.142 491.574 519.988 496.47 513.901C498.84 512.617 500.757 510.643 501.962 508.245C502.398 507.383 502.707 506.463 502.878 505.513C502.61 505.548 501.87 501.506 502.071 501.258C501.699 500.697 501.032 500.418 500.625 499.87C498.601 497.147 495.813 497.622 494.358 501.323C491.248 502.881 491.218 505.464 493.126 507.949C494.34 509.53 494.507 511.669 495.572 513.361C495.462 513.5 495.348 513.635 495.239 513.774C493.236 516.331 491.49 519.076 490.027 521.971C490.383 518.728 489.958 515.448 488.787 512.4C487.601 509.559 485.378 507.167 483.42 504.711C482.902 504.051 482.199 503.559 481.399 503.296C480.599 503.033 479.739 503.011 478.927 503.233C478.114 503.456 477.387 503.912 476.836 504.545C476.285 505.177 475.935 505.958 475.831 506.788C475.827 506.824 475.823 506.86 475.819 506.896C476.11 507.059 476.395 507.232 476.673 507.415C477.023 507.647 477.294 507.979 477.451 508.366C477.608 508.754 477.643 509.179 477.552 509.587C477.461 509.995 477.248 510.366 476.941 510.652C476.634 510.938 476.247 511.124 475.831 511.188L475.789 511.195C475.892 512.235 476.075 513.266 476.336 514.279C473.825 523.922 479.247 527.434 486.991 527.592C487.161 527.679 487.328 527.766 487.499 527.848C486.029 531.984 485.106 536.293 484.755 540.665C484.557 543.244 484.568 545.835 484.79 548.413L484.777 548.322C484.216 545.455 482.676 542.869 480.417 541C477.061 538.263 472.32 537.256 468.699 535.056C468.315 534.811 467.867 534.68 467.41 534.679C466.953 534.678 466.505 534.806 466.119 535.05C465.733 535.293 465.425 535.641 465.232 536.052C465.038 536.464 464.968 536.921 465.028 537.371L465.042 537.467C465.582 537.685 466.108 537.937 466.616 538.22C466.907 538.383 467.191 538.556 467.47 538.738C467.82 538.97 468.091 539.302 468.248 539.69C468.405 540.077 468.44 540.503 468.349 540.911C468.258 541.319 468.045 541.69 467.738 541.975C467.43 542.261 467.044 542.448 466.628 542.512L466.585 542.518C466.554 542.522 466.528 542.527 466.497 542.531C467.42 544.717 468.714 546.728 470.323 548.478C471.894 556.896 478.64 557.695 485.855 555.243H485.86C486.652 558.658 487.799 561.983 489.283 565.162H501.51C501.554 565.027 501.593 564.888 501.633 564.753C500.501 564.824 499.365 564.757 498.249 564.553C499.157 563.448 500.064 562.334 500.971 561.229C500.991 561.209 501.01 561.187 501.028 561.164C501.488 560.599 501.953 560.037 502.413 559.472L502.413 559.471C502.438 557.738 502.237 556.008 501.817 554.325Z" fill="#F2F2F2"/>
<path d="M600.481 514.634L598.542 528.193V528.227L597.901 532.738L596.862 539.981V539.99L596.43 543.04L595.781 547.577L589.981 547.457L588.25 547.414L587.341 547.397L587.428 543.392L587.644 532.772L588.034 514.376H588.112L589.843 514.411L596.758 514.557L598.49 514.591L600.481 514.634Z" fill="#A0616A"/>
<path d="M613.974 561.497C613.951 562.49 613.533 563.433 612.811 564.121C612.089 564.808 611.123 565.184 610.122 565.166L607.353 565.106L605.621 565.071L598.705 564.934L596.966 564.899L593.348 564.822L590.586 558.825L590.041 561.394V561.402L589.331 564.736L588.319 564.719L583.004 564.607L585.22 543.479L587.427 543.393L588.232 543.358L589.963 543.29L596.42 543.041H596.429L596.879 543.023L598.61 542.955L599.329 542.929L599.199 548.926L605.57 553.489L607.309 554.735L612.408 558.386C612.903 558.74 613.304 559.208 613.577 559.75C613.849 560.292 613.986 560.891 613.974 561.497Z" fill="#2F2E41"/>
<path d="M514.94 495.41L507.588 506.997L507.573 507.029L505.132 510.885L501.202 517.075L501.198 517.083L499.547 519.691L497.086 523.568L491.843 521.105L490.281 520.364L489.459 519.98L491.187 516.36L495.757 506.756L503.686 490.124L503.757 490.156L505.323 490.889L511.575 493.829L513.141 494.562L514.94 495.41Z" fill="#A0616A"/>
<path d="M507.961 543.654C507.531 544.551 506.761 545.242 505.82 545.577C504.878 545.911 503.841 545.862 502.935 545.44L500.432 544.261L498.866 543.527L492.611 540.596L491.037 539.859L487.767 538.32L487.716 531.726L486.161 533.85L486.157 533.858L484.137 536.612L483.22 536.186L478.415 533.928L489.137 515.543L491.186 516.36L491.935 516.656L493.544 517.295L499.539 519.688L499.547 519.691L499.965 519.858L501.573 520.498L502.24 520.766L499.652 526.187L503.588 532.935L504.663 534.778L507.812 540.179C508.118 540.703 508.291 541.293 508.317 541.898C508.343 542.504 508.221 543.106 507.961 543.654Z" fill="#2F2E41"/>
<path d="M636.072 334.945L619.147 307.542L628.149 298.961L643.575 330.575C644.944 330.805 646.21 331.447 647.2 332.415C648.189 333.383 648.855 334.63 649.106 335.986C649.357 337.343 649.181 338.743 648.603 339.997C648.025 341.251 647.072 342.298 645.874 342.996C644.675 343.694 643.29 344.009 641.905 343.898C640.52 343.788 639.203 343.257 638.133 342.377C637.062 341.498 636.29 340.313 635.922 338.984C635.553 337.654 635.606 336.244 636.072 334.945Z" fill="#A0616A"/>
<path d="M583.581 247.88L591.223 240.477C591.223 240.477 597.906 238.429 604.077 249.016C610.247 259.602 623.791 288.376 623.791 288.376L628.87 293.183L629.537 294.828L633.963 298.918L633.107 300.911L638.274 302.479L623.094 316.001L615.332 307.822L615.3 302.955L611.93 301.529L608.604 298.793L607.408 294.299L583.581 247.88Z" fill="#2F2E41"/>
<path d="M553.246 269.442V312.866L604.137 303.794L591.244 264.727L553.246 269.442Z" fill="#A0616A"/>
<path d="M603.797 300.089L548.835 306.825L542.728 353.974L537.3 431.435L494.552 498.791L514.908 503.506L569.87 437.497L581.405 376.255L584.798 527.755L602.44 528.428L620.082 376.202C620.082 376.202 619.404 304.804 603.797 300.089Z" fill="#2F2E41"/>
<path d="M579.709 215.556L557.996 209.494L547.817 223.639L557.656 307.498C557.656 307.498 594.298 280.556 598.369 305.478L600.065 272.809C600.065 272.809 601.903 251.255 597.931 249.571C593.958 247.887 579.03 227.007 579.03 227.007L579.709 215.556Z" fill="#FFF89A"/>
<path d="M543.068 214.209L535.232 221.987L524.747 298.405L551.119 324.584C551.119 324.584 579.709 274.157 559.353 232.396L555.556 212.884L543.068 214.209Z" fill="#2F2E41"/>
<path d="M579.031 224.273L608.208 251.255L617.708 326.695L594.637 321.306L596.673 265.4L576.316 229.028L579.031 224.273Z" fill="#2F2E41"/>
<path d="M638.578 565.199C638.578 565.304 638.557 565.408 638.517 565.506C638.476 565.603 638.417 565.692 638.342 565.766C638.267 565.841 638.178 565.9 638.08 565.94C637.982 565.98 637.876 566 637.77 566H465.902C465.688 566 465.483 565.916 465.331 565.765C465.18 565.615 465.095 565.411 465.095 565.199C465.095 564.986 465.18 564.782 465.331 564.632C465.483 564.481 465.688 564.397 465.902 564.397H637.77C637.876 564.397 637.982 564.417 638.08 564.457C638.178 564.497 638.267 564.557 638.342 564.631C638.417 564.706 638.476 564.794 638.517 564.891C638.557 564.989 638.578 565.093 638.578 565.199Z" fill="#CCCCCC"/>
<path d="M576.057 389.337H493.793C491.746 389.334 489.783 388.526 488.335 387.089C486.887 385.651 486.073 383.703 486.07 381.67V350.177C486.079 342.88 489.002 335.884 494.2 330.724C499.398 325.564 506.446 322.662 513.797 322.653H545.969C555.994 322.665 565.605 326.623 572.693 333.659C579.782 340.696 583.769 350.236 583.78 360.188V381.67C583.778 383.703 582.964 385.651 581.516 387.089C580.068 388.526 578.105 389.334 576.057 389.337Z" fill="#FFF89A"/>
<path d="M523.494 323.94L530.857 285.996L532.97 275.108C533.217 273.837 531.255 273.293 531.007 274.571L523.644 312.514L521.531 323.403C521.285 324.673 523.246 325.217 523.494 323.94Z" fill="#FFF89A"/>
<path d="M625.565 219.416L615.672 221.766L614.315 222.09L580.259 230.193C579.082 230.193 577.954 230.657 577.122 231.483C576.289 232.309 575.822 233.43 575.821 234.598V279.026C575.823 280.193 576.292 281.312 577.124 282.137C577.956 282.961 579.083 283.425 580.259 283.425L602.23 278.198L603.587 277.874L625.565 272.648C626.741 272.646 627.868 272.183 628.699 271.358C629.531 270.534 630 269.416 630.003 268.249V223.821C630.001 222.653 629.533 221.533 628.701 220.708C627.87 219.882 626.742 219.417 625.565 219.416Z" fill="#E6E6E6"/>
<path d="M628.68 251.713V224.764C628.68 224.234 628.575 223.709 628.371 223.219C628.167 222.73 627.867 222.285 627.49 221.91C627.112 221.536 626.664 221.238 626.171 221.036C625.678 220.833 625.149 220.729 624.615 220.729L615.672 223.41L614.315 223.821L588.693 231.506C587.177 231.506 585.675 231.803 584.274 232.379C582.873 232.955 581.599 233.799 580.527 234.864C579.455 235.928 578.604 237.192 578.024 238.583C577.443 239.974 577.145 241.465 577.145 242.97V278.083C577.144 278.613 577.249 279.138 577.454 279.627C577.658 280.117 577.957 280.562 578.335 280.937C578.712 281.311 579.16 281.609 579.653 281.811C580.147 282.014 580.675 282.118 581.209 282.118L602.23 276.817L603.587 276.473L622.118 271.799C628.191 271.799 629.535 268.936 629.535 264.531C629.535 261.022 628.68 256.522 628.68 251.713Z" fill="white"/>
<path d="M603.587 247.18V277.875L602.23 278.198V247.854H577.144C576.964 247.854 576.792 247.783 576.665 247.657C576.537 247.53 576.466 247.359 576.466 247.18C576.466 247.002 576.537 246.83 576.665 246.704C576.792 246.578 576.964 246.507 577.144 246.507H602.909C602.998 246.507 603.086 246.524 603.169 246.557C603.251 246.591 603.326 246.641 603.389 246.703C603.452 246.766 603.502 246.84 603.536 246.922C603.57 247.004 603.587 247.092 603.587 247.18Z" fill="#E6E6E6"/>
<path d="M630.002 237.595V238.646C629.884 238.742 629.735 238.795 629.582 238.794H614.993C614.904 238.795 614.815 238.777 614.733 238.744C614.651 238.71 614.576 238.66 614.513 238.598C614.449 238.535 614.399 238.461 614.365 238.379C614.331 238.297 614.314 238.209 614.314 238.121V222.09L615.672 221.767V237.447H629.582C629.735 237.447 629.884 237.499 630.002 237.595Z" fill="#E6E6E6"/>
<path d="M602.44 250.918C604.689 250.918 606.512 249.109 606.512 246.877C606.512 244.645 604.689 242.835 602.44 242.835C600.192 242.835 598.369 244.645 598.369 246.877C598.369 249.109 600.192 250.918 602.44 250.918Z" fill="#FFF89A"/>
<path d="M572.242 209.564C583.791 209.564 593.153 200.271 593.153 188.807C593.153 177.344 583.791 168.05 572.242 168.05C560.694 168.05 551.332 177.344 551.332 188.807C551.332 200.271 560.694 209.564 572.242 209.564Z" fill="#A0616A"/>
<path d="M597.304 189.496L595.777 193.652L593.395 193.153C593.593 191.674 593.496 190.17 593.11 188.728C592.74 190.086 591.992 191.314 590.953 192.271L583.529 189.583C572.157 189.503 569.823 207.076 567.835 225.323L546.664 208.854C546.703 207.746 546.578 206.639 546.291 205.567C546.08 206.353 545.735 207.098 545.273 207.77L542.729 205.789L544.696 181.999C544.95 178.933 545.889 175.963 547.446 173.303C549.003 170.643 551.138 168.362 553.695 166.625C556.252 164.888 559.167 163.739 562.229 163.262C565.29 162.784 568.42 162.991 571.39 163.867L584.534 169.875L588.869 169.417C596.415 172.145 600.052 181.999 597.304 189.496Z" fill="#2F2E41"/>
<path d="M546.987 322.317H514.815C510.932 322.316 507.092 323.126 503.545 324.695C499.998 326.265 496.824 328.558 494.229 331.425C499.312 326.859 505.924 324.333 512.779 324.338H544.951C554.976 324.349 564.587 328.307 571.676 335.344C578.764 342.38 582.751 351.921 582.763 361.872V383.354C582.764 384.894 582.296 386.397 581.42 387.667C582.46 386.965 583.312 386.02 583.901 384.917C584.49 383.813 584.798 382.583 584.798 381.334V359.851C584.787 349.9 580.8 340.359 573.711 333.323C566.623 326.286 557.012 322.328 546.987 322.317Z" fill="#3F3D56"/>
<path d="M533.144 223.1C535.229 221.309 538.576 222.087 540.465 223.786C542.832 225.915 543.812 229.09 544.597 232.061C546.421 239.279 547.442 246.674 547.641 254.113C547.92 261.578 547.625 269.051 547.209 276.507C546.779 284.222 546.288 291.934 545.822 299.648L544.226 326.077C544.148 327.376 546.184 327.371 546.262 326.077C547.247 309.767 548.285 293.459 549.209 277.146C550.085 261.678 550.545 245.776 546.337 230.701C545.389 227.305 543.979 223.711 540.959 221.614C538.219 219.71 534.319 219.426 531.705 221.671C530.712 222.523 532.157 223.947 533.144 223.1Z" fill="#FFF89A"/>
<path d="M572.583 258.866L543.607 279.591L549.085 292.127L578.341 266.483C579.833 266.829 581.397 266.71 582.819 266.143C584.241 265.577 585.453 264.59 586.29 263.316C587.127 262.042 587.549 260.543 587.499 259.023C587.449 257.502 586.928 256.034 586.009 254.818C585.089 253.601 583.814 252.695 582.358 252.222C580.901 251.749 579.334 251.733 577.868 252.175C576.401 252.617 575.108 253.496 574.162 254.693C573.217 255.89 572.665 257.347 572.583 258.866Z" fill="#A0616A"/>
<path d="M534.527 222.517C534.527 222.517 542.137 223.775 542.95 237.242C543.764 250.708 543.587 276.133 543.587 276.133L550.798 270.569L558.041 268.527L563.178 281.234L559.134 287.949L554.48 290.179L552.796 289.164L550.169 292.76C546.346 294.732 541.904 295.165 537.768 293.97C533.631 292.775 530.118 290.043 527.957 286.343L525.343 283.284L523.427 278.955L524.485 273.936L523.594 237.756C523.511 234.384 524.532 231.075 526.503 228.328C528.474 225.58 531.29 223.541 534.527 222.517Z" fill="#2F2E41"/>
<path d="M635.445 347.828L621.246 342.381C620.506 342.097 619.91 341.532 619.589 340.812C619.268 340.092 619.248 339.274 619.533 338.539L630.017 311.607C630.304 310.873 630.872 310.281 631.598 309.962C632.323 309.644 633.147 309.624 633.887 309.907L648.086 315.353C648.826 315.638 649.422 316.202 649.743 316.922C650.064 317.643 650.084 318.46 649.799 319.195L639.315 346.127C639.029 346.862 638.46 347.453 637.734 347.772C637.009 348.091 636.185 348.111 635.445 347.828Z" fill="#3F3D56"/>
<path d="M647.021 326.331C646.99 326.319 646.955 326.32 646.924 326.333C646.893 326.347 646.869 326.372 646.857 326.403L645.397 330.154C645.385 330.185 645.386 330.22 645.4 330.25C645.413 330.28 645.438 330.304 645.47 330.316C645.501 330.328 645.536 330.327 645.566 330.314C645.597 330.301 645.621 330.276 645.633 330.245L647.093 326.493C647.106 326.462 647.105 326.428 647.091 326.397C647.078 326.367 647.052 326.343 647.021 326.331Z" fill="#3F3D56"/>
<path d="M649.533 319.093L639.05 346.025C638.802 346.662 638.319 347.181 637.7 347.478C637.081 347.774 636.371 347.826 635.714 347.622C635.694 347.615 635.674 347.609 635.654 347.602C635.618 347.59 635.583 347.577 635.548 347.564C635.548 347.564 635.421 347.505 635.191 347.396C634.958 347.286 634.619 347.126 634.197 346.925C634.071 346.865 633.937 346.801 633.797 346.733C633.517 346.599 633.209 346.451 632.88 346.291C632.748 346.228 632.612 346.162 632.474 346.094C631.765 345.75 630.972 345.362 630.138 344.946C629.997 344.877 629.855 344.806 629.711 344.734C629.674 344.715 629.636 344.697 629.598 344.677C629.004 344.38 628.394 344.071 627.784 343.758L627.671 343.7C626.62 343.159 625.569 342.606 624.592 342.069C623.841 341.657 623.135 341.256 622.506 340.879C622.301 340.756 622.106 340.636 621.918 340.52C621.882 340.497 621.845 340.474 621.809 340.451C620.493 339.62 619.677 338.955 619.799 338.641L630.283 311.709C630.411 311.38 630.603 311.079 630.848 310.823C631.094 310.568 631.388 310.363 631.713 310.22C632.038 310.077 632.388 309.999 632.744 309.991C633.1 309.982 633.453 310.043 633.785 310.171L635.293 310.749C635.409 310.794 635.503 310.881 635.556 310.993C635.61 311.104 635.62 311.231 635.583 311.349C635.579 311.365 635.574 311.382 635.571 311.399C635.55 311.524 635.574 311.653 635.638 311.763C635.702 311.873 635.803 311.957 635.924 312.001L645.16 315.544C645.279 315.592 645.411 315.597 645.533 315.559C645.655 315.52 645.76 315.441 645.83 315.333C645.839 315.319 645.847 315.304 645.855 315.288C645.907 315.177 646.001 315.089 646.116 315.043C646.231 314.996 646.359 314.995 646.475 315.038L647.983 315.617C648.315 315.744 648.618 315.935 648.876 316.178C649.133 316.422 649.34 316.713 649.484 317.036C649.628 317.359 649.706 317.707 649.715 318.06C649.723 318.413 649.662 318.764 649.533 319.093Z" fill="#FFF89A"/>
<path d="M628.275 315.906C628.244 315.894 628.209 315.895 628.178 315.909C628.148 315.922 628.124 315.947 628.112 315.978L627.747 316.916C627.735 316.947 627.736 316.982 627.749 317.012C627.763 317.042 627.788 317.066 627.819 317.078C627.85 317.09 627.885 317.089 627.916 317.076C627.946 317.063 627.971 317.038 627.983 317.007L628.348 316.069C628.36 316.038 628.359 316.003 628.345 315.973C628.332 315.942 628.307 315.918 628.275 315.906Z" fill="#3F3D56"/>
<path d="M627.18 318.72C627.149 318.708 627.114 318.709 627.083 318.722C627.053 318.736 627.029 318.761 627.016 318.792L626.309 320.609C626.297 320.64 626.298 320.674 626.312 320.705C626.325 320.735 626.351 320.759 626.382 320.771C626.413 320.783 626.448 320.782 626.478 320.769C626.509 320.755 626.533 320.73 626.545 320.7L627.253 318.882C627.265 318.851 627.264 318.817 627.25 318.786C627.237 318.756 627.211 318.732 627.18 318.72Z" fill="#3F3D56"/>
<path d="M626.176 321.299C626.144 321.287 626.11 321.288 626.079 321.302C626.048 321.315 626.024 321.34 626.012 321.371L625.305 323.189C625.299 323.204 625.296 323.22 625.296 323.237C625.296 323.254 625.3 323.27 625.307 323.285C625.313 323.3 625.323 323.314 625.335 323.325C625.347 323.337 625.361 323.346 625.377 323.352C625.392 323.358 625.409 323.361 625.426 323.36C625.442 323.36 625.459 323.356 625.474 323.349C625.489 323.343 625.503 323.333 625.515 323.321C625.526 323.309 625.535 323.295 625.541 323.279L626.248 321.462C626.26 321.431 626.259 321.396 626.246 321.366C626.232 321.335 626.207 321.311 626.176 321.299Z" fill="#3F3D56"/>
<path d="M634.967 311.096L632.958 310.326C632.877 310.294 632.785 310.335 632.753 310.416C632.722 310.497 632.762 310.588 632.844 310.619L634.852 311.39C634.934 311.421 635.026 311.381 635.057 311.3C635.089 311.218 635.048 311.127 634.967 311.096Z" fill="#3F3D56"/>
<path d="M646.665 315.902C646.805 315.902 646.919 315.789 646.919 315.65C646.919 315.511 646.805 315.399 646.665 315.399C646.525 315.399 646.412 315.511 646.412 315.65C646.412 315.789 646.525 315.902 646.665 315.902Z" fill="#3F3D56"/>
<path d="M647.315 316.151C647.455 316.151 647.568 316.039 647.568 315.9C647.568 315.761 647.455 315.648 647.315 315.648C647.175 315.648 647.062 315.761 647.062 315.9C647.062 316.039 647.175 316.151 647.315 316.151Z" fill="#3F3D56"/>
<path d="M647.964 316.4C648.104 316.4 648.217 316.288 648.217 316.149C648.217 316.01 648.104 315.897 647.964 315.897C647.824 315.897 647.711 316.01 647.711 316.149C647.711 316.288 647.824 316.4 647.964 316.4Z" fill="#3F3D56"/>
<path fill-rule="evenodd" clip-rule="evenodd" d="M638.103 325.639C637.902 326.158 637.525 326.591 637.039 326.866C636.552 327.141 635.985 327.241 635.432 327.149L632.788 333.942C632.765 334.001 632.73 334.055 632.686 334.101C632.642 334.147 632.59 334.184 632.531 334.21C632.473 334.235 632.41 334.249 632.346 334.251C632.282 334.252 632.219 334.241 632.159 334.218C632.1 334.196 632.045 334.161 631.999 334.118C631.953 334.074 631.916 334.022 631.89 333.964C631.864 333.906 631.85 333.843 631.849 333.78C631.847 333.717 631.858 333.654 631.881 333.595L634.526 326.801C634.139 326.555 633.83 326.204 633.636 325.791C633.441 325.377 633.369 324.918 633.427 324.465C633.485 324.012 633.671 323.585 633.964 323.233C634.257 322.882 634.645 322.62 635.082 322.478C635.519 322.336 635.987 322.32 636.433 322.432C636.879 322.544 637.283 322.779 637.6 323.11C637.916 323.441 638.131 323.855 638.221 324.302C638.31 324.75 638.269 325.214 638.103 325.639Z" fill="white"/>
<path d="M610.367 235.715C610.133 236.314 609.699 236.814 609.137 237.132C608.575 237.449 607.92 237.565 607.283 237.458L604.229 245.302C604.203 245.37 604.163 245.432 604.112 245.486C604.061 245.539 604.001 245.581 603.933 245.611C603.866 245.641 603.793 245.657 603.719 245.659C603.646 245.66 603.572 245.648 603.503 245.621C603.435 245.595 603.372 245.555 603.318 245.505C603.265 245.454 603.222 245.394 603.192 245.327C603.163 245.26 603.146 245.188 603.145 245.114C603.143 245.041 603.156 244.968 603.183 244.9L606.236 237.056C605.789 236.772 605.433 236.368 605.208 235.89C604.983 235.413 604.9 234.882 604.967 234.359C605.034 233.837 605.249 233.344 605.588 232.938C605.926 232.531 606.373 232.229 606.878 232.065C607.382 231.901 607.923 231.883 608.438 232.012C608.952 232.142 609.419 232.413 609.785 232.795C610.15 233.178 610.399 233.655 610.502 234.172C610.605 234.689 610.558 235.224 610.367 235.715Z" fill="#FFF89A"/>
</g>
<path d="M707.763 265.532C707.67 265.532 707.579 265.57 707.513 265.636C707.447 265.703 707.409 265.793 707.409 265.886V290.206C707.409 290.3 707.447 290.39 707.513 290.457C707.579 290.523 707.67 290.561 707.763 290.561H741.645C741.739 290.561 741.829 290.523 741.895 290.457C741.962 290.39 741.999 290.3 741.999 290.206V265.886C741.999 265.793 741.962 265.703 741.895 265.636C741.829 265.57 741.739 265.532 741.645 265.532H707.763Z" fill="#E6E6E6"/>
<path d="M739.774 267.707V284.991C739.774 285.106 739.728 285.217 739.646 285.298C739.565 285.38 739.454 285.426 739.339 285.426H709.999C709.979 285.426 709.958 285.424 709.938 285.42C709.834 285.406 709.74 285.354 709.671 285.275C709.602 285.196 709.565 285.095 709.564 284.991V267.707C709.564 267.592 709.61 267.481 709.692 267.4C709.773 267.318 709.884 267.272 709.999 267.272H739.339C739.454 267.272 739.565 267.318 739.646 267.4C739.728 267.481 739.774 267.592 739.774 267.707Z" fill="white"/>
<path d="M733.692 275.182C734.563 275.182 735.269 274.476 735.269 273.606C735.269 272.735 734.563 272.03 733.692 272.03C732.822 272.03 732.116 272.735 732.116 273.606C732.116 274.476 732.822 275.182 733.692 275.182Z" fill="#FF6584"/>
<path d="M708.422 266.926C708.709 266.926 708.942 266.693 708.942 266.406C708.942 266.119 708.709 265.886 708.422 265.886C708.135 265.886 707.902 266.119 707.902 266.406C707.902 266.693 708.135 266.926 708.422 266.926Z" fill="#3F3D56"/>
<path d="M740.917 266.926C741.204 266.926 741.437 266.693 741.437 266.406C741.437 266.119 741.204 265.886 740.917 265.886C740.63 265.886 740.397 266.119 740.397 266.406C740.397 266.693 740.63 266.926 740.917 266.926Z" fill="#3F3D56"/>
<path d="M708.422 290.207C708.709 290.207 708.942 289.974 708.942 289.687C708.942 289.4 708.709 289.167 708.422 289.167C708.135 289.167 707.902 289.4 707.902 289.687C707.902 289.974 708.135 290.207 708.422 290.207Z" fill="#3F3D56"/>
<path d="M740.917 290.207C741.204 290.207 741.437 289.974 741.437 289.687C741.437 289.4 741.204 289.167 740.917 289.167C740.63 289.167 740.397 289.4 740.397 289.687C740.397 289.974 740.63 290.207 740.917 290.207Z" fill="#3F3D56"/>
<path d="M719.231 279.793C720.275 279.793 721.122 278.947 721.122 277.902C721.122 276.858 720.275 276.011 719.231 276.011C718.187 276.011 717.34 276.858 717.34 277.902C717.34 278.947 718.187 279.793 719.231 279.793Z" fill="#FFF89A"/>
<path d="M719.413 283.599H719.025L719.202 277.618L719.413 283.599Z" fill="#3F3D56"/>
<path d="M719.237 278.751L719.653 278.176L719.231 278.894L719.186 278.814L719.237 278.751Z" fill="#3F3D56"/>
<path d="M719.191 279.333L718.775 278.757L719.197 279.475L719.243 279.395L719.191 279.333Z" fill="#3F3D56"/>
<path d="M736.578 279.793C737.622 279.793 738.469 278.947 738.469 277.902C738.469 276.858 737.622 276.011 736.578 276.011C735.533 276.011 734.687 276.858 734.687 277.902C734.687 278.947 735.533 279.793 736.578 279.793Z" fill="#FFF89A"/>
<path d="M736.76 283.599H736.373L736.55 277.618L736.76 283.599Z" fill="#3F3D56"/>
<path d="M736.584 278.751L737 278.176L736.579 278.894L736.533 278.814L736.584 278.751Z" fill="#3F3D56"/>
<path d="M736.539 279.333L736.123 278.757L736.544 279.475L736.59 279.395L736.539 279.333Z" fill="#3F3D56"/>
<path d="M724.708 279.046C726.251 279.046 727.501 277.795 727.501 276.253C727.501 274.71 726.251 273.46 724.708 273.46C723.165 273.46 721.915 274.71 721.915 276.253C721.915 277.795 723.165 279.046 724.708 279.046Z" fill="#FFF89A"/>
<path d="M724.978 284.665H724.406L724.667 275.832L724.978 284.665Z" fill="#3F3D56"/>
<path d="M724.718 277.506L725.332 276.657L724.71 277.717L724.643 277.599L724.718 277.506Z" fill="#3F3D56"/>
<path d="M724.65 278.364L724.036 277.515L724.659 278.575L724.726 278.457L724.65 278.364Z" fill="#3F3D56"/>
<path d="M731.52 277.979C733.062 277.979 734.313 276.729 734.313 275.186C734.313 273.644 733.062 272.393 731.52 272.393C729.977 272.393 728.727 273.644 728.727 275.186C728.727 276.729 729.977 277.979 731.52 277.979Z" fill="#FFF89A"/>
<path d="M731.789 283.598H731.217L731.478 274.765L731.789 283.598Z" fill="#3F3D56"/>
<path d="M731.528 276.439L732.142 275.59L731.519 276.65L731.452 276.532L731.528 276.439Z" fill="#3F3D56"/>
<path d="M731.461 277.298L730.847 276.448L731.469 277.508L731.537 277.39L731.461 277.298Z" fill="#3F3D56"/>
<path d="M713.855 277.979C715.397 277.979 716.647 276.729 716.647 275.186C716.647 273.644 715.397 272.393 713.855 272.393C712.312 272.393 711.062 273.644 711.062 275.186C711.062 276.729 712.312 277.979 713.855 277.979Z" fill="#FFF89A"/>
<path d="M714.123 283.598H713.551L713.812 274.765L714.123 283.598Z" fill="#3F3D56"/>
<path d="M713.861 276.439L714.475 275.59L713.853 276.65L713.785 276.532L713.861 276.439Z" fill="#3F3D56"/>
<path d="M713.794 277.298L713.18 276.448L713.802 277.508L713.869 277.39L713.794 277.298Z" fill="#3F3D56"/>
<path d="M724.865 285.426H709.999C709.979 285.426 709.958 285.424 709.938 285.421C709.834 285.406 709.74 285.354 709.671 285.276C709.602 285.197 709.565 285.096 709.564 284.991V281.28C710.963 281.047 712.379 280.932 713.797 280.936C719.074 280.936 723.489 282.448 724.596 284.472C724.763 284.763 724.855 285.091 724.865 285.426Z" fill="#3F3D56"/>
<path d="M739.774 284.15V284.992C739.774 285.107 739.728 285.217 739.647 285.299C739.565 285.38 739.454 285.426 739.339 285.426H722.892C723.421 285.043 723.993 284.723 724.596 284.473C726.611 283.609 729.453 283.07 732.602 283.07C735.338 283.07 737.841 283.475 739.774 284.15Z" fill="#3F3D56"/>
<path d="M726.616 224.06C726.558 224.06 726.501 224.074 726.45 224.102L696.537 240.013C696.454 240.058 696.392 240.133 696.365 240.223C696.338 240.312 696.347 240.409 696.391 240.492L707.812 261.964C707.856 262.047 707.932 262.109 708.021 262.136C708.111 262.163 708.208 262.154 708.291 262.11L738.204 246.199C738.287 246.154 738.349 246.079 738.376 245.989C738.404 245.899 738.395 245.802 738.351 245.719L726.929 224.248C726.908 224.207 726.878 224.171 726.842 224.141C726.806 224.111 726.765 224.089 726.72 224.076C726.686 224.065 726.651 224.06 726.616 224.06Z" fill="#E6E6E6"/>
<path d="M725.82 226.9L733.936 242.159C733.963 242.209 733.98 242.265 733.985 242.321C733.991 242.378 733.985 242.436 733.968 242.49C733.951 242.545 733.924 242.596 733.888 242.64C733.851 242.684 733.807 242.721 733.756 242.747L707.854 256.526C707.835 256.536 707.816 256.544 707.796 256.551C707.698 256.586 707.59 256.585 707.493 256.547C707.395 256.51 707.314 256.438 707.265 256.346L699.149 241.087C699.122 241.037 699.105 240.982 699.1 240.925C699.094 240.868 699.1 240.81 699.117 240.756C699.133 240.701 699.161 240.65 699.197 240.606C699.233 240.562 699.278 240.526 699.328 240.499L725.231 226.72C725.281 226.694 725.337 226.677 725.394 226.671C725.45 226.666 725.508 226.672 725.563 226.688C725.617 226.705 725.668 226.732 725.712 226.769C725.756 226.805 725.793 226.85 725.82 226.9Z" fill="white"/>
<path d="M708.508 246.75C710.616 246.75 712.325 245.04 712.325 242.932C712.325 240.824 710.616 239.115 708.508 239.115C706.4 239.115 704.69 240.824 704.69 242.932C704.69 245.04 706.4 246.75 708.508 246.75Z" fill="#FF6584"/>
<path d="M724.6 247.696L708.066 256.491C708.046 256.502 708.024 256.511 708.002 256.519L708.617 238.814C708.62 238.705 708.652 238.598 708.709 238.504C708.767 238.411 708.849 238.335 708.945 238.283C709.042 238.232 709.151 238.207 709.261 238.211C709.371 238.215 709.477 238.249 709.57 238.308L719.653 244.606L720.135 244.907L724.6 247.696Z" fill="#3F3D56"/>
<path opacity="0.2" d="M724.6 247.696L718.955 250.699L719.585 245.2L719.63 244.804L719.653 244.606L720.136 244.907L724.6 247.696Z" fill="black"/>
<path d="M733.807 242.8L719.507 250.406L720.137 244.907L720.182 244.511L721.003 237.345C721.057 236.875 721.615 236.551 722.053 236.703C722.082 236.714 722.111 236.726 722.139 236.74L733.807 242.8Z" fill="#3F3D56"/>
<path d="M697.529 240.995C697.816 240.995 698.049 240.762 698.049 240.475C698.049 240.188 697.816 239.956 697.529 239.956C697.242 239.956 697.01 240.188 697.01 240.475C697.01 240.762 697.242 240.995 697.529 240.995Z" fill="#3F3D56"/>
<path d="M726.217 225.734C726.504 225.734 726.737 225.501 726.737 225.214C726.737 224.927 726.504 224.695 726.217 224.695C725.93 224.695 725.697 224.927 725.697 225.214C725.697 225.501 725.93 225.734 726.217 225.734Z" fill="#3F3D56"/>
<path d="M708.462 261.549C708.749 261.549 708.982 261.316 708.982 261.029C708.982 260.742 708.749 260.509 708.462 260.509C708.175 260.509 707.942 260.742 707.942 261.029C707.942 261.316 708.175 261.549 708.462 261.549Z" fill="#3F3D56"/>
<path d="M737.15 246.288C737.437 246.288 737.669 246.055 737.669 245.768C737.669 245.481 737.437 245.249 737.15 245.249C736.863 245.249 736.63 245.481 736.63 245.768C736.63 246.055 736.863 246.288 737.15 246.288Z" fill="#3F3D56"/>
<path d="M733.858 326.902C733.948 326.926 734.045 326.913 734.126 326.866C734.208 326.819 734.267 326.741 734.291 326.651L740.543 303.148C740.567 303.057 740.554 302.961 740.507 302.879C740.46 302.798 740.383 302.739 740.292 302.715L707.549 294.005C707.458 293.98 707.361 293.993 707.28 294.041C707.199 294.088 707.14 294.165 707.115 294.256L700.863 317.758C700.852 317.803 700.849 317.85 700.855 317.896C700.861 317.943 700.876 317.987 700.899 318.027C700.923 318.067 700.954 318.103 700.991 318.131C701.028 318.159 701.07 318.18 701.115 318.192L733.858 326.902Z" fill="#E6E6E6"/>
<path d="M737.923 304.335L733.48 321.038C733.45 321.149 733.377 321.244 733.278 321.302C733.178 321.36 733.059 321.376 732.948 321.346L704.594 313.804C704.574 313.799 704.555 313.792 704.536 313.783C704.44 313.742 704.362 313.668 704.316 313.574C704.27 313.48 704.259 313.373 704.286 313.272L708.729 296.569C708.759 296.458 708.832 296.363 708.931 296.305C709.031 296.247 709.15 296.231 709.261 296.261L737.615 303.803C737.726 303.833 737.821 303.906 737.879 304.005C737.937 304.105 737.953 304.224 737.923 304.335Z" fill="white"/>
<path d="M734.111 318.665L733.48 321.038C733.45 321.15 733.377 321.245 733.278 321.302C733.178 321.36 733.059 321.376 732.948 321.346L704.594 313.804C704.574 313.799 704.555 313.792 704.536 313.783C704.44 313.742 704.362 313.668 704.316 313.574C704.27 313.48 704.259 313.373 704.286 313.272L704.917 310.899L734.111 318.665Z" fill="#3F3D56"/>
<path d="M721.586 316.851L717.075 315.651L716.938 316.166L721.449 317.366L721.586 316.851Z" fill="#CCCCCC"/>
<path d="M711.21 314.091L706.699 312.891L706.562 313.406L711.073 314.606L711.21 314.091Z" fill="#CCCCCC"/>
<path d="M731.96 319.611L727.449 318.411L727.312 318.926L731.823 320.126L731.96 319.611Z" fill="#CCCCCC"/>
<path d="M707.96 295.537C708.247 295.537 708.48 295.305 708.48 295.018C708.48 294.731 708.247 294.498 707.96 294.498C707.673 294.498 707.44 294.731 707.44 295.018C707.44 295.305 707.673 295.537 707.96 295.537Z" fill="#3F3D56"/>
<path d="M739.364 303.891C739.651 303.891 739.884 303.659 739.884 303.372C739.884 303.085 739.651 302.852 739.364 302.852C739.077 302.852 738.845 303.085 738.845 303.372C738.845 303.659 739.077 303.891 739.364 303.891Z" fill="#3F3D56"/>
<path d="M701.976 318.036C702.263 318.036 702.495 317.804 702.495 317.517C702.495 317.23 702.263 316.997 701.976 316.997C701.689 316.997 701.456 317.23 701.456 317.517C701.456 317.804 701.689 318.036 701.976 318.036Z" fill="#3F3D56"/>
<path d="M733.379 326.389C733.666 326.389 733.899 326.157 733.899 325.87C733.899 325.583 733.666 325.35 733.379 325.35C733.092 325.35 732.859 325.583 732.859 325.87C732.859 326.157 733.092 326.389 733.379 326.389Z" fill="#3F3D56"/>
<path d="M727.14 317.583L729.646 318.251L729.753 317.854L727.246 317.185L727.14 317.583Z" fill="#3F3D56"/>
<path d="M709.095 312.453L709.58 312.71L729.236 317.95L729.522 317.585C730.018 316.96 730.331 316.21 730.426 315.418C730.492 314.827 730.431 314.205 730.014 313.832L730.687 307.789L719.816 304.876L714.706 307.151C714.706 307.151 712.73 306.587 711.295 307.643C710.773 308.039 710.383 308.582 710.174 309.203L709.946 309.89L709.095 312.453Z" fill="#FFF89A"/>
<path d="M713.439 316.016C714.826 316.016 715.951 314.892 715.951 313.505C715.951 312.117 714.826 310.993 713.439 310.993C712.051 310.993 710.927 312.117 710.927 313.505C710.927 314.892 712.051 316.016 713.439 316.016Z" fill="#3F3D56"/>
<path d="M713.439 314.826C714.169 314.826 714.761 314.234 714.761 313.504C714.761 312.774 714.169 312.182 713.439 312.182C712.709 312.182 712.117 312.774 712.117 313.504C712.117 314.234 712.709 314.826 713.439 314.826Z" fill="#CCCCCC"/>
<path d="M725.415 319.209C726.802 319.209 727.927 318.084 727.927 316.697C727.927 315.31 726.802 314.185 725.415 314.185C724.028 314.185 722.903 315.31 722.903 316.697C722.903 318.084 724.028 319.209 725.415 319.209Z" fill="#3F3D56"/>
<path d="M725.416 318.019C726.146 318.019 726.738 317.427 726.738 316.697C726.738 315.966 726.146 315.375 725.416 315.375C724.686 315.375 724.094 315.966 724.094 316.697C724.094 317.427 724.686 318.019 725.416 318.019Z" fill="#CCCCCC"/>
<path d="M716.484 307.199L722.356 308.764L723.073 308.955L724.283 309.277L724.306 309.189L724.59 308.125L724.909 306.93L724.104 306.716L723.387 306.525L722.118 306.186L721.401 305.995L719.935 305.604L716.484 307.199Z" fill="white"/>
<path d="M725.237 309.533L728.34 310.36L728.503 309.751L728.786 308.687L728.966 308.013L728.512 307.892L727.795 307.701L725.863 307.186L725.237 309.533Z" fill="white"/>
<path d="M723.216 311.679L723.614 311.785L723.816 311.029L723.418 310.923L723.216 311.679Z" fill="#3F3D56"/>
<path d="M717.787 308.697L717.894 308.299L717.138 308.098L717.031 308.496L717.787 308.697Z" fill="#3F3D56"/>
<path d="M717.57 308.4L717.527 308.389C717.306 308.33 717.118 308.186 717.003 307.988C716.889 307.791 716.858 307.556 716.917 307.335C716.975 307.115 717.119 306.927 717.317 306.812C717.515 306.698 717.749 306.667 717.97 306.726L718.014 306.737L717.57 308.4Z" fill="#3F3D56"/>
<path d="M709.946 309.891C710.239 310.004 710.561 310.01 710.857 309.908C711.154 309.806 711.405 309.603 711.566 309.334C711.727 309.066 711.788 308.749 711.739 308.44C711.689 308.13 711.532 307.848 711.295 307.644C710.774 308.039 710.383 308.583 710.175 309.204L709.946 309.891Z" fill="#3F3D56"/>
<path d="M723.387 306.524L724.306 309.189L724.59 308.125L724.103 306.716L723.387 306.524Z" fill="#F2F2F2"/>
<path d="M727.795 307.7L728.503 309.75L728.786 308.686L728.512 307.891L727.795 307.7Z" fill="#F2F2F2"/>
<path d="M721.399 305.996L722.354 308.764L723.071 308.955L722.116 306.186L721.399 305.996Z" fill="#F2F2F2"/>
<path d="M646.45 265.444C647.334 265.444 648.05 264.727 648.05 263.844C648.05 262.96 647.334 262.243 646.45 262.243C645.566 262.243 644.85 262.96 644.85 263.844C644.85 264.727 645.566 265.444 646.45 265.444Z" fill="#FFF89A"/>
<path opacity="0.2" d="M647.125 262.394C647.409 262.651 647.591 263.001 647.638 263.381C647.686 263.761 647.595 264.145 647.383 264.464C647.171 264.783 646.851 265.015 646.483 265.118C646.114 265.221 645.721 265.188 645.374 265.026C645.544 265.181 645.746 265.298 645.966 265.368C646.185 265.437 646.417 265.459 646.646 265.431C646.875 265.403 647.095 265.326 647.291 265.205C647.487 265.084 647.655 264.922 647.782 264.73C647.91 264.538 647.995 264.321 648.03 264.093C648.066 263.865 648.053 263.633 647.99 263.411C647.928 263.189 647.818 262.983 647.669 262.808C647.52 262.632 647.334 262.491 647.125 262.394Z" fill="black"/>
<path d="M687.592 267.177C689.765 267.177 691.527 266.461 691.527 265.577C691.527 264.693 689.765 263.977 687.592 263.977C685.42 263.977 683.658 264.693 683.658 265.577C683.658 266.461 685.42 267.177 687.592 267.177Z" fill="#3F3D56"/>
<path opacity="0.2" d="M687.591 263.977C687.456 263.977 687.323 263.979 687.191 263.985C689.176 264.066 690.725 264.748 690.725 265.577C690.725 266.406 689.176 267.087 687.191 267.169C687.323 267.174 687.456 267.177 687.591 267.177C689.764 267.177 691.526 266.461 691.526 265.577C691.526 264.693 689.764 263.977 687.591 263.977Z" fill="black"/>
<path d="M692.726 265.577H672.989V263.444C672.989 263.337 672.947 263.236 672.872 263.161C672.796 263.086 672.695 263.043 672.589 263.043H661.653C661.547 263.043 661.445 263.086 661.37 263.161C661.295 263.236 661.253 263.337 661.253 263.444V265.577H649.784V264.244C649.784 264.138 649.742 264.036 649.667 263.961C649.592 263.886 649.49 263.844 649.384 263.844H643.516C643.41 263.844 643.308 263.886 643.233 263.961C643.158 264.036 643.116 264.138 643.116 264.244V265.577H641.515C641.463 265.577 641.411 265.588 641.362 265.608C641.314 265.628 641.269 265.657 641.232 265.694C641.195 265.732 641.166 265.776 641.146 265.824C641.125 265.873 641.115 265.925 641.115 265.977V292.25C641.115 292.302 641.125 292.354 641.146 292.403C641.166 292.451 641.195 292.496 641.232 292.533C641.269 292.57 641.314 292.599 641.362 292.619C641.411 292.64 641.463 292.65 641.515 292.65H692.726C692.779 292.65 692.831 292.64 692.879 292.619C692.928 292.599 692.972 292.57 693.009 292.533C693.046 292.496 693.076 292.451 693.096 292.403C693.116 292.354 693.126 292.302 693.126 292.25V265.977C693.126 265.925 693.116 265.873 693.096 265.824C693.076 265.776 693.046 265.732 693.009 265.694C692.972 265.657 692.928 265.628 692.879 265.608C692.831 265.588 692.779 265.577 692.726 265.577Z" fill="#3F3D56"/>
<path opacity="0.2" d="M692.724 290.69H641.513C641.461 290.69 641.409 290.679 641.36 290.659C641.312 290.639 641.267 290.61 641.23 290.573C641.193 290.535 641.164 290.491 641.144 290.443C641.124 290.394 641.113 290.342 641.113 290.29V292.157C641.113 292.209 641.124 292.261 641.144 292.31C641.164 292.358 641.193 292.403 641.23 292.44C641.267 292.477 641.312 292.506 641.36 292.526C641.409 292.546 641.461 292.557 641.513 292.557H692.724C692.777 292.557 692.829 292.546 692.877 292.526C692.926 292.506 692.97 292.477 693.007 292.44C693.045 292.403 693.074 292.358 693.094 292.31C693.114 292.261 693.124 292.209 693.124 292.157V290.29C693.124 290.342 693.114 290.394 693.094 290.443C693.074 290.491 693.045 290.535 693.007 290.573C692.97 290.61 692.926 290.639 692.877 290.659C692.829 290.679 692.777 290.69 692.724 290.69Z" fill="black"/>
<path opacity="0.2" d="M693.126 277.846H641.115V282.914H693.126V277.846Z" fill="black"/>
<path opacity="0.2" d="M693.126 275.313H641.115V280.381H693.126V275.313Z" fill="black"/>
<path d="M693.126 276.513H641.115V281.58H693.126V276.513Z" fill="#FFF89A"/>
<path d="M667.121 289.182C672.719 289.182 677.256 284.644 677.256 279.047C677.256 273.449 672.719 268.911 667.121 268.911C661.523 268.911 656.985 273.449 656.985 279.047C656.985 284.644 661.523 289.182 667.121 289.182Z" fill="#FFF89A"/>
<path opacity="0.2" d="M674.928 272.583C676.218 274.78 676.633 277.382 676.091 279.871C675.549 282.359 674.089 284.553 672.003 286.014C669.917 287.476 667.357 288.098 664.833 287.758C662.309 287.417 660.005 286.139 658.381 284.176C659.089 285.384 660.04 286.431 661.173 287.252C662.306 288.074 663.597 288.652 664.965 288.95C666.332 289.248 667.746 289.259 669.119 288.983C670.491 288.708 671.791 288.151 672.937 287.348C674.083 286.545 675.051 285.513 675.779 284.317C676.507 283.122 676.979 281.789 677.166 280.402C677.353 279.015 677.251 277.604 676.866 276.258C676.481 274.913 675.821 273.662 674.928 272.583Z" fill="black"/>
<path d="M667.122 286.589C671.288 286.589 674.664 283.212 674.664 279.047C674.664 274.881 671.288 271.504 667.122 271.504C662.956 271.504 659.579 274.881 659.579 279.047C659.579 283.212 662.956 286.589 667.122 286.589Z" fill="#3F3D56"/>
<path d="M672.989 279.046C672.99 279.843 672.828 280.631 672.513 281.363C672.344 281.757 672.132 282.132 671.88 282.479C671.383 283.169 670.742 283.742 670.001 284.159C669.261 284.577 668.438 284.828 667.591 284.897C666.744 284.965 665.892 284.848 665.094 284.555C664.296 284.261 663.572 283.798 662.971 283.197C662.369 282.596 661.906 281.871 661.613 281.074C661.319 280.276 661.203 279.424 661.271 278.577C661.339 277.729 661.591 276.907 662.008 276.166C662.426 275.426 662.999 274.785 663.689 274.288C664.036 274.036 664.41 273.823 664.805 273.654C665.697 273.271 666.671 273.115 667.639 273.201C668.607 273.287 669.538 273.612 670.349 274.146C671.16 274.681 671.826 275.408 672.287 276.263C672.748 277.119 672.989 278.075 672.989 279.046Z" fill="white"/>
<path opacity="0.2" d="M672.926 278.192C672.708 276.7 671.922 275.35 670.733 274.422C671.248 275.229 671.558 276.15 671.636 277.104C671.714 278.058 671.557 279.017 671.179 279.896C671.01 280.291 670.798 280.665 670.546 281.012C670.084 281.653 669.498 282.194 668.822 282.602C668.146 283.011 667.395 283.278 666.614 283.389C665.832 283.5 665.036 283.453 664.273 283.248C663.51 283.044 662.797 282.688 662.175 282.202C662.689 283.01 663.394 283.679 664.227 284.152C665.06 284.624 665.996 284.886 666.954 284.913C667.911 284.94 668.86 284.733 669.719 284.309C670.578 283.885 671.319 283.256 671.879 282.479C672.132 282.132 672.344 281.758 672.513 281.363C672.942 280.365 673.085 279.267 672.926 278.192Z" fill="black"/>
<g clip-path="url(#clip2_1965_9136)">
<path d="M136.906 201.851L142.698 210.891L163.362 200.662L173.986 197.418C175.366 196.997 176.612 196.221 177.598 195.168C178.584 194.116 179.276 192.823 179.605 191.42C179.934 190.017 179.888 188.552 179.473 187.172C179.057 185.791 178.286 184.544 177.236 183.555C175.681 182.089 173.616 181.283 171.477 181.309C169.339 181.334 167.293 182.188 165.773 183.69L156.858 192.502L136.906 201.851Z" fill="#A0616A"/>
<path d="M146.681 210.469L138.958 198.417L109.676 211.281C107.574 212.204 105.746 213.655 104.37 215.492C102.993 217.329 102.116 219.489 101.822 221.764C101.46 224.57 102.002 227.417 103.37 229.894C104.737 232.371 106.859 234.349 109.428 235.54L156.107 256.501C159.329 257.995 163.009 258.173 166.36 256.995C169.711 255.817 172.468 253.378 174.042 250.197C174.888 248.487 175.365 246.618 175.44 244.712C175.515 242.805 175.188 240.904 174.478 239.133C173.769 237.361 172.695 235.759 171.324 234.429C169.954 233.1 168.318 232.073 166.524 231.417L131.509 219.313L146.681 210.469Z" fill="#FFF89A"/>
<path d="M455.728 415.077C455.728 411.457 454.51 408.519 453.015 408.512H45.4706C43.9689 408.519 42.7581 411.457 42.7513 415.077V564.108C42.7514 564.445 42.6261 564.769 42.3999 565.018C42.1738 565.267 41.8629 565.422 41.5278 565.455C40.434 565.56 39.3401 565.657 38.2463 565.748C38.2192 565.748 38.1922 565.755 38.1651 565.755C37.5699 565.809 36.9746 565.849 36.3793 565.896H36.3726C36.0664 565.331 35.7637 564.761 35.4646 564.186C35.3635 563.992 35.3106 563.777 35.3105 563.558V406.56C35.3105 405.56 35.3511 404.554 35.4188 403.561C35.5153 402.198 35.6847 400.84 35.9261 399.495C37.0693 393.22 39.6533 388.972 42.589 388.958H455.89C456.318 388.961 456.742 389.05 457.134 389.221C457.711 389.476 458.233 389.841 458.67 390.295C459.263 390.911 459.771 391.604 460.178 392.355C461.626 394.902 462.661 398.698 463.026 403.115C463.026 403.156 463.033 403.196 463.033 403.237C463.128 404.331 463.175 405.445 463.168 406.56L463.263 421.035L463.324 429.667L463.506 456.752L463.574 466.37L463.872 565.12C463.872 565.478 463.729 565.821 463.476 566.075C463.222 566.328 462.878 566.47 462.519 566.47H457.08C456.722 566.47 456.377 566.328 456.124 566.075C455.87 565.821 455.728 565.478 455.728 565.12V415.077Z" fill="#E6E6E6"/>
<path d="M45.6436 488.887L36.875 487.314L38.7758 452.792L51.718 455.113L45.6436 488.887Z" fill="#A0616A"/>
<path d="M44.3101 498.076L17.3447 493.241L17.406 492.9C17.9059 490.121 19.491 487.654 21.8127 486.041C24.1343 484.429 27.0024 483.803 29.786 484.302L29.7866 484.302L35.3831 481.454L43.9022 486.833L46.2561 487.255L44.3101 498.076Z" fill="#2F2E41"/>
<path d="M258.311 452.449H204.542C203.101 452.448 201.719 451.875 200.7 450.858C199.681 449.84 199.108 448.461 199.106 447.022V397.898C199.108 396.459 199.681 395.08 200.7 394.062C201.719 393.045 203.101 392.472 204.542 392.471H258.311C259.752 392.472 261.134 393.045 262.152 394.062C263.171 395.08 263.745 396.459 263.746 397.898V447.022C263.745 448.461 263.171 449.84 262.152 450.858C261.133 451.875 259.752 452.448 258.311 452.449Z" fill="#3F3D56"/>
<path d="M254.531 447.926H208.321C207.042 447.925 205.815 447.416 204.91 446.513C204.005 445.61 203.497 444.385 203.495 443.107V401.813C203.497 400.535 204.005 399.311 204.91 398.407C205.815 397.504 207.042 396.996 208.321 396.994H254.531C255.811 396.996 257.037 397.504 257.942 398.407C258.847 399.311 259.356 400.535 259.357 401.813V443.107C259.356 444.385 258.847 445.61 257.942 446.513C257.037 447.416 255.811 447.925 254.531 447.926Z" fill="white"/>
<path d="M249.922 409.017H212.931C212.611 409.017 212.304 408.89 212.078 408.664C211.852 408.438 211.725 408.132 211.725 407.812C211.725 407.493 211.852 407.186 212.078 406.96C212.304 406.734 212.611 406.607 212.931 406.607H249.922C250.242 406.607 250.548 406.734 250.775 406.96C251.001 407.186 251.128 407.493 251.128 407.812C251.128 408.132 251.001 408.438 250.775 408.664C250.548 408.89 250.242 409.017 249.922 409.017Z" fill="#FFF89A"/>
<path d="M249.921 413.777H212.93C212.61 413.777 212.303 413.65 212.077 413.424C211.851 413.198 211.724 412.891 211.724 412.572C211.724 412.252 211.851 411.946 212.077 411.72C212.303 411.494 212.61 411.367 212.93 411.367H249.921C250.241 411.367 250.547 411.494 250.774 411.72C251 411.946 251.127 412.252 251.127 412.572C251.127 412.891 251 413.198 250.774 413.424C250.547 413.65 250.241 413.777 249.921 413.777Z" fill="#FFF89A"/>
<path d="M228.965 418.536H212.93C212.61 418.536 212.303 418.409 212.077 418.183C211.851 417.958 211.724 417.651 211.724 417.332C211.724 417.012 211.851 416.706 212.077 416.48C212.303 416.254 212.61 416.127 212.93 416.127H228.965C229.285 416.127 229.591 416.254 229.818 416.48C230.044 416.706 230.171 417.012 230.171 417.332C230.171 417.651 230.044 417.958 229.818 418.183C229.591 418.409 229.285 418.536 228.965 418.536Z" fill="#FFF89A"/>
<path d="M249.922 428.506H212.931C212.611 428.506 212.304 428.379 212.078 428.153C211.852 427.927 211.725 427.621 211.725 427.301C211.725 426.982 211.852 426.675 212.078 426.45C212.304 426.224 212.611 426.097 212.931 426.097H249.922C250.242 426.097 250.548 426.224 250.775 426.45C251.001 426.675 251.128 426.982 251.128 427.301C251.128 427.621 251.001 427.927 250.775 428.153C250.548 428.379 250.242 428.506 249.922 428.506Z" fill="#E4E4E4"/>
<path d="M249.922 433.266H212.931C212.772 433.266 212.615 433.235 212.468 433.175C212.322 433.115 212.188 433.026 212.076 432.914C211.964 432.802 211.875 432.669 211.814 432.523C211.753 432.376 211.722 432.22 211.722 432.061C211.722 431.903 211.753 431.746 211.814 431.599C211.875 431.453 211.964 431.32 212.076 431.208C212.188 431.096 212.322 431.008 212.468 430.947C212.615 430.887 212.772 430.856 212.931 430.856H249.922C250.242 430.856 250.548 430.983 250.775 431.209C251.001 431.435 251.128 431.742 251.128 432.061C251.128 432.381 251.001 432.687 250.775 432.913C250.548 433.139 250.242 433.266 249.922 433.266Z" fill="#E4E4E4"/>
<path d="M228.965 438.026H212.93C212.61 438.026 212.303 437.899 212.077 437.673C211.851 437.447 211.724 437.14 211.724 436.821C211.724 436.501 211.851 436.195 212.077 435.969C212.303 435.743 212.61 435.616 212.93 435.616H228.965C229.285 435.616 229.591 435.743 229.818 435.969C230.044 436.195 230.171 436.501 230.171 436.821C230.171 437.14 230.044 437.447 229.818 437.673C229.591 437.899 229.285 438.026 228.965 438.026Z" fill="#E4E4E4"/>
<path d="M344.986 321.228H301.072C300.451 321.228 299.855 321.476 299.417 321.915C298.978 322.354 298.732 322.949 298.732 323.57V392.838H347.331V323.57C347.331 323.262 347.271 322.957 347.153 322.673C347.035 322.389 346.862 322.131 346.644 321.913C346.427 321.696 346.168 321.523 345.883 321.405C345.599 321.288 345.294 321.227 344.986 321.228ZM323.176 360.585C321.803 360.579 320.488 360.031 319.517 359.062C318.546 358.092 317.997 356.779 317.991 355.407V347.418C317.993 346.046 318.54 344.73 319.512 343.76C320.484 342.791 321.802 342.246 323.176 342.246C324.551 342.246 325.869 342.791 326.841 343.76C327.813 344.73 328.36 346.046 328.362 347.418V355.407C328.356 356.779 327.807 358.092 326.836 359.062C325.865 360.031 324.55 360.579 323.176 360.585Z" fill="#2F2E41"/>
<path d="M298.581 390.623V397.306C298.582 397.652 298.72 397.984 298.965 398.229C299.21 398.474 299.543 398.611 299.889 398.612H346.173C346.519 398.61 346.851 398.472 347.096 398.228C347.341 397.983 347.479 397.652 347.481 397.306V390.623H298.581Z" fill="#3F3D56"/>
<path d="M417.702 213.126H229.988C228.375 213.129 226.829 213.769 225.689 214.908C224.549 216.047 223.907 217.591 223.904 219.201V345.685C223.906 347.296 224.547 348.84 225.688 349.979C226.829 351.118 228.375 351.758 229.988 351.76H417.702C419.315 351.758 420.861 351.118 422.002 349.979C423.143 348.84 423.784 347.296 423.786 345.685V219.201C423.783 217.591 423.141 216.047 422.001 214.908C420.86 213.769 419.315 213.129 417.702 213.126Z" fill="#3F3D56"/>
<path d="M416.135 217.514H231.556C230.693 217.516 229.865 217.859 229.255 218.47C228.645 219.08 228.303 219.907 228.303 220.769V344.118C228.304 344.979 228.647 345.805 229.257 346.414C229.867 347.023 230.694 347.366 231.556 347.367H416.135C416.997 347.366 417.824 347.023 418.434 346.414C419.044 345.805 419.387 344.979 419.388 344.118V220.769C419.388 219.907 419.046 219.08 418.436 218.47C417.826 217.859 416.998 217.516 416.135 217.514Z" fill="white"/>
<path d="M380.183 400.938H270.369C270.068 400.938 269.771 400.871 269.5 400.742C269.229 400.613 268.989 400.425 268.8 400.192C268.611 399.959 268.476 399.686 268.405 399.394C268.335 399.103 268.33 398.799 268.392 398.505L270.096 390.424C270.193 389.972 270.442 389.567 270.801 389.276C271.161 388.984 271.609 388.824 272.072 388.823H378.479C378.942 388.824 379.391 388.984 379.75 389.276C380.11 389.567 380.359 389.972 380.456 390.424L382.16 398.505C382.222 398.799 382.217 399.103 382.146 399.394C382.076 399.686 381.941 399.959 381.751 400.192C381.562 400.425 381.323 400.613 381.052 400.742C380.78 400.871 380.483 400.938 380.183 400.938Z" fill="#2F2E41"/>
<path d="M275.904 390.278H273.182C272.999 390.278 272.852 390.425 272.852 390.608V391.974C272.852 392.157 272.999 392.304 273.182 392.304H275.904C276.086 392.304 276.234 392.157 276.234 391.974V390.608C276.234 390.425 276.086 390.278 275.904 390.278Z" fill="#3F3D56"/>
<path d="M282.668 390.278H279.946C279.764 390.278 279.616 390.425 279.616 390.608V391.974C279.616 392.157 279.764 392.304 279.946 392.304H282.668C282.851 392.304 282.998 392.157 282.998 391.974V390.608C282.998 390.425 282.851 390.278 282.668 390.278Z" fill="#3F3D56"/>
<path d="M289.433 390.278H286.711C286.529 390.278 286.381 390.425 286.381 390.608V391.974C286.381 392.157 286.529 392.304 286.711 392.304H289.433C289.615 392.304 289.763 392.157 289.763 391.974V390.608C289.763 390.425 289.615 390.278 289.433 390.278Z" fill="#3F3D56"/>
<path d="M296.196 390.278H293.475C293.292 390.278 293.145 390.425 293.145 390.608V391.974C293.145 392.157 293.292 392.304 293.475 392.304H296.196C296.379 392.304 296.527 392.157 296.527 391.974V390.608C296.527 390.425 296.379 390.278 296.196 390.278Z" fill="#3F3D56"/>
<path d="M302.961 390.278H300.239C300.057 390.278 299.909 390.425 299.909 390.608V391.974C299.909 392.157 300.057 392.304 300.239 392.304H302.961C303.143 392.304 303.291 392.157 303.291 391.974V390.608C303.291 390.425 303.143 390.278 302.961 390.278Z" fill="#3F3D56"/>
<path d="M309.726 390.278H307.004C306.822 390.278 306.674 390.425 306.674 390.608V391.974C306.674 392.157 306.822 392.304 307.004 392.304H309.726C309.908 392.304 310.056 392.157 310.056 391.974V390.608C310.056 390.425 309.908 390.278 309.726 390.278Z" fill="#3F3D56"/>
<path d="M316.489 390.278H313.768C313.585 390.278 313.438 390.425 313.438 390.608V391.974C313.438 392.157 313.585 392.304 313.768 392.304H316.489C316.672 392.304 316.82 392.157 316.82 391.974V390.608C316.82 390.425 316.672 390.278 316.489 390.278Z" fill="#3F3D56"/>
<path d="M323.254 390.278H320.532C320.35 390.278 320.202 390.425 320.202 390.608V391.974C320.202 392.157 320.35 392.304 320.532 392.304H323.254C323.436 392.304 323.584 392.157 323.584 391.974V390.608C323.584 390.425 323.436 390.278 323.254 390.278Z" fill="#3F3D56"/>
<path d="M330.019 390.278H327.297C327.115 390.278 326.967 390.425 326.967 390.608V391.974C326.967 392.157 327.115 392.304 327.297 392.304H330.019C330.201 392.304 330.349 392.157 330.349 391.974V390.608C330.349 390.425 330.201 390.278 330.019 390.278Z" fill="#3F3D56"/>
<path d="M336.782 390.278H334.061C333.878 390.278 333.73 390.425 333.73 390.608V391.974C333.73 392.157 333.878 392.304 334.061 392.304H336.782C336.965 392.304 337.113 392.157 337.113 391.974V390.608C337.113 390.425 336.965 390.278 336.782 390.278Z" fill="#3F3D56"/>
<path d="M343.547 390.278H340.825C340.643 390.278 340.495 390.425 340.495 390.608V391.974C340.495 392.157 340.643 392.304 340.825 392.304H343.547C343.729 392.304 343.877 392.157 343.877 391.974V390.608C343.877 390.425 343.729 390.278 343.547 390.278Z" fill="#3F3D56"/>
<path d="M350.312 390.278H347.59C347.408 390.278 347.26 390.425 347.26 390.608V391.974C347.26 392.157 347.408 392.304 347.59 392.304H350.312C350.494 392.304 350.642 392.157 350.642 391.974V390.608C350.642 390.425 350.494 390.278 350.312 390.278Z" fill="#3F3D56"/>
<path d="M357.075 390.278H354.354C354.171 390.278 354.023 390.425 354.023 390.608V391.974C354.023 392.157 354.171 392.304 354.354 392.304H357.075C357.258 392.304 357.406 392.157 357.406 391.974V390.608C357.406 390.425 357.258 390.278 357.075 390.278Z" fill="#3F3D56"/>
<path d="M363.84 390.278H361.118C360.936 390.278 360.788 390.425 360.788 390.608V391.974C360.788 392.157 360.936 392.304 361.118 392.304H363.84C364.022 392.304 364.17 392.157 364.17 391.974V390.608C364.17 390.425 364.022 390.278 363.84 390.278Z" fill="#3F3D56"/>
<path d="M370.605 390.278H367.883C367.701 390.278 367.553 390.425 367.553 390.608V391.974C367.553 392.157 367.701 392.304 367.883 392.304H370.605C370.787 392.304 370.935 392.157 370.935 391.974V390.608C370.935 390.425 370.787 390.278 370.605 390.278Z" fill="#3F3D56"/>
<path d="M377.368 390.278H374.647C374.464 390.278 374.316 390.425 374.316 390.608V391.974C374.316 392.157 374.464 392.304 374.647 392.304H377.368C377.551 392.304 377.699 392.157 377.699 391.974V390.608C377.699 390.425 377.551 390.278 377.368 390.278Z" fill="#3F3D56"/>
<path d="M275.823 393.655H273.102C272.919 393.655 272.771 393.802 272.771 393.985V395.351C272.771 395.533 272.919 395.681 273.102 395.681H275.823C276.006 395.681 276.154 395.533 276.154 395.351V393.985C276.154 393.802 276.006 393.655 275.823 393.655Z" fill="#3F3D56"/>
<path d="M282.588 393.655H279.866C279.684 393.655 279.536 393.802 279.536 393.985V395.351C279.536 395.533 279.684 395.681 279.866 395.681H282.588C282.77 395.681 282.918 395.533 282.918 395.351V393.985C282.918 393.802 282.77 393.655 282.588 393.655Z" fill="#3F3D56"/>
<path d="M289.353 393.655H286.631C286.449 393.655 286.301 393.802 286.301 393.985V395.351C286.301 395.533 286.449 395.681 286.631 395.681H289.353C289.535 395.681 289.683 395.533 289.683 395.351V393.985C289.683 393.802 289.535 393.655 289.353 393.655Z" fill="#3F3D56"/>
<path d="M296.116 393.655H293.395C293.212 393.655 293.064 393.802 293.064 393.985V395.351C293.064 395.533 293.212 395.681 293.395 395.681H296.116C296.299 395.681 296.447 395.533 296.447 395.351V393.985C296.447 393.802 296.299 393.655 296.116 393.655Z" fill="#3F3D56"/>
<path d="M302.881 393.655H300.159C299.977 393.655 299.829 393.802 299.829 393.985V395.351C299.829 395.533 299.977 395.681 300.159 395.681H302.881C303.063 395.681 303.211 395.533 303.211 395.351V393.985C303.211 393.802 303.063 393.655 302.881 393.655Z" fill="#3F3D56"/>
<path d="M309.646 393.655H306.924C306.742 393.655 306.594 393.802 306.594 393.985V395.351C306.594 395.533 306.742 395.681 306.924 395.681H309.646C309.828 395.681 309.976 395.533 309.976 395.351V393.985C309.976 393.802 309.828 393.655 309.646 393.655Z" fill="#3F3D56"/>
<path d="M316.409 393.655H313.688C313.505 393.655 313.357 393.802 313.357 393.985V395.351C313.357 395.533 313.505 395.681 313.688 395.681H316.409C316.592 395.681 316.74 395.533 316.74 395.351V393.985C316.74 393.802 316.592 393.655 316.409 393.655Z" fill="#3F3D56"/>
<path d="M323.174 393.655H320.452C320.27 393.655 320.122 393.802 320.122 393.985V395.351C320.122 395.533 320.27 395.681 320.452 395.681H323.174C323.356 395.681 323.504 395.533 323.504 395.351V393.985C323.504 393.802 323.356 393.655 323.174 393.655Z" fill="#3F3D56"/>
<path d="M329.939 393.655H327.217C327.035 393.655 326.887 393.802 326.887 393.985V395.351C326.887 395.533 327.035 395.681 327.217 395.681H329.939C330.121 395.681 330.269 395.533 330.269 395.351V393.985C330.269 393.802 330.121 393.655 329.939 393.655Z" fill="#3F3D56"/>
<path d="M336.702 393.655H333.981C333.798 393.655 333.65 393.802 333.65 393.985V395.351C333.65 395.533 333.798 395.681 333.981 395.681H336.702C336.885 395.681 337.033 395.533 337.033 395.351V393.985C337.033 393.802 336.885 393.655 336.702 393.655Z" fill="#3F3D56"/>
<path d="M343.467 393.655H340.745C340.563 393.655 340.415 393.802 340.415 393.985V395.351C340.415 395.533 340.563 395.681 340.745 395.681H343.467C343.649 395.681 343.797 395.533 343.797 395.351V393.985C343.797 393.802 343.649 393.655 343.467 393.655Z" fill="#3F3D56"/>
<path d="M350.232 393.655H347.51C347.328 393.655 347.18 393.802 347.18 393.985V395.351C347.18 395.533 347.328 395.681 347.51 395.681H350.232C350.414 395.681 350.562 395.533 350.562 395.351V393.985C350.562 393.802 350.414 393.655 350.232 393.655Z" fill="#3F3D56"/>
<path d="M356.996 393.655H354.275C354.092 393.655 353.944 393.802 353.944 393.985V395.351C353.944 395.533 354.092 395.681 354.275 395.681H356.996C357.179 395.681 357.327 395.533 357.327 395.351V393.985C357.327 393.802 357.179 393.655 356.996 393.655Z" fill="#3F3D56"/>
<path d="M363.76 393.655H361.038C360.856 393.655 360.708 393.802 360.708 393.985V395.351C360.708 395.533 360.856 395.681 361.038 395.681H363.76C363.942 395.681 364.09 395.533 364.09 395.351V393.985C364.09 393.802 363.942 393.655 363.76 393.655Z" fill="#3F3D56"/>
<path d="M370.525 393.655H367.803C367.62 393.655 367.473 393.802 367.473 393.985V395.351C367.473 395.533 367.62 395.681 367.803 395.681H370.525C370.707 395.681 370.855 395.533 370.855 395.351V393.985C370.855 393.802 370.707 393.655 370.525 393.655Z" fill="#3F3D56"/>
<path d="M377.289 393.655H374.568C374.385 393.655 374.237 393.802 374.237 393.985V395.351C374.237 395.533 374.385 395.681 374.568 395.681H377.289C377.472 395.681 377.619 395.533 377.619 395.351V393.985C377.619 393.802 377.472 393.655 377.289 393.655Z" fill="#3F3D56"/>
<path d="M331.967 397.708H305.57C305.388 397.708 305.24 397.855 305.24 398.037V399.404C305.24 399.586 305.388 399.734 305.57 399.734H331.967C332.15 399.734 332.298 399.586 332.298 399.404V398.037C332.298 397.855 332.15 397.708 331.967 397.708Z" fill="#3F3D56"/>
<path d="M403.423 555.097L398.208 546.729L397.166 551.511C396.984 552.348 396.801 553.199 396.632 554.044C395.151 552.78 393.575 551.612 392.032 550.491C387.297 547.06 382.565 543.624 377.834 540.184L379.315 548.762C380.229 554.044 381.182 559.434 383.442 564.263C383.692 564.81 383.963 565.351 384.253 565.877H406.265C406.442 565.388 406.564 564.881 406.63 564.364C406.635 564.331 406.638 564.297 406.636 564.263C406.982 560.987 405.169 557.9 403.423 555.097Z" fill="#F0F0F0"/>
<path d="M105.793 555.097L100.577 546.729L99.5356 551.511C99.353 552.348 99.1703 553.199 99.0012 554.044C97.5198 552.78 95.9438 551.612 94.4016 550.491C89.6666 547.06 84.9338 543.624 80.2031 540.184L81.6845 548.762C82.5977 554.044 83.5516 559.434 85.8108 564.263C86.0611 564.81 86.3316 565.351 86.6226 565.877H108.634C108.811 565.388 108.933 564.881 108.999 564.364C109.005 564.331 109.007 564.297 109.006 564.263C109.351 560.987 107.538 557.9 105.793 555.097Z" fill="#F0F0F0"/>
<path d="M524.194 566.793L337.668 567C337.454 567 337.249 566.915 337.098 566.765C336.947 566.614 336.862 566.409 336.862 566.196C336.862 565.983 336.947 565.778 337.098 565.627C337.249 565.476 337.454 565.392 337.668 565.392L524.194 565.184C524.408 565.184 524.613 565.269 524.764 565.42C524.915 565.57 525 565.775 525 565.988C525 566.202 524.915 566.406 524.764 566.557C524.613 566.708 524.408 566.793 524.194 566.793Z" fill="#CACACA"/>
<path d="M406.857 234.508H234.147C233.968 234.504 233.797 234.43 233.671 234.302C233.546 234.174 233.476 234.002 233.476 233.823C233.476 233.643 233.546 233.471 233.671 233.343C233.797 233.215 233.968 233.141 234.147 233.137H406.857C407.036 233.141 407.207 233.215 407.333 233.343C407.458 233.471 407.528 233.643 407.528 233.823C407.528 234.002 407.458 234.174 407.333 234.302C407.207 234.43 407.036 234.504 406.857 234.508Z" fill="#CACACA"/>
<path d="M245.904 229.635C248.127 229.635 249.929 227.795 249.929 225.526C249.929 223.257 248.127 221.417 245.904 221.417C243.681 221.417 241.879 223.257 241.879 225.526C241.879 227.795 243.681 229.635 245.904 229.635Z" fill="#3F3D56"/>
<path d="M259.809 229.635C262.032 229.635 263.834 227.795 263.834 225.526C263.834 223.257 262.032 221.417 259.809 221.417C257.586 221.417 255.784 223.257 255.784 225.526C255.784 227.795 257.586 229.635 259.809 229.635Z" fill="#3F3D56"/>
<path d="M273.714 229.635C275.937 229.635 277.739 227.795 277.739 225.526C277.739 223.257 275.937 221.417 273.714 221.417C271.491 221.417 269.688 223.257 269.688 225.526C269.688 227.795 271.491 229.635 273.714 229.635Z" fill="#3F3D56"/>
<path d="M398.485 222.436H388.608C388.412 222.44 388.226 222.52 388.089 222.66C387.952 222.8 387.875 222.987 387.875 223.183C387.875 223.378 387.952 223.566 388.089 223.706C388.226 223.845 388.412 223.926 388.608 223.93H398.485C398.681 223.926 398.868 223.845 399.005 223.706C399.142 223.566 399.218 223.378 399.218 223.183C399.218 222.987 399.142 222.8 399.005 222.66C398.868 222.52 398.681 222.44 398.485 222.436Z" fill="#3F3D56"/>
<path d="M398.485 225.239H388.608C388.412 225.243 388.226 225.324 388.089 225.463C387.952 225.603 387.875 225.791 387.875 225.986C387.875 226.182 387.952 226.369 388.089 226.509C388.226 226.649 388.412 226.729 388.608 226.733H398.485C398.681 226.729 398.868 226.649 399.005 226.509C399.142 226.369 399.218 226.182 399.218 225.986C399.218 225.791 399.142 225.603 399.005 225.463C398.868 225.324 398.681 225.243 398.485 225.239Z" fill="#3F3D56"/>
<path d="M398.485 228.039H388.608C388.412 228.043 388.226 228.123 388.089 228.263C387.952 228.403 387.875 228.59 387.875 228.786C387.875 228.981 387.952 229.169 388.089 229.309C388.226 229.448 388.412 229.529 388.608 229.533H398.485C398.681 229.529 398.868 229.448 399.005 229.309C399.142 229.169 399.218 228.981 399.218 228.786C399.218 228.59 399.142 228.403 399.005 228.263C398.868 228.123 398.681 228.043 398.485 228.039Z" fill="#3F3D56"/>
<path d="M334.447 271.872H312.866C311.245 271.872 309.931 273.184 309.931 274.803C309.931 276.421 311.245 277.734 312.866 277.734H334.447C336.068 277.734 337.382 276.421 337.382 274.803C337.382 273.184 336.068 271.872 334.447 271.872Z" fill="#FFF89A"/>
<path d="M348.388 283.595H298.924C297.303 283.595 295.989 284.907 295.989 286.526C295.989 288.145 297.303 289.457 298.924 289.457H348.388C350.009 289.457 351.323 288.145 351.323 286.526C351.323 284.907 350.009 283.595 348.388 283.595Z" fill="#E6E6E6"/>
<path d="M348.388 295.318H298.924C297.303 295.318 295.989 296.63 295.989 298.249C295.989 299.867 297.303 301.179 298.924 301.179H348.388C350.009 301.179 351.323 299.867 351.323 298.249C351.323 296.63 350.009 295.318 348.388 295.318Z" fill="#E6E6E6"/>
<path d="M251.802 340.295C251.806 342.71 251.375 345.105 250.53 347.367H231.556C230.694 347.366 229.867 347.023 229.257 346.414C228.647 345.805 228.304 344.98 228.303 344.118V320.289C229.363 320.118 230.435 320.032 231.509 320.032C234.174 320.032 236.813 320.556 239.275 321.574C241.737 322.593 243.974 324.085 245.859 325.967C247.743 327.848 249.238 330.082 250.258 332.541C251.277 334.999 251.802 337.634 251.802 340.295Z" fill="#E6E6E6"/>
<path d="M214.366 359.135C214.082 367.342 196.603 389.483 187.41 392.658C185.848 393.198 184.935 393.495 184.935 393.495L181.735 392.529L142.989 380.824C136.204 384.809 115.965 386.835 99.359 387.848C86.1415 388.652 75.2171 388.814 75.2171 388.814C71.3177 418.427 63.6331 446.753 50.6693 473.285L35.1113 470.583L49.8092 371.753C50.1266 369.619 51.065 367.624 52.5079 366.018C53.9508 364.412 55.8346 363.265 57.925 362.719L163.654 335.103C163.654 335.103 169.485 334.05 181.782 339.973C202.028 349.727 214.569 353.165 214.366 359.135Z" fill="#2F2E41"/>
<path d="M178.01 545.617L170.109 549.727L150.471 521.252L162.132 515.186L178.01 545.617Z" fill="#A0616A"/>
<path d="M182.583 553.702L158.287 566.343L158.126 566.036C156.82 563.531 156.563 560.611 157.412 557.918C158.262 555.224 160.148 552.978 162.656 551.673L165.34 546.001L175.375 545.056L177.496 543.952L182.583 553.702Z" fill="#2F2E41"/>
<path d="M194.163 357.548C197.709 364.957 192.454 392.657 185.771 399.714L183.997 400.919L183.397 401.231C179.388 414.772 136.365 454.377 136.365 454.377C150.897 472.863 159.954 495.591 165.733 520.858L152.823 526.814L105.522 456.305C104.284 454.458 103.634 452.28 103.658 450.057C103.682 447.834 104.38 445.671 105.659 443.852L124.956 416.405L156.399 355.589C178.867 354.897 191.58 352.159 194.163 357.548Z" fill="#2F2E41"/>
<path d="M213.279 362.018C145.369 351.706 139.182 342.432 138.518 342.597L137.929 342.743L147.767 326.138L151.376 321.881L148.6 319.9L149.702 311.671C150.561 308.337 151.256 304.411 150.886 303.885C150.12 303.039 148.416 301.501 148.4 301.486L148.18 301.288L150.738 295.329L154.163 247.688L162.994 230.109L181.22 219.319L197.286 219.514L211.404 232.59C217.398 235.469 222.274 240.242 225.274 246.17C228.275 252.097 229.233 258.848 228 265.375L220.828 303.198L218.19 322.693L222.495 326.991L219.816 329.666L218.224 338.774L219.855 349.088C221.13 358.46 215.461 359.019 215.042 359.135C215.017 359.143 213.786 362.362 213.734 362.362C213.603 362.362 213.592 362.065 213.279 362.018Z" fill="#FFF89A"/>
<path d="M209.714 399.623C210.489 398.866 211.089 397.949 211.471 396.936C211.854 395.923 212.009 394.839 211.926 393.76C211.843 392.681 211.524 391.633 210.992 390.69C210.459 389.747 209.726 388.932 208.845 388.302L216.294 363.063L203.198 367.057L198.131 390.412C197.171 391.961 196.812 393.809 197.125 395.605C197.437 397.4 198.398 399.019 199.825 400.154C201.253 401.29 203.048 401.863 204.871 401.765C206.693 401.667 208.416 400.904 209.714 399.623Z" fill="#A0616A"/>
<path d="M210.923 382.11L196.767 375.77L208.122 328.685L186.976 277.428C185.93 274.895 185.457 272.162 185.588 269.425C185.719 266.688 186.452 264.014 187.735 261.591C189.018 259.169 190.819 257.059 193.011 255.409C195.202 253.76 197.731 252.613 200.416 252.05C205.268 251.037 210.324 251.988 214.474 254.693C218.625 257.398 221.532 261.637 222.556 266.479L235.417 327.584L210.923 382.11Z" fill="#FFF89A"/>
<path d="M155.03 202.252L160.204 180.764C160.382 180.029 160.844 179.394 161.49 178.999C162.136 178.604 162.912 178.482 163.649 178.658L168.339 179.784C169.075 179.961 169.71 180.423 170.106 181.068C170.501 181.713 170.624 182.488 170.448 183.223L165.274 204.711C165.096 205.446 164.633 206.081 163.988 206.476C163.342 206.871 162.566 206.994 161.829 206.818L157.139 205.692C156.403 205.514 155.767 205.052 155.372 204.407C154.977 203.762 154.853 202.987 155.03 202.252Z" fill="#3F3D56"/>
<path d="M163.933 179.885C163.536 179.791 163.118 179.857 162.77 180.07C162.422 180.283 162.173 180.624 162.077 181.02L156.903 202.509C156.808 202.905 156.874 203.323 157.087 203.67C157.3 204.018 157.643 204.267 158.039 204.362L162.729 205.488C163.126 205.583 163.545 205.517 163.893 205.304C164.241 205.091 164.49 204.749 164.586 204.353L169.76 182.865C169.855 182.469 169.789 182.051 169.576 181.704C169.362 181.356 169.02 181.107 168.623 181.012L163.933 179.885Z" fill="#FFF89A"/>
<path d="M185.633 215.803C198.319 215.803 208.603 205.534 208.603 192.867C208.603 180.2 198.319 169.931 185.633 169.931C172.947 169.931 162.663 180.2 162.663 192.867C162.663 205.534 172.947 215.803 185.633 215.803Z" fill="#A0616A"/>
<path d="M196.229 208.203L197.056 203.557C197.564 200.477 197.036 197.314 195.553 194.565C194.071 191.816 191.718 189.635 188.862 188.363L188.153 188.02L188.738 187.708C188.924 187.609 189.069 187.448 189.148 187.253C189.227 187.058 189.236 186.841 189.172 186.641C189.108 186.44 188.976 186.268 188.799 186.155C188.621 186.041 188.409 185.993 188.2 186.019L187.536 186.102C187.084 186.157 186.625 186.081 186.215 185.881C185.805 185.682 185.462 185.369 185.226 184.979C184.99 184.59 184.872 184.14 184.887 183.685C184.901 183.23 185.047 182.789 185.307 182.415C183.013 183.364 180.567 183.889 178.086 183.965C174.495 183.938 171.376 182.191 170.138 179.513C169.837 178.847 169.651 178.135 169.59 177.406C165.797 178.899 163.752 183.372 163.731 183.419L162.609 185.918L163.089 183.222C163.104 183.14 164.572 174.975 166.7 169.91C168.989 164.463 178.516 161.593 192.827 162.047C206.806 162.485 209.907 178.4 210.173 179.94C214.145 183.756 212.702 190.98 211.48 194.964C209.502 201.417 205.599 207.838 203.448 208.176C203.256 208.212 203.057 208.19 202.876 208.114C202.696 208.037 202.543 207.909 202.435 207.745C202.22 207.403 201.934 207.111 201.597 206.888C201.26 206.664 200.88 206.515 200.481 206.449C198.743 206.203 196.949 207.625 196.931 207.64L196.229 208.203Z" fill="#2F2E41"/>
<path d="M164.332 566.793L-22.195 567C-22.4082 566.999 -22.6124 566.915 -22.763 566.764C-22.9135 566.613 -22.998 566.409 -22.998 566.196C-22.998 565.983 -22.9135 565.779 -22.763 565.628C-22.6124 565.477 -22.4082 565.392 -22.195 565.392L164.332 565.184C164.545 565.184 164.75 565.269 164.901 565.42C165.052 565.57 165.137 565.775 165.137 565.988C165.137 566.202 165.052 566.406 164.901 566.557C164.75 566.708 164.545 566.793 164.332 566.793Z" fill="#CACACA"/>
</g>
</g>
<defs>
<clipPath id="clip0_1965_9136">
<rect width="741" height="741" fill="white"/>
</clipPath>
<clipPath id="clip1_1965_9136">
<rect width="185" height="403" fill="white" transform="translate(465 163)"/>
</clipPath>
<clipPath id="clip2_1965_9136">
<rect width="525" height="405" fill="white" transform="translate(0 162)"/>
</clipPath>
</defs>
</svg>
