<svg width="741" height="741" viewBox="0 0 741 741" fill="none" xmlns="http://www.w3.org/2000/svg">
<path d="M170.194 526.213C170.078 526.213 169.966 526.259 169.882 526.34C169.799 526.421 169.75 526.531 169.746 526.648C169.746 526.652 169.746 526.657 169.746 526.661C169.746 526.75 169.772 526.837 169.822 526.91C169.871 526.984 169.941 527.041 170.023 527.075C170.104 527.109 170.195 527.118 170.281 527.101C170.368 527.083 170.448 527.041 170.511 526.978C170.573 526.915 170.616 526.836 170.633 526.749C170.651 526.662 170.642 526.572 170.608 526.49C170.574 526.408 170.517 526.338 170.443 526.289C170.369 526.24 170.283 526.213 170.194 526.213ZM170.194 527.096C170.079 527.096 169.968 527.05 169.886 526.969C169.805 526.887 169.759 526.777 169.759 526.661C169.759 526.655 169.759 526.649 169.759 526.644C169.763 526.558 169.791 526.476 169.841 526.407C169.891 526.338 169.96 526.285 170.04 526.254C170.12 526.224 170.207 526.218 170.29 526.237C170.373 526.256 170.449 526.298 170.508 526.36C170.567 526.422 170.607 526.499 170.622 526.583C170.637 526.667 170.628 526.753 170.594 526.832C170.561 526.91 170.505 526.977 170.434 527.024C170.363 527.071 170.279 527.096 170.194 527.096Z" fill="#3F3D56"/>
<path d="M170.568 526.662C170.568 526.762 170.528 526.857 170.458 526.928C170.388 526.998 170.292 527.038 170.193 527.038C170.093 527.038 169.998 526.998 169.927 526.928C169.857 526.857 169.817 526.762 169.817 526.662C169.817 526.651 169.818 526.639 169.819 526.627C169.828 526.531 169.874 526.442 169.947 526.379C170.019 526.316 170.114 526.283 170.21 526.288C170.307 526.292 170.398 526.334 170.464 526.403C170.531 526.473 170.568 526.566 170.568 526.662Z" fill="#E6E6E6"/>
<path d="M170.303 526.687C170.294 526.675 170.283 526.665 170.27 526.659C170.253 526.652 170.236 526.647 170.219 526.643V526.542C170.246 526.546 170.27 526.558 170.291 526.576L170.311 526.532C170.299 526.522 170.286 526.513 170.272 526.508C170.256 526.501 170.239 526.497 170.222 526.495V526.444H170.176V526.495C170.158 526.497 170.141 526.503 170.126 526.513C170.112 526.521 170.1 526.533 170.091 526.547C170.083 526.56 170.079 526.576 170.079 526.592C170.078 526.61 170.083 526.627 170.093 526.641C170.102 526.653 170.114 526.663 170.128 526.669C170.145 526.676 170.162 526.682 170.179 526.687V526.783C170.148 526.78 170.118 526.768 170.094 526.748L170.074 526.791C170.088 526.803 170.103 526.812 170.12 526.818C170.138 526.824 170.157 526.829 170.176 526.83V526.88H170.222V526.829C170.248 526.826 170.272 526.815 170.291 526.797C170.299 526.789 170.306 526.779 170.31 526.768C170.315 526.757 170.317 526.745 170.317 526.734C170.317 526.717 170.313 526.7 170.303 526.687ZM170.179 526.632C170.168 526.629 170.158 526.623 170.149 526.615C170.145 526.612 170.142 526.608 170.14 526.603C170.138 526.599 170.137 526.594 170.138 526.589C170.137 526.578 170.141 526.567 170.149 526.559C170.157 526.55 170.168 526.545 170.179 526.543V526.632ZM170.248 526.765C170.24 526.773 170.23 526.779 170.219 526.78V526.698C170.23 526.701 170.24 526.706 170.248 526.712C170.251 526.715 170.254 526.719 170.256 526.723C170.258 526.727 170.258 526.731 170.258 526.736C170.259 526.746 170.255 526.757 170.248 526.765Z" fill="#01518D"/>
<path d="M130.194 409.784C130.078 409.784 129.966 409.829 129.882 409.91C129.799 409.991 129.75 410.102 129.746 410.218C129.746 410.222 129.746 410.227 129.746 410.232C129.746 410.32 129.772 410.407 129.822 410.48C129.871 410.554 129.941 410.612 130.023 410.645C130.104 410.679 130.195 410.688 130.281 410.671C130.368 410.654 130.448 410.611 130.511 410.548C130.573 410.486 130.616 410.406 130.633 410.319C130.651 410.232 130.642 410.142 130.608 410.06C130.574 409.978 130.517 409.908 130.443 409.859C130.369 409.81 130.283 409.784 130.194 409.784ZM130.194 410.667C130.079 410.667 129.968 410.621 129.886 410.539C129.805 410.458 129.759 410.347 129.759 410.232C129.759 410.226 129.759 410.22 129.759 410.214C129.763 410.129 129.791 410.046 129.841 409.977C129.891 409.908 129.96 409.855 130.04 409.825C130.12 409.795 130.207 409.788 130.29 409.807C130.373 409.826 130.449 409.869 130.508 409.93C130.567 409.992 130.607 410.069 130.622 410.153C130.637 410.237 130.628 410.324 130.594 410.402C130.561 410.481 130.505 410.548 130.434 410.595C130.363 410.642 130.279 410.667 130.194 410.667Z" fill="#3F3D56"/>
<path d="M130.57 410.231C130.57 410.331 130.53 410.426 130.46 410.497C130.39 410.567 130.294 410.607 130.195 410.607C130.095 410.607 130 410.567 129.929 410.497C129.859 410.426 129.819 410.331 129.819 410.231C129.819 410.219 129.82 410.208 129.821 410.196C129.83 410.1 129.876 410.011 129.949 409.948C130.021 409.885 130.116 409.852 130.212 409.856C130.309 409.861 130.4 409.902 130.466 409.972C130.533 410.042 130.57 410.135 130.57 410.231Z" fill="#E6E6E6"/>
<path d="M130.302 410.256C130.293 410.245 130.282 410.235 130.269 410.229C130.252 410.222 130.235 410.217 130.218 410.212V410.112C130.245 410.116 130.269 410.128 130.29 410.145L130.31 410.102C130.298 410.092 130.285 410.083 130.271 410.077C130.255 410.071 130.238 410.067 130.221 410.065V410.014H130.175V410.065C130.157 410.067 130.14 410.073 130.125 410.082C130.111 410.091 130.099 410.102 130.09 410.117C130.082 410.13 130.078 410.146 130.078 410.162C130.077 410.179 130.082 410.197 130.092 410.211C130.101 410.223 130.113 410.233 130.127 410.239C130.144 410.246 130.161 410.252 130.178 410.256V410.353C130.147 410.35 130.117 410.338 130.093 410.318L130.073 410.361C130.087 410.373 130.102 410.382 130.119 410.388C130.137 410.394 130.156 410.398 130.175 410.4V410.45H130.221V410.399C130.247 410.396 130.271 410.385 130.29 410.367C130.298 410.358 130.305 410.349 130.309 410.338C130.314 410.327 130.316 410.315 130.316 410.304C130.316 410.287 130.312 410.27 130.302 410.256ZM130.178 410.202C130.167 410.198 130.157 410.193 130.148 410.185C130.144 410.182 130.141 410.178 130.139 410.173C130.137 410.169 130.136 410.164 130.137 410.159C130.136 410.148 130.14 410.137 130.148 410.129C130.156 410.12 130.167 410.115 130.178 410.113V410.202ZM130.247 410.335C130.239 410.343 130.229 410.348 130.218 410.35V410.267C130.229 410.27 130.239 410.275 130.247 410.282C130.25 410.285 130.253 410.289 130.255 410.293C130.257 410.297 130.257 410.301 130.257 410.305C130.258 410.316 130.254 410.327 130.247 410.335Z" fill="#01518D"/>
<path d="M156.966 356.046C156.849 356.046 156.737 356.092 156.654 356.173C156.57 356.254 156.521 356.364 156.518 356.481C156.518 356.485 156.518 356.49 156.518 356.494C156.518 356.583 156.544 356.67 156.593 356.743C156.642 356.817 156.712 356.874 156.794 356.908C156.876 356.942 156.966 356.951 157.053 356.934C157.14 356.916 157.22 356.874 157.282 356.811C157.345 356.748 157.388 356.669 157.405 356.582C157.422 356.495 157.413 356.405 157.379 356.323C157.345 356.241 157.288 356.171 157.214 356.122C157.141 356.073 157.054 356.046 156.966 356.046ZM156.966 356.929C156.85 356.929 156.74 356.883 156.658 356.802C156.576 356.72 156.53 356.61 156.53 356.494C156.53 356.488 156.531 356.482 156.531 356.477C156.534 356.391 156.563 356.309 156.613 356.24C156.662 356.171 156.732 356.118 156.811 356.087C156.891 356.057 156.978 356.051 157.061 356.07C157.144 356.089 157.22 356.131 157.279 356.193C157.338 356.255 157.378 356.332 157.394 356.416C157.409 356.5 157.399 356.586 157.366 356.665C157.332 356.743 157.277 356.81 157.205 356.857C157.134 356.904 157.051 356.929 156.966 356.929Z" fill="#3F3D56"/>
<path d="M157.34 356.494C157.34 356.594 157.301 356.689 157.231 356.76C157.16 356.83 157.065 356.87 156.965 356.87C156.866 356.87 156.77 356.83 156.7 356.76C156.629 356.689 156.59 356.594 156.59 356.494C156.59 356.483 156.59 356.471 156.591 356.459C156.601 356.363 156.646 356.274 156.719 356.211C156.792 356.148 156.886 356.115 156.983 356.12C157.079 356.124 157.17 356.166 157.237 356.235C157.303 356.305 157.34 356.398 157.34 356.494Z" fill="#E6E6E6"/>
<path d="M157.074 356.52C157.066 356.508 157.054 356.499 157.041 356.493C157.025 356.485 157.008 356.48 156.991 356.476V356.375C157.017 356.379 157.042 356.391 157.062 356.409L157.082 356.365C157.071 356.355 157.058 356.346 157.043 356.341C157.027 356.334 157.011 356.33 156.994 356.328V356.277H156.948V356.328C156.93 356.33 156.913 356.336 156.897 356.346C156.883 356.354 156.871 356.366 156.863 356.38C156.855 356.393 156.851 356.409 156.851 356.425C156.85 356.443 156.855 356.46 156.865 356.474C156.874 356.486 156.886 356.496 156.9 356.502C156.916 356.509 156.933 356.515 156.951 356.52V356.616C156.92 356.613 156.89 356.601 156.866 356.581L156.846 356.625C156.859 356.636 156.875 356.645 156.891 356.651C156.909 356.657 156.928 356.662 156.948 356.663V356.713H156.994V356.662C157.02 356.659 157.044 356.648 157.062 356.63C157.071 356.622 157.077 356.612 157.082 356.601C157.086 356.59 157.088 356.578 157.088 356.567C157.089 356.55 157.084 356.533 157.074 356.52ZM156.951 356.465C156.94 356.462 156.929 356.456 156.92 356.448C156.916 356.445 156.914 356.441 156.912 356.436C156.91 356.432 156.909 356.427 156.909 356.422C156.909 356.411 156.913 356.4 156.92 356.392C156.929 356.383 156.939 356.378 156.951 356.376V356.465ZM157.02 356.598C157.012 356.606 157.002 356.612 156.991 356.613V356.531C157.001 356.534 157.011 356.539 157.02 356.545C157.023 356.548 157.026 356.552 157.027 356.556C157.029 356.56 157.03 356.564 157.03 356.569C157.03 356.579 157.027 356.59 157.02 356.598Z" fill="#01518D"/>
<path d="M371.175 176.922C371.058 176.922 370.946 176.968 370.863 177.049C370.779 177.13 370.73 177.24 370.727 177.357C370.727 177.361 370.727 177.366 370.727 177.37C370.727 177.459 370.753 177.546 370.802 177.619C370.851 177.693 370.921 177.75 371.003 177.784C371.085 177.818 371.175 177.827 371.262 177.81C371.349 177.792 371.429 177.75 371.491 177.687C371.554 177.624 371.597 177.545 371.614 177.458C371.631 177.371 371.622 177.281 371.588 177.199C371.554 177.117 371.497 177.047 371.423 176.998C371.35 176.949 371.263 176.922 371.175 176.922ZM371.175 177.805C371.059 177.805 370.949 177.759 370.867 177.678C370.785 177.596 370.739 177.486 370.739 177.37C370.739 177.364 370.739 177.358 370.74 177.353C370.743 177.267 370.772 177.185 370.822 177.116C370.871 177.047 370.941 176.994 371.02 176.963C371.1 176.933 371.187 176.927 371.27 176.946C371.353 176.965 371.429 177.007 371.488 177.069C371.547 177.13 371.587 177.208 371.603 177.292C371.618 177.376 371.608 177.462 371.575 177.541C371.541 177.619 371.486 177.686 371.414 177.733C371.343 177.78 371.26 177.805 371.175 177.805Z" fill="#3F3D56"/>
<path d="M371.549 177.37C371.549 177.47 371.51 177.565 371.44 177.636C371.369 177.706 371.274 177.746 371.174 177.746C371.075 177.746 370.979 177.706 370.909 177.636C370.838 177.565 370.799 177.47 370.799 177.37C370.799 177.359 370.799 177.347 370.8 177.335C370.81 177.239 370.855 177.15 370.928 177.087C371.001 177.024 371.095 176.991 371.192 176.996C371.288 177 371.379 177.042 371.446 177.111C371.512 177.181 371.549 177.274 371.549 177.37Z" fill="#E6E6E6"/>
<path d="M371.283 177.394C371.275 177.382 371.263 177.373 371.25 177.367C371.234 177.36 371.217 177.354 371.2 177.35V177.25C371.226 177.254 371.251 177.265 371.271 177.283L371.291 177.24C371.28 177.229 371.267 177.221 371.252 177.215C371.236 177.209 371.22 177.204 371.203 177.202V177.151H371.157V177.203C371.139 177.205 371.122 177.211 371.106 177.22C371.092 177.228 371.08 177.24 371.072 177.254C371.064 177.268 371.06 177.284 371.06 177.3C371.059 177.317 371.064 177.334 371.074 177.349C371.083 177.361 371.095 177.371 371.109 177.377C371.125 177.384 371.142 177.39 371.16 177.394V177.49C371.129 177.488 371.099 177.476 371.075 177.456L371.055 177.499C371.068 177.51 371.084 177.519 371.1 177.525C371.118 177.532 371.137 177.536 371.157 177.537V177.588H371.203V177.536C371.229 177.534 371.253 177.522 371.271 177.504C371.28 177.496 371.286 177.486 371.291 177.476C371.295 177.465 371.297 177.453 371.297 177.441C371.298 177.424 371.293 177.408 371.283 177.394ZM371.16 177.34C371.149 177.336 371.138 177.33 371.129 177.323C371.125 177.319 371.123 177.315 371.121 177.311C371.119 177.306 371.118 177.301 371.118 177.297C371.118 177.285 371.122 177.275 371.129 177.267C371.138 177.258 371.148 177.252 371.16 177.25V177.34ZM371.229 177.472C371.221 177.481 371.211 177.486 371.2 177.488V177.405C371.21 177.408 371.22 177.413 371.229 177.42C371.232 177.423 371.235 177.426 371.236 177.43C371.238 177.434 371.239 177.439 371.239 177.443C371.239 177.454 371.236 177.464 371.229 177.472Z" fill="#01518D"/>
<path d="M559.391 356.045C559.275 356.045 559.163 356.091 559.08 356.172C558.996 356.253 558.947 356.363 558.944 356.48C558.943 356.484 558.943 356.489 558.943 356.493C558.943 356.582 558.97 356.669 559.019 356.742C559.068 356.816 559.138 356.873 559.22 356.907C559.302 356.941 559.392 356.95 559.479 356.933C559.566 356.915 559.645 356.873 559.708 356.81C559.771 356.747 559.813 356.668 559.831 356.581C559.848 356.494 559.839 356.404 559.805 356.322C559.771 356.24 559.714 356.17 559.64 356.121C559.567 356.072 559.48 356.045 559.391 356.045ZM559.391 356.928C559.276 356.928 559.165 356.882 559.084 356.801C559.002 356.719 558.956 356.609 558.956 356.493C558.956 356.487 558.956 356.482 558.957 356.476C558.96 356.39 558.988 356.308 559.038 356.239C559.088 356.17 559.157 356.117 559.237 356.086C559.317 356.056 559.404 356.05 559.487 356.069C559.57 356.088 559.646 356.13 559.705 356.192C559.764 356.254 559.804 356.331 559.819 356.415C559.835 356.499 559.825 356.585 559.792 356.664C559.758 356.742 559.702 356.809 559.631 356.856C559.56 356.903 559.477 356.928 559.391 356.928Z" fill="#3F3D56"/>
<path d="M559.766 356.493C559.766 356.593 559.727 356.688 559.656 356.759C559.586 356.829 559.49 356.869 559.391 356.869C559.291 356.869 559.196 356.829 559.126 356.759C559.055 356.688 559.016 356.593 559.016 356.493C559.016 356.482 559.016 356.47 559.017 356.458C559.026 356.362 559.072 356.273 559.145 356.21C559.218 356.147 559.312 356.114 559.409 356.119C559.505 356.123 559.596 356.165 559.662 356.234C559.729 356.304 559.766 356.397 559.766 356.493Z" fill="#E6E6E6"/>
<path d="M559.5 356.519C559.492 356.507 559.48 356.498 559.467 356.492C559.45 356.485 559.434 356.479 559.416 356.475V356.374C559.443 356.378 559.468 356.39 559.488 356.408L559.508 356.364C559.497 356.354 559.483 356.345 559.469 356.34C559.453 356.333 559.437 356.329 559.42 356.327V356.276H559.373V356.327C559.356 356.329 559.338 356.335 559.323 356.345C559.309 356.353 559.297 356.365 559.289 356.379C559.281 356.392 559.276 356.408 559.277 356.424C559.276 356.442 559.281 356.459 559.291 356.473C559.3 356.485 559.312 356.495 559.325 356.501C559.342 356.508 559.359 356.514 559.377 356.519V356.615C559.345 356.612 559.316 356.6 559.291 356.58L559.271 356.624C559.285 356.635 559.3 356.644 559.317 356.65C559.335 356.657 559.354 356.661 559.373 356.662V356.712H559.42V356.661C559.445 356.658 559.469 356.647 559.488 356.629C559.497 356.621 559.503 356.611 559.508 356.6C559.512 356.589 559.514 356.577 559.514 356.566C559.515 356.549 559.51 356.532 559.5 356.519ZM559.377 356.464C559.365 356.461 559.355 356.455 559.346 356.447C559.342 356.444 559.339 356.44 559.337 356.435C559.336 356.431 559.335 356.426 559.335 356.421C559.335 356.41 559.339 356.399 559.346 356.391C559.354 356.382 559.365 356.377 559.377 356.375V356.464ZM559.445 356.597C559.438 356.605 559.427 356.611 559.416 356.612V356.53C559.427 356.533 559.437 356.538 559.445 356.545C559.449 356.547 559.451 356.551 559.453 356.555C559.455 356.559 559.456 356.563 559.455 356.568C559.456 356.578 559.452 356.589 559.445 356.597Z" fill="#01518D"/>
<path d="M533.399 535.17C533.283 535.17 533.171 535.216 533.087 535.297C533.004 535.378 532.955 535.488 532.951 535.605C532.951 535.609 532.951 535.614 532.951 535.618C532.951 535.707 532.977 535.794 533.027 535.867C533.076 535.941 533.146 535.998 533.228 536.032C533.31 536.066 533.4 536.075 533.487 536.058C533.573 536.04 533.653 535.998 533.716 535.935C533.779 535.872 533.821 535.793 533.838 535.706C533.856 535.619 533.847 535.529 533.813 535.447C533.779 535.365 533.722 535.295 533.648 535.246C533.574 535.197 533.488 535.17 533.399 535.17ZM533.399 536.053C533.284 536.053 533.173 536.007 533.092 535.926C533.01 535.844 532.964 535.734 532.964 535.618C532.964 535.612 532.964 535.607 532.964 535.601C532.968 535.515 532.996 535.433 533.046 535.364C533.096 535.295 533.165 535.242 533.245 535.211C533.325 535.181 533.412 535.175 533.495 535.194C533.578 535.213 533.654 535.255 533.713 535.317C533.772 535.379 533.812 535.456 533.827 535.54C533.843 535.624 533.833 535.71 533.799 535.789C533.766 535.867 533.71 535.934 533.639 535.981C533.568 536.028 533.484 536.053 533.399 536.053Z" fill="#3F3D56"/>
<path d="M533.776 535.617C533.776 535.717 533.736 535.812 533.666 535.883C533.596 535.953 533.5 535.993 533.401 535.993C533.301 535.993 533.206 535.953 533.135 535.883C533.065 535.812 533.025 535.717 533.025 535.617C533.025 535.606 533.026 535.594 533.027 535.582C533.036 535.486 533.082 535.397 533.155 535.334C533.227 535.271 533.322 535.238 533.418 535.243C533.515 535.247 533.606 535.289 533.672 535.358C533.739 535.428 533.776 535.521 533.776 535.617Z" fill="#E6E6E6"/>
<path d="M533.508 535.642C533.499 535.63 533.488 535.621 533.475 535.615C533.458 535.608 533.441 535.602 533.424 535.598V535.498C533.451 535.502 533.475 535.513 533.496 535.531L533.516 535.488C533.504 535.477 533.491 535.469 533.477 535.463C533.461 535.457 533.444 535.452 533.427 535.45V535.399H533.381V535.451C533.363 535.453 533.346 535.459 533.331 535.468C533.317 535.476 533.305 535.488 533.296 535.502C533.288 535.516 533.284 535.532 533.284 535.548C533.284 535.565 533.288 535.582 533.298 535.597C533.307 535.609 533.319 535.619 533.333 535.625C533.35 535.632 533.367 535.638 533.384 535.642V535.738C533.353 535.736 533.323 535.724 533.299 535.704L533.279 535.747C533.293 535.758 533.308 535.767 533.325 535.773C533.343 535.78 533.362 535.784 533.381 535.785V535.836H533.427V535.784C533.453 535.782 533.477 535.77 533.496 535.752C533.504 535.744 533.511 535.734 533.515 535.724C533.52 535.713 533.522 535.701 533.522 535.689C533.522 535.672 533.518 535.656 533.508 535.642ZM533.384 535.588C533.373 535.584 533.363 535.578 533.354 535.571C533.35 535.567 533.347 535.563 533.345 535.559C533.343 535.554 533.343 535.549 533.343 535.545C533.342 535.533 533.346 535.523 533.354 535.515C533.362 535.506 533.373 535.5 533.384 535.498V535.588ZM533.453 535.721C533.445 535.729 533.435 535.734 533.424 535.736V535.653C533.435 535.656 533.445 535.661 533.453 535.668C533.457 535.671 533.459 535.674 533.461 535.678C533.463 535.682 533.463 535.687 533.463 535.691C533.464 535.702 533.46 535.712 533.453 535.721Z" fill="#01518D"/>
<path d="M370.162 584.564C574.597 584.564 740.324 567.052 740.324 545.449C740.324 523.847 574.597 506.334 370.162 506.334C165.727 506.334 0 523.847 0 545.449C0 567.052 165.727 584.564 370.162 584.564Z" fill="#E6E6E6"/>
<path d="M343.302 376.543C341.123 376.647 338.989 375.904 337.346 374.469C335.704 373.035 334.681 371.021 334.492 368.849L333.231 354.365L344.031 350.44L350.564 364.584C351.143 365.839 351.405 367.216 351.327 368.595C351.249 369.974 350.833 371.313 350.116 372.494C349.399 373.675 348.402 374.662 347.214 375.368C346.026 376.074 344.683 376.477 343.302 376.543Z" fill="#FFB9B9"/>
<path d="M291.997 207.207C303.384 207.207 312.614 197.983 312.614 186.605C312.614 175.226 303.384 166.002 291.997 166.002C280.611 166.002 271.38 175.226 271.38 186.605C271.38 197.983 280.611 207.207 291.997 207.207Z" fill="#FFB9B9"/>
<path d="M297.887 232.714L262.543 223.884C270.202 212.399 275.09 201.672 274.324 192.491H296.905C295.494 207.38 295.495 221.066 297.887 232.714Z" fill="#FFB9B9"/>
<path d="M309.669 357.307H255.672C244.387 300.555 247.26 252.082 266.471 214.073C267.042 212.705 267.348 211.241 267.372 209.759C267.417 209.233 267.591 208.727 267.879 208.285C268.167 207.843 268.559 207.479 269.022 207.225C269.484 206.971 270.002 206.835 270.53 206.829C271.058 206.823 271.579 206.947 272.047 207.191C280.06 211.346 288.588 214.422 297.409 216.339C297.904 216.447 298.366 216.67 298.757 216.991C299.149 217.311 299.459 217.72 299.662 218.183C299.865 218.646 299.956 219.151 299.927 219.656C299.897 220.16 299.749 220.651 299.493 221.088C299.199 221.485 298.992 221.938 298.885 222.42C298.778 222.901 298.773 223.4 298.87 223.884C311.709 267.125 315.387 312.566 309.669 357.307Z" fill="#8AD2FF"/>
<path d="M303.778 522.126L288.07 524.088L278.252 384.778L244.872 520.164L228.182 521.145L244.872 347.498H312.614L303.778 522.126Z" fill="#2F2E41"/>
<path d="M246.571 552.529L234.994 553.58C227.168 551.242 228.735 542.495 227.473 532.46L229.234 518.38L231.699 517.869C235.32 510.518 239.453 509.795 244.19 516.871L245.562 516.62L247.323 528.06L252.144 544.32C252.414 545.229 252.478 546.188 252.333 547.125C252.187 548.063 251.835 548.957 251.302 549.742C250.769 550.527 250.068 551.184 249.25 551.666C248.432 552.148 247.517 552.443 246.571 552.529Z" fill="#2F2E41"/>
<path d="M305.479 552.529L293.901 553.58C286.075 551.242 287.642 542.495 286.38 532.46L288.141 518.38L290.606 517.869C294.227 510.518 298.361 509.795 303.097 516.871L304.469 516.62L306.23 528.06L311.051 544.32C311.321 545.229 311.385 546.188 311.24 547.125C311.094 548.063 310.742 548.957 310.209 549.742C309.676 550.527 308.975 551.184 308.157 551.666C307.339 552.148 306.424 552.443 305.479 552.529Z" fill="#2F2E41"/>
<path d="M309.519 184.82L300.299 178.84C298.84 177.893 297.186 177.29 295.461 177.074C293.735 176.858 291.983 177.035 290.336 177.593C288.689 178.15 287.189 179.073 285.95 180.292C284.711 181.512 283.764 182.995 283.181 184.633L277.762 199.849L273.834 197.886C266.892 185.892 263.607 174.503 274.816 165.512C277.835 158.22 288.46 155.552 296.341 156.06C306.045 156.686 316.051 164.623 316.051 174.341L314.761 181.383C314.871 182.038 314.788 182.711 314.522 183.32C314.256 183.928 313.818 184.446 313.262 184.811C312.707 185.175 312.057 185.37 311.392 185.372C310.727 185.373 310.076 185.182 309.519 184.82Z" fill="#2F2E41"/>
<path d="M283.161 399.494L219.346 387.721C237.223 332.847 244.761 279.289 234.177 228.041C233.669 225.61 234.132 223.076 235.468 220.982C236.803 218.888 238.905 217.398 241.325 216.831L261.562 212.112L272.361 204.264L283.161 218.98V399.494Z" fill="#2F2E41"/>
<path d="M319.487 395.569L299.852 400.474C304.715 347.086 300.585 287.769 291.016 224.865L295.924 214.074L300.342 217.507L316.201 234.776C317.512 235.649 318.586 236.835 319.325 238.226C320.065 239.617 320.447 241.17 320.437 242.745L319.487 395.569Z" fill="#2F2E41"/>
<path d="M345.995 351.421L330.286 359.27L301.815 290.596L316.542 250.373L345.995 351.421Z" fill="#2F2E41"/>
<path d="M254.56 338.546C252.637 339.574 250.39 339.819 248.29 339.228C246.19 338.637 244.401 337.257 243.298 335.377L235.936 322.836L244.003 314.659L255.98 324.63C257.042 325.514 257.871 326.645 258.393 327.924C258.915 329.203 259.114 330.591 258.974 331.965C258.834 333.339 258.358 334.658 257.588 335.806C256.819 336.953 255.779 337.894 254.56 338.546Z" fill="#FFB9B9"/>
<path d="M244.872 312.18L237.999 332.782C219.325 321.309 206.225 305.695 201.674 283.73L219.045 233.918C220.609 229.433 223.397 225.474 227.093 222.488C230.789 219.502 235.247 217.607 239.963 217.018L241.927 264.109L228.182 287.654L244.872 312.18Z" fill="#2F2E41"/>
<path d="M456.447 184.955C456.447 184.955 445.893 181.188 439.109 196.254C432.324 211.319 421.771 227.891 421.771 227.891L427.801 229.398C427.801 229.398 429.309 218.852 433.078 217.345L431.57 230.904C431.57 230.904 476.8 246.723 497.153 229.398L496.399 224.125C496.399 224.125 499.415 224.878 499.415 229.398L501.676 227.138C501.676 227.138 499.415 222.618 492.63 216.592C488.177 212.637 486.647 205.112 486.121 200.407C485.727 196.478 484.154 192.761 481.609 189.741C477.1 184.52 468.885 178.97 456.447 184.955Z" fill="#2F2E41"/>
<path d="M390.878 506.943L387.29 525.769L396.262 530.252L402.542 525.769V506.943H390.878Z" fill="#FBBEBE"/>
<path d="M453.678 506.943L457.267 525.769L448.295 530.252L442.015 525.769V506.943H453.678Z" fill="#FBBEBE"/>
<path d="M416.896 337.504L404.336 427.154L386.393 508.736L407.925 511.426L424.971 435.222L446.503 370.674L443.811 447.774L439.326 511.426H455.474L467.137 425.361L480.034 361.373L479.697 337.504H416.896Z" fill="#2F2E41"/>
<path d="M393.569 523.977C393.569 523.977 389.083 518.598 386.392 521.287C383.7 523.977 377.42 534.735 377.42 534.735C377.42 534.735 363.065 542.803 374.728 544.596C386.392 546.389 389.98 544.596 389.98 543.7C389.98 542.803 391.775 540.114 391.775 540.114L396.26 541.01L402.54 539.217C402.54 539.217 405.232 522.699 402.54 523.338C399.849 523.977 394.466 526.666 393.569 523.977Z" fill="#2F2E41"/>
<path d="M450.987 523.977C450.987 523.977 455.473 518.598 458.165 521.287C460.856 523.977 467.136 534.735 467.136 534.735C467.136 534.735 481.491 542.803 469.828 544.596C458.164 546.389 454.576 544.596 454.576 543.7C454.576 542.803 452.782 540.114 452.782 540.114L448.296 541.01L442.016 539.217C442.016 539.217 439.324 522.699 442.016 523.338C444.707 523.977 450.09 526.666 450.987 523.977Z" fill="#2F2E41"/>
<path d="M459.511 231.268C469.42 231.268 477.454 223.24 477.454 213.338C477.454 203.435 469.42 195.408 459.511 195.408C449.601 195.408 441.567 203.435 441.567 213.338C441.567 223.24 449.601 231.268 459.511 231.268Z" fill="#FBBEBE"/>
<path d="M471.623 224.543C471.623 224.543 469.829 239.784 470.726 243.37C471.623 246.956 473.417 252.335 473.417 252.335L444.708 246.956C444.708 246.956 452.782 229.922 450.988 227.232C449.194 224.543 471.623 224.543 471.623 224.543Z" fill="#FBBEBE"/>
<path d="M474.314 246.059L444.707 239.784L427.661 343.778C435.345 341.682 443.488 341.995 450.987 344.675C463.548 349.157 480.594 344.675 480.594 344.675L477.005 246.956L474.314 246.059Z" fill="#8AD2FF"/>
<path d="M450.737 231.548L440.221 237.095L426.764 239.784L412.409 273.852L414.203 298.057C414.203 298.057 398.952 325.849 397.157 341.089C397.157 341.089 398.952 364.399 428.558 363.502L448.295 308.815C448.295 308.815 456.37 267.576 448.295 255.921C448.295 255.921 454.076 234.069 450.737 231.548Z" fill="#2F2E41"/>
<path d="M432.147 239.784L429.242 239.289L426.764 239.784C426.764 239.784 420.484 240.681 413.306 246.956C406.129 253.232 381.906 272.955 380.111 278.334C378.317 283.713 379.214 292.678 381.906 298.057C384.597 303.436 389.98 310.608 389.98 310.608L392.672 316.884L407.923 312.401C407.923 312.401 398.054 293.575 398.952 285.506L416.895 271.162L432.147 239.784Z" fill="#2F2E41"/>
<path d="M470.629 235.6L484.183 252.335L491.36 261.3L482.388 291.781L477.903 317.78C477.903 317.78 488.668 359.019 479.697 371.57C479.697 371.57 474.314 377.845 472.52 370.673C470.725 363.501 470.725 329.434 470.725 329.434C470.725 329.434 463.548 284.609 467.137 272.954C470.725 261.3 466.944 237.692 470.629 235.6Z" fill="#2F2E41"/>
<path d="M483.285 365.296V374.261C483.285 374.261 481.491 403.846 490.462 400.26C499.434 396.674 493.154 374.261 493.154 374.261L492.257 364.399L483.285 365.296Z" fill="#FBBEBE"/>
<path d="M484.181 258.61L491.358 261.299L492.256 270.264L495.844 324.951L494.049 366.191L480.592 367.088L476.106 321.366L474.312 271.162L484.181 258.61Z" fill="#2F2E41"/>
<path d="M170.574 399.895C162.905 399.898 155.537 402.883 150.031 408.218C144.525 413.554 141.313 420.82 141.074 428.481C141.066 428.78 141.062 429.083 141.062 429.386C141.062 435.219 142.792 440.921 146.035 445.771C149.278 450.621 153.888 454.401 159.28 456.633C164.673 458.865 170.607 459.449 176.332 458.311C182.057 457.173 187.316 454.364 191.443 450.24C195.571 446.115 198.382 440.861 199.52 435.14C200.659 429.419 200.075 423.489 197.841 418.101C195.607 412.712 191.824 408.106 186.971 404.865C182.118 401.625 176.412 399.895 170.574 399.895ZM170.574 458.035C162.973 458.027 155.686 455.006 150.311 449.635C144.936 444.264 141.913 436.982 141.905 429.386C141.905 428.995 141.913 428.607 141.93 428.224C142.158 422.612 144.032 417.191 147.319 412.635C150.606 408.079 155.161 404.588 160.416 402.598C165.672 400.608 171.398 400.206 176.881 401.441C182.364 402.676 187.362 405.495 191.255 409.546C195.148 413.597 197.763 418.703 198.775 424.228C199.788 429.752 199.152 435.452 196.949 440.619C194.745 445.786 191.07 450.192 186.381 453.288C181.692 456.384 176.195 458.035 170.574 458.035Z" fill="#3F3D56"/>
<path d="M195.45 429.386C195.45 435.979 192.829 442.301 188.164 446.963C183.499 451.624 177.172 454.243 170.574 454.243C163.977 454.243 157.65 451.624 152.985 446.963C148.32 442.301 145.699 435.979 145.699 429.386C145.699 428.598 145.737 427.823 145.809 427.056C146.408 420.694 149.437 414.807 154.266 410.617C159.095 406.427 165.353 404.257 171.741 404.557C178.13 404.857 184.157 407.603 188.572 412.227C192.986 416.851 195.45 422.996 195.45 429.386Z" fill="#E6E6E6"/>
<path d="M177.982 431.038C177.379 430.245 176.586 429.618 175.676 429.213C174.554 428.741 173.395 428.36 172.21 428.076V421.31C174.031 421.584 175.738 422.362 177.139 423.555L178.513 420.627C177.723 419.923 176.815 419.363 175.832 418.971C174.742 418.53 173.597 418.237 172.429 418.099V414.67H169.246V418.133C168.017 418.271 166.832 418.669 165.768 419.3C164.807 419.868 163.999 420.66 163.411 421.609C162.85 422.534 162.56 423.598 162.572 424.68C162.517 425.853 162.857 427.01 163.538 427.966C164.164 428.795 164.991 429.45 165.941 429.871C167.081 430.357 168.26 430.748 169.466 431.038V437.522C167.317 437.36 165.271 436.544 163.601 435.183L162.227 438.116C163.16 438.887 164.222 439.489 165.363 439.893C166.614 440.341 167.921 440.613 169.246 440.702V444.102H172.43V440.639C174.198 440.446 175.856 439.686 177.156 438.474C177.728 437.925 178.181 437.263 178.484 436.531C178.787 435.798 178.935 435.011 178.918 434.218C178.971 433.083 178.641 431.963 177.982 431.038ZM169.466 427.36C168.69 427.125 167.969 426.738 167.345 426.222C167.097 426.002 166.902 425.73 166.772 425.426C166.642 425.121 166.582 424.792 166.594 424.461C166.571 423.711 166.847 422.982 167.362 422.435C167.932 421.86 168.668 421.479 169.466 421.343V427.36ZM174.209 436.325C173.671 436.876 172.971 437.241 172.21 437.366V431.788C172.937 431.982 173.617 432.322 174.209 432.786C174.433 432.978 174.612 433.217 174.73 433.487C174.849 433.757 174.906 434.05 174.896 434.345C174.925 435.068 174.68 435.775 174.209 436.325Z" fill="#8AD2FF"/>
<path d="M360.658 411.9C355.849 411.902 351.228 413.774 347.776 417.12C344.323 420.466 342.308 425.023 342.158 429.827C342.153 430.015 342.15 430.205 342.15 430.395C342.15 434.053 343.236 437.629 345.27 440.67C347.303 443.711 350.194 446.082 353.576 447.482C356.958 448.882 360.679 449.248 364.269 448.534C367.859 447.821 371.157 446.059 373.746 443.473C376.334 440.886 378.097 437.591 378.811 434.003C379.525 430.415 379.159 426.697 377.758 423.317C376.357 419.938 373.985 417.05 370.941 415.017C367.897 412.985 364.319 411.9 360.658 411.9ZM360.658 448.361C355.892 448.356 351.321 446.462 347.951 443.093C344.58 439.725 342.684 435.158 342.679 430.395C342.679 430.149 342.684 429.906 342.695 429.666C342.838 426.146 344.014 422.747 346.075 419.89C348.136 417.032 350.992 414.844 354.288 413.596C357.584 412.348 361.175 412.095 364.613 412.87C368.052 413.644 371.187 415.412 373.628 417.953C376.069 420.493 377.709 423.695 378.344 427.16C378.979 430.624 378.58 434.199 377.198 437.439C375.816 440.679 373.512 443.442 370.571 445.384C367.63 447.326 364.183 448.361 360.658 448.361Z" fill="#3F3D56"/>
<path d="M376.258 430.395C376.258 434.529 374.614 438.494 371.689 441.417C368.763 444.341 364.796 445.983 360.658 445.983C356.521 445.983 352.553 444.341 349.628 441.417C346.702 438.494 345.059 434.529 345.059 430.395C345.059 429.901 345.082 429.415 345.127 428.934C345.503 424.944 347.403 421.252 350.431 418.624C353.459 415.997 357.384 414.636 361.39 414.824C365.396 415.012 369.176 416.734 371.945 419.634C374.713 422.534 376.258 426.387 376.258 430.395Z" fill="#E6E6E6"/>
<path d="M365.304 431.431C364.926 430.934 364.429 430.54 363.858 430.286C363.154 429.99 362.427 429.751 361.685 429.573V425.33C362.826 425.502 363.897 425.99 364.776 426.738L365.638 424.902C365.142 424.461 364.573 424.109 363.956 423.864C363.272 423.587 362.555 423.403 361.822 423.317V421.166H359.826V423.338C359.055 423.424 358.312 423.674 357.645 424.07C357.042 424.426 356.535 424.923 356.167 425.518C355.815 426.098 355.633 426.765 355.641 427.444C355.606 428.179 355.819 428.904 356.246 429.504C356.639 430.024 357.157 430.435 357.753 430.699C358.468 431.004 359.208 431.249 359.964 431.431V435.497C358.616 435.395 357.333 434.883 356.286 434.03L355.424 435.869C356.009 436.353 356.675 436.73 357.391 436.984C358.175 437.265 358.995 437.435 359.826 437.491V439.624H361.822V437.452C362.931 437.331 363.971 436.854 364.786 436.094C365.145 435.75 365.429 435.335 365.619 434.875C365.809 434.416 365.902 433.922 365.891 433.425C365.925 432.713 365.718 432.011 365.304 431.431ZM359.964 429.124C359.477 428.977 359.025 428.734 358.634 428.411C358.478 428.273 358.356 428.102 358.274 427.911C358.193 427.72 358.155 427.514 358.163 427.306C358.149 426.836 358.322 426.379 358.644 426.035C359.002 425.675 359.463 425.436 359.964 425.351V429.124ZM362.938 434.746C362.601 435.092 362.162 435.321 361.685 435.399V431.901C362.141 432.023 362.567 432.236 362.938 432.527C363.079 432.647 363.191 432.797 363.265 432.967C363.34 433.136 363.375 433.32 363.369 433.505C363.387 433.958 363.233 434.402 362.938 434.746Z" fill="#8AD2FF"/>
<path d="M101.544 236.943C85.8149 236.949 70.7053 243.071 59.4134 254.013C48.1214 264.954 41.5333 279.857 41.0433 295.567C41.026 296.181 41.0176 296.803 41.0176 297.425C41.0176 309.387 44.5674 321.081 51.2181 331.027C57.8688 340.974 67.3218 348.726 78.3816 353.303C89.4413 357.881 101.611 359.079 113.352 356.745C125.093 354.412 135.878 348.651 144.343 340.193C152.808 331.734 158.572 320.957 160.908 309.225C163.243 297.492 162.044 285.331 157.463 274.28C152.882 263.228 145.124 253.782 135.171 247.136C125.217 240.49 113.515 236.943 101.544 236.943ZM101.544 356.179C85.9551 356.163 71.0092 349.968 59.9861 338.953C48.963 327.938 42.7631 313.003 42.7469 297.425C42.7469 296.622 42.7642 295.827 42.7988 295.04C43.267 283.531 47.1105 272.414 53.8512 263.07C60.5919 253.726 69.9325 246.568 80.7116 242.487C91.4906 238.405 103.233 237.58 114.477 240.113C125.722 242.646 135.974 248.427 143.957 256.736C151.94 265.044 157.304 275.515 159.38 286.845C161.456 298.175 160.153 309.865 155.634 320.462C151.114 331.058 143.578 340.093 133.961 346.444C124.344 352.794 113.071 356.18 101.544 356.179Z" fill="#3F3D56"/>
<path d="M152.559 297.425C152.559 310.946 147.184 323.912 137.617 333.472C128.05 343.032 115.074 348.403 101.544 348.403C88.0135 348.403 75.0375 343.032 65.4703 333.472C55.9031 323.912 50.5283 310.946 50.5283 297.425C50.5283 295.81 50.606 294.22 50.7529 292.647C51.9823 279.599 58.1937 267.525 68.0973 258.932C78.0008 250.34 90.8357 245.889 103.937 246.504C117.038 247.119 129.399 252.752 138.453 262.235C147.507 271.717 152.559 284.319 152.559 297.425Z" fill="#E6E6E6"/>
<path d="M116.736 300.812C115.499 299.187 113.873 297.9 112.007 297.071C109.705 296.101 107.328 295.321 104.899 294.738V280.861C108.632 281.424 112.133 283.019 115.007 285.467L117.826 279.462C116.204 278.018 114.343 276.869 112.326 276.066C110.091 275.161 107.744 274.56 105.348 274.277V267.244H98.8204V274.346C96.2996 274.629 93.8679 275.445 91.6869 276.74C89.7168 277.905 88.0583 279.53 86.8532 281.475C85.7031 283.373 85.1072 285.555 85.1327 287.774C85.0204 290.178 85.7175 292.551 87.1128 294.513C88.397 296.212 90.0931 297.556 92.0411 298.418C94.3797 299.416 96.7977 300.217 99.27 300.812V314.109C94.8645 313.777 90.6667 312.104 87.2424 309.314L84.4238 315.328C86.3385 316.909 88.5158 318.143 90.8569 318.974C93.4221 319.891 96.1021 320.449 98.8205 320.633V327.605H105.349V320.503C108.975 320.107 112.375 318.549 115.041 316.062C116.216 314.937 117.143 313.58 117.765 312.078C118.388 310.576 118.691 308.961 118.656 307.335C118.764 305.007 118.088 302.71 116.736 300.812ZM99.2701 293.269C97.6798 292.787 96.2013 291.994 94.9206 290.936C94.4131 290.485 94.012 289.927 93.7459 289.302C93.4799 288.678 93.3554 288.002 93.3816 287.324C93.3345 285.785 93.9004 284.291 94.9552 283.168C96.1246 281.991 97.6333 281.208 99.2701 280.93V293.269ZM108.998 311.655C107.894 312.786 106.458 313.534 104.899 313.79V302.35C106.389 302.749 107.783 303.446 108.998 304.398C109.458 304.79 109.823 305.282 110.067 305.835C110.311 306.389 110.427 306.99 110.407 307.594C110.467 309.077 109.963 310.528 108.998 311.655Z" fill="#8AD2FF"/>
<path d="M543.738 380.9C528.009 380.906 512.9 387.028 501.608 397.97C490.316 408.912 483.728 423.815 483.238 439.525C483.22 440.138 483.212 440.761 483.212 441.383C483.212 453.345 486.762 465.039 493.412 474.985C500.063 484.931 509.516 492.683 520.576 497.261C531.636 501.839 543.806 503.036 555.547 500.703C567.288 498.369 578.072 492.609 586.537 484.15C595.002 475.691 600.766 464.915 603.102 453.182C605.437 441.45 604.239 429.289 599.658 418.237C595.077 407.185 587.319 397.739 577.365 391.093C567.412 384.448 555.709 380.9 543.738 380.9ZM543.738 500.137C528.149 500.121 513.204 493.925 502.18 482.91C491.157 471.895 484.957 456.96 484.941 441.383C484.941 440.579 484.959 439.784 484.993 438.998C485.461 427.489 489.305 416.371 496.046 407.027C502.786 397.684 512.127 390.526 522.906 386.444C533.685 382.363 545.427 381.537 556.672 384.071C567.916 386.604 578.168 392.384 586.151 400.693C594.135 409.002 599.498 419.472 601.574 430.803C603.65 442.133 602.348 453.823 597.828 464.419C593.309 475.016 585.772 484.051 576.155 490.401C566.538 496.752 555.265 500.137 543.738 500.137Z" fill="#3F3D56"/>
<path d="M594.753 441.383C594.753 454.903 589.378 467.87 579.811 477.43C570.244 486.99 557.268 492.361 543.738 492.361C530.208 492.361 517.232 486.99 507.665 477.43C498.097 467.87 492.723 454.903 492.723 441.383C492.723 439.767 492.8 438.177 492.947 436.605C494.177 423.557 500.388 411.483 510.292 402.89C520.195 394.297 533.03 389.847 546.131 390.461C559.233 391.076 571.593 396.71 580.647 406.192C589.702 415.674 594.753 428.277 594.753 441.383Z" fill="#E6E6E6"/>
<path d="M558.93 444.769C557.694 443.145 556.067 441.858 554.201 441.028C551.899 440.059 549.522 439.278 547.093 438.695V424.819C550.826 425.381 554.328 426.977 557.201 429.424L560.02 423.419C558.399 421.976 556.538 420.827 554.52 420.023C552.285 419.119 549.938 418.517 547.543 418.235V411.202H541.015V418.304C538.494 418.587 536.062 419.403 533.881 420.697C531.911 421.863 530.253 423.487 529.047 425.432C527.897 427.33 527.302 429.512 527.327 431.731C527.215 434.136 527.912 436.508 529.307 438.471C530.591 440.169 532.287 441.513 534.235 442.376C536.574 443.374 538.992 444.175 541.464 444.769V458.067C537.059 457.735 532.861 456.061 529.437 453.271L526.618 459.285C528.533 460.867 530.71 462.101 533.051 462.931C535.616 463.849 538.296 464.407 541.015 464.59V471.563H547.543V464.461C551.169 464.065 554.569 462.507 557.236 460.019C558.41 458.894 559.338 457.537 559.96 456.035C560.582 454.533 560.885 452.918 560.85 451.293C560.959 448.965 560.283 446.668 558.93 444.769ZM541.464 437.226C539.874 436.744 538.396 435.951 537.115 434.893C536.607 434.442 536.206 433.884 535.94 433.26C535.674 432.636 535.55 431.96 535.576 431.282C535.529 429.743 536.095 428.248 537.15 427.126C538.319 425.948 539.828 425.166 541.464 424.888V437.226ZM551.192 455.613C550.089 456.743 548.652 457.491 547.093 457.747V446.307C548.584 446.707 549.978 447.403 551.192 448.355C551.652 448.748 552.018 449.239 552.262 449.793C552.506 450.346 552.622 450.948 552.601 451.552C552.661 453.035 552.158 454.486 551.192 455.613Z" fill="#8AD2FF"/>
<path d="M167.573 99.9829C154.964 99.9878 142.851 104.895 133.799 113.667C124.747 122.438 119.465 134.385 119.072 146.979C119.059 147.471 119.052 147.97 119.052 148.469C119.052 158.058 121.897 167.432 127.229 175.406C132.561 183.379 140.139 189.594 149.005 193.264C157.871 196.933 167.627 197.894 177.039 196.023C186.451 194.152 195.097 189.534 201.883 182.753C208.669 175.972 213.29 167.333 215.162 157.928C217.034 148.522 216.073 138.774 212.401 129.914C208.728 121.054 202.509 113.482 194.53 108.154C186.551 102.827 177.17 99.9829 167.573 99.9829ZM167.573 195.569C155.076 195.556 143.095 190.59 134.258 181.759C125.421 172.929 120.451 160.957 120.438 148.469C120.438 147.825 120.452 147.187 120.48 146.557C120.855 137.331 123.936 128.418 129.34 120.928C134.744 113.437 142.232 107.699 150.873 104.427C159.514 101.155 168.927 100.493 177.941 102.524C186.955 104.555 195.173 109.189 201.573 115.85C207.973 122.511 212.273 130.904 213.937 139.987C215.601 149.07 214.557 158.441 210.934 166.936C207.311 175.431 201.269 182.674 193.56 187.765C185.851 192.855 176.814 195.569 167.573 195.569Z" fill="#3F3D56"/>
<path d="M208.47 148.468C208.47 159.307 204.161 169.702 196.491 177.366C188.822 185.029 178.42 189.335 167.573 189.335C156.727 189.335 146.325 185.029 138.655 177.366C130.985 169.702 126.677 159.307 126.677 148.468C126.677 147.173 126.739 145.899 126.857 144.638C127.842 134.178 132.822 124.499 140.761 117.61C148.7 110.722 158.989 107.154 169.492 107.647C179.995 108.14 189.904 112.656 197.162 120.258C204.42 127.859 208.47 137.962 208.47 148.468Z" fill="#E6E6E6"/>
<path d="M179.752 151.184C178.76 149.881 177.456 148.85 175.96 148.184C174.115 147.407 172.209 146.782 170.262 146.314V135.19C173.255 135.641 176.062 136.92 178.365 138.882L180.625 134.068C179.326 132.911 177.834 131.99 176.217 131.346C174.424 130.621 172.543 130.139 170.623 129.912V124.274H165.39V129.968C163.369 130.194 161.419 130.848 159.671 131.886C158.092 132.82 156.762 134.123 155.796 135.682C154.874 137.204 154.396 138.953 154.417 140.731C154.327 142.659 154.886 144.561 156.004 146.134C157.034 147.496 158.393 148.573 159.955 149.265C161.83 150.065 163.768 150.707 165.75 151.184V161.843C162.218 161.577 158.853 160.236 156.108 157.999L153.849 162.82C155.383 164.088 157.129 165.077 159.006 165.743C161.062 166.479 163.211 166.926 165.39 167.073V172.663H170.623V166.969C173.53 166.652 176.256 165.403 178.393 163.409C179.335 162.507 180.078 161.419 180.577 160.215C181.076 159.011 181.319 157.716 181.291 156.413C181.378 154.547 180.836 152.706 179.752 151.184ZM165.75 145.137C164.475 144.75 163.29 144.115 162.263 143.267C161.857 142.905 161.535 142.458 161.322 141.957C161.108 141.456 161.009 140.915 161.03 140.371C160.992 139.138 161.446 137.939 162.291 137.04C163.229 136.096 164.438 135.468 165.75 135.246V145.137ZM173.548 159.876C172.664 160.783 171.512 161.382 170.262 161.587V152.416C171.457 152.737 172.575 153.295 173.548 154.058C173.917 154.373 174.21 154.767 174.406 155.211C174.601 155.654 174.694 156.136 174.678 156.621C174.726 157.81 174.323 158.973 173.548 159.876Z" fill="#8AD2FF"/>
<path d="M560.746 189.957C548.137 189.961 536.024 194.869 526.972 203.64C517.919 212.412 512.638 224.359 512.245 236.953C512.231 237.445 512.225 237.944 512.225 238.442C512.225 248.032 515.07 257.406 520.402 265.38C525.733 273.353 533.311 279.568 542.178 283.237C551.044 286.907 560.8 287.867 570.212 285.996C579.624 284.126 588.27 279.508 595.056 272.727C601.841 265.946 606.463 257.307 608.335 247.901C610.207 238.496 609.246 228.747 605.574 219.888C601.901 211.028 595.682 203.456 587.703 198.128C579.724 192.8 570.342 189.957 560.746 189.957ZM560.746 285.543C548.249 285.53 536.267 280.563 527.431 271.733C518.594 262.903 513.624 250.93 513.611 238.442C513.611 237.798 513.625 237.161 513.653 236.531C514.028 227.304 517.109 218.392 522.513 210.901C527.916 203.411 535.404 197.673 544.045 194.401C552.686 191.129 562.099 190.467 571.114 192.498C580.128 194.529 588.346 199.163 594.746 205.824C601.146 212.484 605.446 220.878 607.11 229.961C608.774 239.044 607.73 248.415 604.107 256.91C600.484 265.404 594.442 272.647 586.733 277.738C579.023 282.829 569.987 285.543 560.746 285.543Z" fill="#3F3D56"/>
<path d="M601.643 238.442C601.643 249.281 597.334 259.675 589.664 267.339C581.995 275.003 571.593 279.309 560.746 279.309C549.9 279.309 539.497 275.003 531.828 267.339C524.158 259.675 519.85 249.281 519.85 238.442C519.85 237.147 519.912 235.872 520.03 234.612C521.015 224.151 525.995 214.472 533.934 207.584C541.873 200.696 552.162 197.128 562.665 197.621C573.167 198.114 583.077 202.63 590.335 210.231C597.593 217.833 601.643 227.936 601.643 238.442Z" fill="#E6E6E6"/>
<path d="M572.925 241.157C571.933 239.855 570.629 238.823 569.133 238.158C567.288 237.381 565.382 236.755 563.435 236.288V225.164C566.428 225.615 569.235 226.894 571.538 228.856L573.798 224.042C572.498 222.885 571.006 221.963 569.389 221.32C567.597 220.594 565.716 220.112 563.796 219.886V214.248H558.563V219.941C556.542 220.168 554.592 220.822 552.844 221.86C551.265 222.794 549.935 224.096 548.969 225.656C548.047 227.177 547.569 228.926 547.59 230.705C547.5 232.633 548.059 234.535 549.177 236.108C550.207 237.47 551.566 238.547 553.128 239.239C555.003 240.039 556.941 240.68 558.923 241.157V251.817C555.391 251.551 552.026 250.209 549.281 247.973L547.021 252.794C548.556 254.062 550.302 255.051 552.179 255.717C554.235 256.452 556.383 256.9 558.563 257.047V262.636H563.796V256.943C566.703 256.625 569.429 255.376 571.566 253.383C572.507 252.48 573.251 251.393 573.75 250.189C574.249 248.984 574.492 247.69 574.464 246.387C574.551 244.521 574.009 242.679 572.925 241.157ZM558.923 235.11C557.648 234.724 556.463 234.088 555.436 233.24C555.029 232.878 554.708 232.431 554.495 231.931C554.281 231.43 554.182 230.889 554.203 230.345C554.165 229.111 554.618 227.913 555.464 227.013C556.401 226.069 557.611 225.442 558.923 225.219V235.11ZM566.721 249.85C565.837 250.756 564.685 251.356 563.435 251.561V242.39C564.63 242.71 565.748 243.269 566.721 244.032C567.09 244.347 567.383 244.741 567.579 245.184C567.774 245.628 567.867 246.11 567.851 246.595C567.899 247.783 567.495 248.946 566.721 249.85Z" fill="#8AD2FF"/>
</svg>
